WixMadeforDisplay-Regular.ufo
<glyph name="exclam" format="2">
	<unicode hex="0021"/>
	<advance width="222"/>
	<outline>
		<contour>
			<point x="167" y="46" type="curve" smooth="yes"/>
			<point x="167" y="77"/>
			<point x="142" y="102"/>
			<point x="111" y="102" type="curve" smooth="yes"/>
			<point x="80" y="102"/>
			<point x="55" y="77"/>
			<point x="55" y="46" type="curve" smooth="yes"/>
			<point x="55" y="15"/>
			<point x="80" y="-10"/>
			<point x="111" y="-10" type="curve" smooth="yes"/>
			<point x="142" y="-10"/>
			<point x="167" y="15"/>
		</contour>
		<contour>
			<point x="134" y="204" type="line"/>
			<point x="138" y="274"/>
			<point x="156" y="667"/>
			<point x="156" y="687" type="curve" smooth="yes"/>
			<point x="156" y="712"/>
			<point x="136" y="731"/>
			<point x="111" y="731" type="curve" smooth="yes"/>
			<point x="86" y="731"/>
			<point x="66" y="712"/>
			<point x="66" y="687" type="curve" smooth="yes"/>
			<point x="66" y="667"/>
			<point x="84" y="274"/>
			<point x="88" y="204" type="curve"/>
		</contour>
	</outline>
</glyph>
<glyph name="numbersign" format="2">
	<unicode hex="0023"/>
	<advance width="660"/>
	<outline>
		<contour>
			<point x="414" y="0" type="line"/>
			<point x="566" y="715" type="line"/>
			<point x="502" y="715" type="line"/>
			<point x="350" y="0" type="line"/>
		</contour>
		<contour>
			<point x="552" y="202" type="line"/>
			<point x="563" y="257" type="line"/>
			<point x="54" y="257" type="line"/>
			<point x="43" y="202" type="line"/>
		</contour>
		<contour>
			<point x="246" y="715" type="line"/>
			<point x="94" y="0" type="line"/>
			<point x="158" y="0" type="line"/>
			<point x="310" y="715" type="line"/>
		</contour>
		<contour>
			<point x="108" y="513" type="line"/>
			<point x="97" y="458" type="line"/>
			<point x="606" y="458" type="line"/>
			<point x="617" y="513" type="line"/>
		</contour>
	</outline>
	<guideline x="498" y="0" angle="102.01"/>
	<guideline x="-71" y="0" angle="102.62"/>
</glyph>
<glyph name="ampersand" format="2">
	<unicode hex="0026"/>
	<advance width="677"/>
	<outline>
		<contour>
			<point x="648" y="303" type="line"/>
			<point x="593" y="344" type="line"/>
			<point x="465" y="170" type="line" smooth="yes"/>
			<point x="396" y="78"/>
			<point x="340" y="49"/>
			<point x="272" y="49" type="curve" smooth="yes"/>
			<point x="183" y="49"/>
			<point x="125" y="110"/>
			<point x="125" y="187" type="curve" smooth="yes"/>
			<point x="125" y="262"/>
			<point x="174" y="318"/>
			<point x="279" y="357" type="curve"/>
			<point x="255" y="409" type="line"/>
			<point x="116" y="364"/>
			<point x="45" y="286"/>
			<point x="45" y="180" type="curve" smooth="yes"/>
			<point x="45" y="72"/>
			<point x="130" y="-16"/>
			<point x="269" y="-16" type="curve" smooth="yes"/>
			<point x="361" y="-16"/>
			<point x="433" y="19"/>
			<point x="517" y="124" type="curve" smooth="yes"/>
		</contour>
		<contour>
			<point x="669" y="43" type="line"/>
			<point x="312" y="383" type="line"/>
			<point x="296" y="397" type="line"/>
			<point x="222" y="459"/>
			<point x="191" y="506"/>
			<point x="191" y="557" type="curve" smooth="yes"/>
			<point x="191" y="618"/>
			<point x="240" y="666"/>
			<point x="300" y="666" type="curve" smooth="yes"/>
			<point x="364" y="666"/>
			<point x="410" y="620"/>
			<point x="410" y="557" type="curve" smooth="yes"/>
			<point x="410" y="482"/>
			<point x="350" y="440"/>
			<point x="264" y="410" type="curve"/>
			<point x="294" y="359" type="line"/>
			<point x="400" y="398"/>
			<point x="485" y="463"/>
			<point x="485" y="564" type="curve" smooth="yes"/>
			<point x="485" y="655"/>
			<point x="406" y="731"/>
			<point x="300" y="731" type="curve" smooth="yes"/>
			<point x="194" y="731"/>
			<point x="114" y="654"/>
			<point x="114" y="564" type="curve" smooth="yes"/>
			<point x="114" y="499"/>
			<point x="141" y="450"/>
			<point x="233" y="361" type="curve"/>
			<point x="245" y="350" type="line"/>
			<point x="619" y="-8" type="line"/>
		</contour>
	</outline>
	<guideline x="295"/>
	<guideline y="557"/>
</glyph>
<glyph name="parenright" format="2">
	<unicode hex="0029"/>
	<advance width="316"/>
	<outline>
		<contour>
			<point x="254" y="301" type="curve" smooth="yes"/>
			<point x="254" y="461"/>
			<point x="203" y="610"/>
			<point x="109" y="731" type="curve"/>
			<point x="38" y="731" type="line"/>
			<point x="134" y="593"/>
			<point x="182" y="451"/>
			<point x="182" y="301" type="curve" smooth="yes"/>
			<point x="182" y="151"/>
			<point x="134" y="9"/>
			<point x="38" y="-129" type="curve"/>
			<point x="109" y="-129" type="line"/>
			<point x="203" y="-8"/>
			<point x="254" y="141"/>
		</contour>
	</outline>
</glyph>
<glyph name="asterisk" format="2">
	<unicode hex="002A"/>
	<advance width="412"/>
	<outline>
		<contour>
			<point x="206" y="505" type="curve"/>
			<point x="232" y="442"/>
			<point x="252" y="407"/>
			<point x="263" y="392" type="curve" smooth="yes"/>
			<point x="273" y="378"/>
			<point x="285" y="372"/>
			<point x="297" y="372" type="curve" smooth="yes"/>
			<point x="317" y="372"/>
			<point x="336" y="390"/>
			<point x="336" y="409" type="curve" smooth="yes"/>
			<point x="336" y="419"/>
			<point x="332" y="428"/>
			<point x="325" y="438" type="curve" smooth="yes"/>
			<point x="315" y="453"/>
			<point x="290" y="482"/>
			<point x="238" y="526" type="curve"/>
			<point x="306" y="533"/>
			<point x="338" y="541"/>
			<point x="355" y="547" type="curve" smooth="yes"/>
			<point x="375" y="553"/>
			<point x="386" y="567"/>
			<point x="386" y="584" type="curve" smooth="yes"/>
			<point x="386" y="607"/>
			<point x="371" y="623"/>
			<point x="349" y="623" type="curve" smooth="yes"/>
			<point x="342" y="623"/>
			<point x="335" y="622"/>
			<point x="325" y="618" type="curve" smooth="yes"/>
			<point x="306" y="611"/>
			<point x="279" y="599"/>
			<point x="226" y="564" type="curve"/>
			<point x="241" y="631"/>
			<point x="245" y="669"/>
			<point x="245" y="688" type="curve" smooth="yes"/>
			<point x="245" y="715"/>
			<point x="230" y="731"/>
			<point x="206" y="731" type="curve" smooth="yes"/>
			<point x="182" y="731"/>
			<point x="167" y="715"/>
			<point x="167" y="688" type="curve" smooth="yes"/>
			<point x="167" y="669"/>
			<point x="171" y="631"/>
			<point x="186" y="564" type="curve"/>
			<point x="133" y="599"/>
			<point x="106" y="611"/>
			<point x="87" y="618" type="curve" smooth="yes"/>
			<point x="77" y="622"/>
			<point x="70" y="623"/>
			<point x="63" y="623" type="curve" smooth="yes"/>
			<point x="41" y="623"/>
			<point x="26" y="607"/>
			<point x="26" y="584" type="curve" smooth="yes"/>
			<point x="26" y="567"/>
			<point x="37" y="553"/>
			<point x="57" y="547" type="curve" smooth="yes"/>
			<point x="74" y="541"/>
			<point x="106" y="533"/>
			<point x="174" y="526" type="curve"/>
			<point x="122" y="482"/>
			<point x="97" y="453"/>
			<point x="87" y="438" type="curve" smooth="yes"/>
			<point x="80" y="428"/>
			<point x="76" y="419"/>
			<point x="76" y="409" type="curve" smooth="yes"/>
			<point x="76" y="390"/>
			<point x="95" y="372"/>
			<point x="115" y="372" type="curve" smooth="yes"/>
			<point x="127" y="372"/>
			<point x="139" y="378"/>
			<point x="149" y="392" type="curve" smooth="yes"/>
			<point x="160" y="407"/>
			<point x="180" y="442"/>
		</contour>
	</outline>
</glyph>
<glyph name="plus" format="2">
	<unicode hex="002B"/>
	<advance width="660"/>
	<outline>
		<contour>
			<point x="535" y="326" type="line"/>
			<point x="535" y="388" type="line"/>
			<point x="125" y="388" type="line"/>
			<point x="125" y="326" type="line"/>
		</contour>
		<contour>
			<point x="361" y="152" type="line"/>
			<point x="361" y="562" type="line"/>
			<point x="299" y="562" type="line"/>
			<point x="299" y="152" type="line"/>
		</contour>
	</outline>
	<guideline x="443"/>
	<guideline y="357"/>
</glyph>
<glyph name="comma" format="2">
	<unicode hex="002C"/>
	<advance width="222"/>
	<outline>
		<contour>
			<point x="106" y="-121" type="line"/>
			<point x="138" y="-78"/>
			<point x="167" y="-11"/>
			<point x="167" y="37" type="curve" smooth="yes"/>
			<point x="167" y="75"/>
			<point x="142" y="102"/>
			<point x="108" y="102" type="curve" smooth="yes"/>
			<point x="79" y="102"/>
			<point x="55" y="77"/>
			<point x="55" y="47" type="curve" smooth="yes"/>
			<point x="55" y="16"/>
			<point x="79" y="-7"/>
			<point x="110" y="-7" type="curve"/>
			<point x="102" y="10" type="line"/>
			<point x="104" y="-25"/>
			<point x="85" y="-79"/>
			<point x="56" y="-121" type="curve"/>
		</contour>
	</outline>
	<guideline x="50"/>
	<guideline y="45"/>
</glyph>
<glyph name="period" format="2">
	<unicode hex="002E"/>
	<advance width="222"/>
	<outline>
		<contour>
			<point x="167" y="46" type="curve" smooth="yes"/>
			<point x="167" y="77"/>
			<point x="142" y="102"/>
			<point x="111" y="102" type="curve" smooth="yes"/>
			<point x="80" y="102"/>
			<point x="55" y="77"/>
			<point x="55" y="46" type="curve" smooth="yes"/>
			<point x="55" y="15"/>
			<point x="80" y="-10"/>
			<point x="111" y="-10" type="curve" smooth="yes"/>
			<point x="142" y="-10"/>
			<point x="167" y="15"/>
		</contour>
	</outline>
</glyph>
<glyph name="zero" format="2">
	<unicode hex="0030"/>
	<advance width="646"/>
	<outline>
		<contour>
			<point x="323" y="-16" type="curve" smooth="yes"/>
			<point x="486" y="-16"/>
			<point x="583" y="124"/>
			<point x="583" y="357" type="curve" smooth="yes"/>
			<point x="583" y="592"/>
			<point x="486" y="731"/>
			<point x="323" y="731" type="curve" smooth="yes"/>
			<point x="160" y="731"/>
			<point x="63" y="592"/>
			<point x="63" y="357" type="curve" smooth="yes"/>
			<point x="63" y="124"/>
			<point x="160" y="-16"/>
		</contour>
		<contour>
			<point x="323" y="49" type="curve" smooth="yes"/>
			<point x="207" y="49"/>
			<point x="141" y="160"/>
			<point x="141" y="357" type="curve" smooth="yes"/>
			<point x="141" y="555"/>
			<point x="207" y="666"/>
			<point x="323" y="666" type="curve" smooth="yes"/>
			<point x="439" y="666"/>
			<point x="505" y="555"/>
			<point x="505" y="357" type="curve" smooth="yes"/>
			<point x="505" y="160"/>
			<point x="439" y="49"/>
		</contour>
	</outline>
</glyph>
<glyph name="one" format="2">
	<unicode hex="0031"/>
	<advance width="456"/>
	<outline>
		<contour>
			<point x="263" y="715" type="line"/>
			<point x="80" y="570" type="line"/>
			<point x="80" y="488" type="line"/>
			<point x="263" y="633" type="line"/>
			<point x="263" y="0" type="line"/>
			<point x="337" y="0" type="line"/>
			<point x="337" y="715" type="line"/>
		</contour>
	</outline>
</glyph>
<glyph name="two" format="2">
	<unicode hex="0032"/>
	<advance width="598"/>
	<outline>
		<contour>
			<point x="520" y="0" type="line"/>
			<point x="520" y="64" type="line"/>
			<point x="144" y="64" type="line"/>
			<point x="209" y="125"/>
			<point x="275" y="186"/>
			<point x="341" y="249" type="curve" smooth="yes"/>
			<point x="458" y="358"/>
			<point x="516" y="428"/>
			<point x="516" y="521" type="curve" smooth="yes"/>
			<point x="516" y="638"/>
			<point x="429" y="731"/>
			<point x="296" y="731" type="curve" smooth="yes"/>
			<point x="197" y="731"/>
			<point x="113" y="684"/>
			<point x="47" y="591" type="curve"/>
			<point x="100" y="542" type="line"/>
			<point x="147" y="618"/>
			<point x="212" y="666"/>
			<point x="293" y="666" type="curve" smooth="yes"/>
			<point x="382" y="666"/>
			<point x="440" y="602"/>
			<point x="440" y="524" type="curve" smooth="yes"/>
			<point x="440" y="451"/>
			<point x="391" y="386"/>
			<point x="300" y="300" type="curve" smooth="yes"/>
			<point x="52" y="64" type="line"/>
			<point x="52" y="0" type="line"/>
		</contour>
	</outline>
</glyph>
<glyph name="three" format="2">
	<unicode hex="0033"/>
	<advance width="599"/>
	<outline>
		<contour>
			<point x="39" y="114" type="line"/>
			<point x="104" y="33"/>
			<point x="193" y="-16"/>
			<point x="300" y="-16" type="curve" smooth="yes"/>
			<point x="447" y="-16"/>
			<point x="548" y="76"/>
			<point x="548" y="197" type="curve" smooth="yes"/>
			<point x="548" y="312"/>
			<point x="446" y="396"/>
			<point x="296" y="396" type="curve"/>
			<point x="286" y="359" type="line"/>
			<point x="430" y="359"/>
			<point x="528" y="435"/>
			<point x="528" y="535" type="curve" smooth="yes"/>
			<point x="528" y="647"/>
			<point x="435" y="731"/>
			<point x="301" y="731" type="curve" smooth="yes"/>
			<point x="202" y="731"/>
			<point x="120" y="682"/>
			<point x="59" y="601" type="curve"/>
			<point x="112" y="552" type="line"/>
			<point x="159" y="622"/>
			<point x="221" y="666"/>
			<point x="301" y="666" type="curve" smooth="yes"/>
			<point x="390" y="666"/>
			<point x="450" y="612"/>
			<point x="450" y="535" type="curve" smooth="yes"/>
			<point x="450" y="456"/>
			<point x="380" y="406"/>
			<point x="291" y="406" type="curve" smooth="yes"/>
			<point x="221" y="406" type="line"/>
			<point x="221" y="341" type="line"/>
			<point x="291" y="341" type="line" smooth="yes"/>
			<point x="392" y="341"/>
			<point x="470" y="287"/>
			<point x="470" y="197" type="curve" smooth="yes"/>
			<point x="470" y="111"/>
			<point x="402" y="49"/>
			<point x="300" y="49" type="curve" smooth="yes"/>
			<point x="212" y="49"/>
			<point x="143" y="93"/>
			<point x="92" y="163" type="curve"/>
		</contour>
	</outline>
</glyph>
<glyph name="four" format="2">
	<unicode hex="0034"/>
	<advance width="646"/>
	<outline>
		<contour>
			<point x="495" y="0" type="line"/>
			<point x="495" y="183" type="line"/>
			<point x="607" y="183" type="line"/>
			<point x="607" y="245" type="line"/>
			<point x="495" y="245" type="line"/>
			<point x="495" y="715" type="line"/>
			<point x="421" y="715" type="line"/>
			<point x="43" y="245" type="line"/>
			<point x="43" y="183" type="line"/>
			<point x="421" y="183" type="line"/>
			<point x="421" y="0" type="line"/>
		</contour>
		<contour>
			<point x="421" y="619" type="line"/>
			<point x="421" y="245" type="line"/>
			<point x="122" y="245" type="line"/>
		</contour>
	</outline>
	<guideline x="230"/>
</glyph>
<glyph name="six" format="2">
	<unicode hex="0036"/>
	<advance width="622"/>
	<outline>
		<contour>
			<point x="312" y="-16" type="curve" smooth="yes"/>
			<point x="461" y="-16"/>
			<point x="571" y="92"/>
			<point x="571" y="232" type="curve" smooth="yes"/>
			<point x="571" y="372"/>
			<point x="456" y="470"/>
			<point x="326" y="470" type="curve" smooth="yes"/>
			<point x="235" y="470"/>
			<point x="158" y="420"/>
			<point x="121" y="345" type="curve"/>
			<point x="140" y="335" type="line"/>
			<point x="170" y="450"/>
			<point x="257" y="561"/>
			<point x="462" y="715" type="curve"/>
			<point x="355" y="715" type="line"/>
			<point x="145" y="554"/>
			<point x="53" y="397"/>
			<point x="53" y="249" type="curve" smooth="yes"/>
			<point x="53" y="94"/>
			<point x="157" y="-16"/>
		</contour>
		<contour>
			<point x="312" y="50" type="curve" smooth="yes"/>
			<point x="207" y="50"/>
			<point x="131" y="128"/>
			<point x="131" y="230" type="curve" smooth="yes"/>
			<point x="131" y="331"/>
			<point x="207" y="406"/>
			<point x="312" y="406" type="curve" smooth="yes"/>
			<point x="416" y="406"/>
			<point x="494" y="331"/>
			<point x="494" y="230" type="curve" smooth="yes"/>
			<point x="494" y="128"/>
			<point x="416" y="50"/>
		</contour>
	</outline>
</glyph>
<glyph name="seven" format="2">
	<unicode hex="0037"/>
	<advance width="594"/>
	<outline>
		<contour>
			<point x="539" y="715" type="line"/>
			<point x="55" y="715" type="line"/>
			<point x="55" y="649" type="line"/>
			<point x="456" y="649" type="line"/>
			<point x="95" y="0" type="line"/>
			<point x="180" y="0" type="line"/>
			<point x="539" y="649" type="line"/>
		</contour>
	</outline>
</glyph>
<glyph name="eight" format="2">
	<unicode hex="0038"/>
	<advance width="624"/>
	<outline>
		<contour>
			<point x="312" y="-16" type="curve" smooth="yes"/>
			<point x="463" y="-16"/>
			<point x="573" y="71"/>
			<point x="573" y="194" type="curve" smooth="yes"/>
			<point x="573" y="311"/>
			<point x="463" y="398"/>
			<point x="312" y="398" type="curve" smooth="yes"/>
			<point x="161" y="398"/>
			<point x="51" y="311"/>
			<point x="51" y="194" type="curve" smooth="yes"/>
			<point x="51" y="71"/>
			<point x="161" y="-16"/>
		</contour>
		<contour>
			<point x="312" y="356" type="curve" smooth="yes"/>
			<point x="448" y="356"/>
			<point x="547" y="432"/>
			<point x="547" y="533" type="curve" smooth="yes"/>
			<point x="547" y="649"/>
			<point x="448" y="731"/>
			<point x="312" y="731" type="curve" smooth="yes"/>
			<point x="176" y="731"/>
			<point x="77" y="649"/>
			<point x="77" y="533" type="curve" smooth="yes"/>
			<point x="77" y="432"/>
			<point x="176" y="356"/>
		</contour>
		<contour>
			<point x="312" y="49" type="curve" smooth="yes"/>
			<point x="210" y="49"/>
			<point x="129" y="111"/>
			<point x="129" y="194" type="curve" smooth="yes"/>
			<point x="129" y="277"/>
			<point x="210" y="339"/>
			<point x="312" y="339" type="curve" smooth="yes"/>
			<point x="414" y="339"/>
			<point x="495" y="277"/>
			<point x="495" y="194" type="curve" smooth="yes"/>
			<point x="495" y="111"/>
			<point x="414" y="49"/>
		</contour>
		<contour>
			<point x="312" y="404" type="curve" smooth="yes"/>
			<point x="225" y="404"/>
			<point x="155" y="460"/>
			<point x="155" y="533" type="curve" smooth="yes"/>
			<point x="155" y="608"/>
			<point x="225" y="666"/>
			<point x="312" y="666" type="curve" smooth="yes"/>
			<point x="399" y="666"/>
			<point x="469" y="608"/>
			<point x="469" y="533" type="curve" smooth="yes"/>
			<point x="469" y="460"/>
			<point x="399" y="404"/>
		</contour>
	</outline>
</glyph>
<glyph name="nine" format="2">
	<unicode hex="0039"/>
	<advance width="622"/>
	<outline>
		<contour>
			<point x="310" y="731" type="curve" smooth="yes"/>
			<point x="161" y="731"/>
			<point x="51" y="623"/>
			<point x="51" y="483" type="curve" smooth="yes"/>
			<point x="51" y="343"/>
			<point x="166" y="245"/>
			<point x="296" y="245" type="curve" smooth="yes"/>
			<point x="387" y="245"/>
			<point x="464" y="295"/>
			<point x="501" y="370" type="curve"/>
			<point x="482" y="380" type="line"/>
			<point x="452" y="265"/>
			<point x="365" y="154"/>
			<point x="160" y="0" type="curve"/>
			<point x="267" y="0" type="line"/>
			<point x="477" y="161"/>
			<point x="569" y="318"/>
			<point x="569" y="466" type="curve" smooth="yes"/>
			<point x="569" y="621"/>
			<point x="465" y="731"/>
		</contour>
		<contour>
			<point x="310" y="665" type="curve" smooth="yes"/>
			<point x="415" y="665"/>
			<point x="491" y="587"/>
			<point x="491" y="485" type="curve" smooth="yes"/>
			<point x="491" y="384"/>
			<point x="415" y="309"/>
			<point x="310" y="309" type="curve" smooth="yes"/>
			<point x="206" y="309"/>
			<point x="128" y="384"/>
			<point x="128" y="485" type="curve" smooth="yes"/>
			<point x="128" y="587"/>
			<point x="206" y="665"/>
		</contour>
	</outline>
</glyph>
<glyph name="less" format="2">
	<unicode hex="003C"/>
	<advance width="660"/>
	<outline>
		<contour>
			<point x="124" y="383" type="line"/>
			<point x="124" y="317" type="line"/>
			<point x="536" y="138" type="line"/>
			<point x="536" y="210" type="line"/>
		</contour>
		<contour>
			<point x="124" y="403" type="line"/>
			<point x="124" y="340" type="line"/>
			<point x="536" y="512" type="line"/>
			<point x="536" y="581" type="line"/>
		</contour>
	</outline>
	<guideline x="291"/>
	<guideline y="357"/>
</glyph>
<glyph name="equal" format="2">
	<unicode hex="003D"/>
	<advance width="660"/>
	<outline>
		<contour>
			<point x="525" y="224" type="line"/>
			<point x="525" y="286" type="line"/>
			<point x="135" y="286" type="line"/>
			<point x="135" y="224" type="line"/>
		</contour>
		<contour>
			<point x="525" y="428" type="line"/>
			<point x="525" y="490" type="line"/>
			<point x="135" y="490" type="line"/>
			<point x="135" y="428" type="line"/>
		</contour>
	</outline>
</glyph>
<glyph name="question" format="2">
	<unicode hex="003F"/>
	<advance width="561"/>
	<outline>
		<contour>
			<point x="284" y="204" type="line"/>
			<point x="284" y="274"/>
			<point x="307" y="315"/>
			<point x="370" y="355" type="curve" smooth="yes"/>
			<point x="456" y="410"/>
			<point x="496" y="465"/>
			<point x="496" y="537" type="curve" smooth="yes"/>
			<point x="496" y="648"/>
			<point x="402" y="731"/>
			<point x="275" y="731" type="curve" smooth="yes"/>
			<point x="181" y="731"/>
			<point x="99" y="686"/>
			<point x="37" y="601" type="curve"/>
			<point x="90" y="552" type="line"/>
			<point x="138" y="627"/>
			<point x="201" y="666"/>
			<point x="274" y="666" type="curve" smooth="yes"/>
			<point x="359" y="666"/>
			<point x="418" y="613"/>
			<point x="418" y="535" type="curve" smooth="yes"/>
			<point x="418" y="487"/>
			<point x="394" y="448"/>
			<point x="343" y="412" type="curve" smooth="yes"/>
			<point x="252" y="356"/>
			<point x="214" y="291"/>
			<point x="222" y="204" type="curve"/>
		</contour>
		<contour>
			<point x="308" y="46" type="curve" smooth="yes"/>
			<point x="308" y="77"/>
			<point x="283" y="102"/>
			<point x="252" y="102" type="curve" smooth="yes"/>
			<point x="221" y="102"/>
			<point x="196" y="77"/>
			<point x="196" y="46" type="curve" smooth="yes"/>
			<point x="196" y="15"/>
			<point x="221" y="-10"/>
			<point x="252" y="-10" type="curve" smooth="yes"/>
			<point x="283" y="-10"/>
			<point x="308" y="15"/>
		</contour>
	</outline>
</glyph>
<glyph name="at" format="2">
	<unicode hex="0040"/>
	<advance width="1057"/>
	<outline>
		<contour>
			<point x="508" y="43" type="curve" smooth="yes"/>
			<point x="623" y="43"/>
			<point x="717" y="130"/>
			<point x="697" y="232" type="curve"/>
			<point x="683" y="258" type="line"/>
			<point x="682" y="170"/>
			<point x="603" y="102"/>
			<point x="515" y="102" type="curve" smooth="yes"/>
			<point x="426" y="102"/>
			<point x="365" y="170"/>
			<point x="365" y="260" type="curve" smooth="yes"/>
			<point x="365" y="351"/>
			<point x="430" y="419"/>
			<point x="515" y="419" type="curve" smooth="yes"/>
			<point x="602" y="419"/>
			<point x="666" y="350"/>
			<point x="666" y="265" type="curve"/>
			<point x="683" y="245" type="line"/>
			<point x="688" y="266"/>
			<point x="691" y="283"/>
			<point x="691" y="299" type="curve" smooth="yes"/>
			<point x="691" y="399"/>
			<point x="618" y="478"/>
			<point x="508" y="478" type="curve" smooth="yes"/>
			<point x="390" y="478"/>
			<point x="295" y="386"/>
			<point x="295" y="260" type="curve" smooth="yes"/>
			<point x="295" y="137"/>
			<point x="388" y="43"/>
		</contour>
		<contour>
			<point x="780" y="-36" type="line"/>
			<point x="742" y="-91"/>
			<point x="648" y="-132"/>
			<point x="537" y="-132" type="curve" smooth="yes"/>
			<point x="316" y="-132"/>
			<point x="141" y="40"/>
			<point x="141" y="262" type="curve" smooth="yes"/>
			<point x="141" y="496"/>
			<point x="311" y="669"/>
			<point x="542" y="669" type="curve" smooth="yes"/>
			<point x="763" y="669"/>
			<point x="917" y="509"/>
			<point x="917" y="281" type="curve" smooth="yes"/>
			<point x="917" y="170"/>
			<point x="879" y="106"/>
			<point x="812" y="106" type="curve" smooth="yes"/>
			<point x="765" y="106"/>
			<point x="732" y="133"/>
			<point x="732" y="203" type="curve" smooth="yes"/>
			<point x="732" y="464" type="line"/>
			<point x="667" y="464" type="line"/>
			<point x="667" y="339" type="line"/>
			<point x="666" y="330" type="line"/>
			<point x="666" y="187" type="line" smooth="yes"/>
			<point x="666" y="101"/>
			<point x="726" y="43"/>
			<point x="808" y="43" type="curve" smooth="yes"/>
			<point x="920" y="43"/>
			<point x="987" y="135"/>
			<point x="987" y="285" type="curve" smooth="yes"/>
			<point x="987" y="542"/>
			<point x="798" y="731"/>
			<point x="541" y="731" type="curve" smooth="yes"/>
			<point x="275" y="731"/>
			<point x="71" y="528"/>
			<point x="71" y="262" type="curve" smooth="yes"/>
			<point x="71" y="3"/>
			<point x="273" y="-194"/>
			<point x="536" y="-194" type="curve" smooth="yes"/>
			<point x="667" y="-194"/>
			<point x="777" y="-147"/>
			<point x="831" y="-82" type="curve"/>
		</contour>
	</outline>
</glyph>
<glyph name="A" format="2">
	<unicode hex="0041"/>
	<advance width="727"/>
	<outline>
		<contour>
			<point x="555" y="200" type="line"/>
			<point x="555" y="268" type="line"/>
			<point x="166" y="268" type="line"/>
			<point x="166" y="200" type="line"/>
		</contour>
		<contour>
			<point x="691" y="0" type="line"/>
			<point x="405" y="715" type="line"/>
			<point x="322" y="715" type="line"/>
			<point x="36" y="0" type="line"/>
			<point x="114" y="0" type="line"/>
			<point x="379" y="669" type="line"/>
			<point x="345" y="669" type="line"/>
			<point x="610" y="0" type="line"/>
		</contour>
	</outline>
	<anchor name="bottom.UC" x="363" y="-50"/>
	<anchor name="ogonek.UC" x="593" y="-30"/>
	<anchor name="top.UC" x="363" y="750"/>
</glyph>
<glyph name="B" format="2">
	<unicode hex="0042"/>
	<advance width="666"/>
	<outline>
		<contour>
			<point x="85" y="0" type="line"/>
			<point x="376" y="0" type="line" smooth="yes"/>
			<point x="517" y="0"/>
			<point x="612" y="80"/>
			<point x="612" y="201" type="curve" smooth="yes"/>
			<point x="612" y="321"/>
			<point x="517" y="397"/>
			<point x="376" y="397" type="curve" smooth="yes"/>
			<point x="172" y="397" type="line"/>
			<point x="172" y="349" type="line"/>
			<point x="353" y="349" type="line" smooth="yes"/>
			<point x="490" y="349"/>
			<point x="580" y="421"/>
			<point x="580" y="526" type="curve" smooth="yes"/>
			<point x="580" y="639"/>
			<point x="490" y="715"/>
			<point x="353" y="715" type="curve" smooth="yes"/>
			<point x="85" y="715" type="line"/>
		</contour>
		<contour>
			<point x="162" y="68" type="line"/>
			<point x="162" y="647" type="line"/>
			<point x="353" y="647" type="line" smooth="yes"/>
			<point x="445" y="647"/>
			<point x="502" y="601"/>
			<point x="502" y="526" type="curve" smooth="yes"/>
			<point x="502" y="448"/>
			<point x="445" y="402"/>
			<point x="353" y="402" type="curve" smooth="yes"/>
			<point x="152" y="402" type="line"/>
			<point x="152" y="334" type="line"/>
			<point x="376" y="334" type="line" smooth="yes"/>
			<point x="473" y="334"/>
			<point x="533" y="285"/>
			<point x="533" y="201" type="curve" smooth="yes"/>
			<point x="533" y="117"/>
			<point x="473" y="68"/>
			<point x="376" y="68" type="curve" smooth="yes"/>
		</contour>
	</outline>
</glyph>
<glyph name="D" format="2">
	<unicode hex="0044"/>
	<advance width="741"/>
	<outline>
		<contour>
			<point x="85" y="0" type="line"/>
			<point x="316" y="0" type="line" smooth="yes"/>
			<point x="535" y="0"/>
			<point x="687" y="150"/>
			<point x="687" y="358" type="curve" smooth="yes"/>
			<point x="687" y="565"/>
			<point x="535" y="715"/>
			<point x="316" y="715" type="curve" smooth="yes"/>
			<point x="85" y="715" type="line"/>
		</contour>
		<contour>
			<point x="162" y="70" type="line"/>
			<point x="162" y="645" type="line"/>
			<point x="316" y="645" type="line" smooth="yes"/>
			<point x="494" y="645"/>
			<point x="607" y="529"/>
			<point x="607" y="358" type="curve" smooth="yes"/>
			<point x="607" y="186"/>
			<point x="494" y="70"/>
			<point x="316" y="70" type="curve" smooth="yes"/>
		</contour>
	</outline>
	<anchor name="top.UC" x="340" y="750"/>
	<guideline y="1000"/>
</glyph>
<glyph name="E" format="2">
	<unicode hex="0045"/>
	<advance width="603"/>
	<outline>
		<contour>
			<point x="558" y="0" type="line"/>
			<point x="558" y="68" type="line"/>
			<point x="162" y="68" type="line"/>
			<point x="162" y="647" type="line"/>
			<point x="558" y="647" type="line"/>
			<point x="558" y="715" type="line"/>
			<point x="85" y="715" type="line"/>
			<point x="85" y="0" type="line"/>
		</contour>
		<contour>
			<point x="539" y="332" type="line"/>
			<point x="539" y="400" type="line"/>
			<point x="152" y="400" type="line"/>
			<point x="152" y="332" type="line"/>
		</contour>
	</outline>
	<anchor name="bottom.UC" x="321" y="-50"/>
	<anchor name="ogonek.UC" x="461" y="-30"/>
	<anchor name="top.UC" x="321" y="750"/>
</glyph>
<glyph name="F" format="2">
	<unicode hex="0046"/>
	<advance width="578"/>
	<outline>
		<contour>
			<point x="162" y="0" type="line"/>
			<point x="162" y="647" type="line"/>
			<point x="538" y="647" type="line"/>
			<point x="538" y="715" type="line"/>
			<point x="85" y="715" type="line"/>
			<point x="85" y="0" type="line"/>
		</contour>
		<contour>
			<point x="519" y="332" type="line"/>
			<point x="519" y="400" type="line"/>
			<point x="152" y="400" type="line"/>
			<point x="152" y="332" type="line"/>
		</contour>
	</outline>
</glyph>
<glyph name="G" format="2">
	<unicode hex="0047"/>
	<advance width="797"/>
	<outline>
		<contour>
			<point x="736" y="0" type="line"/>
			<point x="736" y="372" type="line"/>
			<point x="419" y="372" type="line"/>
			<point x="419" y="304" type="line"/>
			<point x="661" y="304" type="line"/>
			<point x="661" y="152" type="line"/>
			<point x="670" y="190" type="line"/>
			<point x="632" y="108"/>
			<point x="540" y="54"/>
			<point x="427" y="54" type="curve" smooth="yes"/>
			<point x="257" y="54"/>
			<point x="135" y="183"/>
			<point x="135" y="358" type="curve" smooth="yes"/>
			<point x="135" y="532"/>
			<point x="256" y="661"/>
			<point x="423" y="661" type="curve" smooth="yes"/>
			<point x="528" y="661"/>
			<point x="604" y="615"/>
			<point x="655" y="542" type="curve"/>
			<point x="711" y="595" type="line"/>
			<point x="647" y="679"/>
			<point x="546" y="731"/>
			<point x="423" y="731" type="curve" smooth="yes"/>
			<point x="212" y="731"/>
			<point x="55" y="571"/>
			<point x="55" y="358" type="curve" smooth="yes"/>
			<point x="55" y="144"/>
			<point x="213" y="-16"/>
			<point x="426" y="-16" type="curve" smooth="yes"/>
			<point x="532" y="-16"/>
			<point x="624" y="28"/>
			<point x="674" y="102" type="curve"/>
			<point x="662" y="106" type="line"/>
			<point x="662" y="0" type="line"/>
		</contour>
	</outline>
	<anchor name="top.UC" x="423" y="750"/>
	<anchor name="bottom.UC" x="423" y="-50"/>
</glyph>
<glyph name="H" format="2">
	<unicode hex="0048"/>
	<advance width="742"/>
	<outline>
		<contour>
			<point x="580" y="0" type="line"/>
			<point x="657" y="0" type="line"/>
			<point x="657" y="715" type="line"/>
			<point x="580" y="715" type="line"/>
		</contour>
		<contour>
			<point x="162" y="0" type="line"/>
			<point x="162" y="715" type="line"/>
			<point x="85" y="715" type="line"/>
			<point x="85" y="0" type="line"/>
		</contour>
		<contour>
			<point x="152" y="337" type="line"/>
			<point x="590" y="337" type="line"/>
			<point x="590" y="406" type="line"/>
			<point x="152" y="406" type="line"/>
		</contour>
	</outline>
	<anchor name="bottom.UC" x="371" y="-50"/>
	<anchor name="top.UC" x="371" y="750"/>
</glyph>
<glyph name="I" format="2">
	<unicode hex="0049"/>
	<advance width="247"/>
	<outline>
		<contour>
			<point x="162" y="0" type="line"/>
			<point x="162" y="715" type="line"/>
			<point x="85" y="715" type="line"/>
			<point x="85" y="0" type="line"/>
		</contour>
	</outline>
	<anchor name="bottom.UC" x="123" y="-50"/>
	<anchor name="ogonek.UC" x="65" y="-30"/>
	<anchor name="top.UC" x="123" y="750"/>
</glyph>
<glyph name="J" format="2">
	<unicode hex="004A"/>
	<advance width="645"/>
	<outline>
		<contour>
			<point x="569" y="715" type="line"/>
			<point x="492" y="715" type="line"/>
			<point x="492" y="272" type="line" smooth="yes"/>
			<point x="492" y="130"/>
			<point x="426" y="54"/>
			<point x="303" y="54" type="curve" smooth="yes"/>
			<point x="193" y="54"/>
			<point x="129" y="114"/>
			<point x="116" y="228" type="curve"/>
			<point x="40" y="219" type="line"/>
			<point x="57" y="69"/>
			<point x="150" y="-16"/>
			<point x="303" y="-16" type="curve" smooth="yes"/>
			<point x="473" y="-16"/>
			<point x="569" y="89"/>
			<point x="569" y="272" type="curve" smooth="yes"/>
		</contour>
	</outline>
	<anchor name="top.UC" x="530" y="750"/>
</glyph>
<glyph name="K" format="2">
	<unicode hex="004B"/>
	<advance width="687"/>
	<outline>
		<contour>
			<point x="162" y="0" type="line"/>
			<point x="162" y="715" type="line"/>
			<point x="85" y="715" type="line"/>
			<point x="85" y="0" type="line"/>
		</contour>
		<contour>
			<point x="669" y="0" type="line"/>
			<point x="233" y="384" type="line"/>
			<point x="233" y="358" type="line"/>
			<point x="627" y="715" type="line"/>
			<point x="523" y="715" type="line"/>
			<point x="152" y="371" type="line"/>
			<point x="138" y="371" type="line"/>
			<point x="551" y="0" type="line"/>
		</contour>
	</outline>
	<anchor name="bottom.UC" x="347" y="-50"/>
	<anchor name="top.UC" x="347" y="750"/>
</glyph>
<glyph name="M" format="2">
	<unicode hex="004D"/>
	<advance width="900"/>
	<outline>
		<contour>
			<point x="478" y="60" type="line"/>
			<point x="766" y="662" type="line"/>
			<point x="740" y="662" type="line"/>
			<point x="740" y="0" type="line"/>
			<point x="815" y="0" type="line"/>
			<point x="815" y="715" type="line"/>
			<point x="716" y="715" type="line"/>
			<point x="426" y="107" type="line"/>
			<point x="474" y="107" type="line"/>
			<point x="184" y="715" type="line"/>
			<point x="83" y="715" type="line"/>
			<point x="83" y="0" type="line"/>
			<point x="158" y="0" type="line"/>
			<point x="158" y="662" type="line"/>
			<point x="132" y="662" type="line"/>
			<point x="420" y="60" type="line"/>
		</contour>
	</outline>
	<guideline x="444" y="0" angle="64.43"/>
	<guideline x="521" y="0" angle="64.43"/>
</glyph>
<glyph name="N" format="2">
	<unicode hex="004E"/>
	<advance width="738"/>
	<outline>
		<contour>
			<point x="157" y="0" type="line"/>
			<point x="157" y="631" type="line"/>
			<point x="141" y="631" type="line"/>
			<point x="571" y="0" type="line"/>
			<point x="655" y="0" type="line"/>
			<point x="655" y="715" type="line"/>
			<point x="581" y="715" type="line"/>
			<point x="581" y="84" type="line"/>
			<point x="597" y="84" type="line"/>
			<point x="167" y="715" type="line"/>
			<point x="83" y="715" type="line"/>
			<point x="83" y="0" type="line"/>
		</contour>
	</outline>
	<anchor name="bottom.UC" x="369" y="-50"/>
	<anchor name="top.UC" x="369" y="750"/>
</glyph>
<glyph name="S" format="2">
	<unicode hex="0053"/>
	<advance width="679"/>
	<outline>
		<contour>
			<point x="38" y="116" type="line"/>
			<point x="115" y="33"/>
			<point x="215" y="-16"/>
			<point x="343" y="-16" type="curve" smooth="yes"/>
			<point x="509" y="-16"/>
			<point x="623" y="72"/>
			<point x="623" y="200" type="curve" smooth="yes"/>
			<point x="623" y="316"/>
			<point x="547" y="378"/>
			<point x="344" y="408" type="curve" smooth="yes"/>
			<point x="201" y="429"/>
			<point x="149" y="462"/>
			<point x="149" y="526" type="curve" smooth="yes"/>
			<point x="149" y="609"/>
			<point x="225" y="661"/>
			<point x="335" y="661" type="curve" smooth="yes"/>
			<point x="438" y="661"/>
			<point x="501" y="617"/>
			<point x="558" y="546" type="curve"/>
			<point x="614" y="599" type="line"/>
			<point x="543" y="682"/>
			<point x="453" y="731"/>
			<point x="335" y="731" type="curve" smooth="yes"/>
			<point x="179" y="731"/>
			<point x="69" y="647"/>
			<point x="69" y="525" type="curve" smooth="yes"/>
			<point x="69" y="421"/>
			<point x="140" y="365"/>
			<point x="336" y="335" type="curve" smooth="yes"/>
			<point x="486" y="312"/>
			<point x="543" y="274"/>
			<point x="543" y="199" type="curve" smooth="yes"/>
			<point x="543" y="111"/>
			<point x="459" y="54"/>
			<point x="343" y="54" type="curve" smooth="yes"/>
			<point x="239" y="54"/>
			<point x="157" y="98"/>
			<point x="95" y="170" type="curve"/>
		</contour>
	</outline>
	<anchor name="top.UC" x="335" y="750"/>
	<anchor name="bottom.UC" x="343" y="-50"/>
</glyph>
<glyph name="T" format="2">
	<unicode hex="0054"/>
	<advance width="625"/>
	<outline>
		<contour>
			<point x="351" y="0" type="line"/>
			<point x="351" y="656" type="line"/>
			<point x="274" y="656" type="line"/>
			<point x="274" y="0" type="line"/>
		</contour>
		<contour>
			<point x="589" y="646" type="line"/>
			<point x="589" y="715" type="line"/>
			<point x="36" y="715" type="line"/>
			<point x="36" y="646" type="line"/>
		</contour>
	</outline>
	<anchor name="bottom.UC" x="312" y="-50"/>
	<anchor name="top.UC" x="312" y="750"/>
</glyph>
<glyph name="V" format="2">
	<unicode hex="0056"/>
	<advance width="711"/>
	<outline>
		<contour>
			<point x="397" y="0" type="line"/>
			<point x="675" y="715" type="line"/>
			<point x="596" y="715" type="line"/>
			<point x="341" y="42" type="line"/>
			<point x="373" y="42" type="line"/>
			<point x="119" y="715" type="line"/>
			<point x="36" y="715" type="line"/>
			<point x="314" y="0" type="line"/>
		</contour>
	</outline>
</glyph>
<glyph name="X" format="2">
	<unicode hex="0058"/>
	<advance width="668"/>
	<outline>
		<contour>
			<point x="111" y="0" type="line"/>
			<point x="348" y="345" type="line"/>
			<point x="320" y="345" type="line"/>
			<point x="556" y="0" type="line"/>
			<point x="648" y="0" type="line"/>
			<point x="374" y="392" type="line"/>
			<point x="373" y="350" type="line"/>
			<point x="623" y="715" type="line"/>
			<point x="535" y="715" type="line"/>
			<point x="321" y="395" type="line"/>
			<point x="348" y="395" type="line"/>
			<point x="134" y="715" type="line"/>
			<point x="44" y="715" type="line"/>
			<point x="295" y="350" type="line"/>
			<point x="294" y="392" type="line"/>
			<point x="20" y="0" type="line"/>
		</contour>
	</outline>
</glyph>
<glyph name="Y" format="2">
	<unicode hex="0059"/>
	<advance width="647"/>
	<outline>
		<contour>
			<point x="362" y="0" type="line"/>
			<point x="362" y="313" type="line"/>
			<point x="627" y="715" type="line"/>
			<point x="541" y="715" type="line"/>
			<point x="312" y="358" type="line"/>
			<point x="338" y="358" type="line"/>
			<point x="109" y="715" type="line"/>
			<point x="20" y="715" type="line"/>
			<point x="285" y="315" type="line"/>
			<point x="285" y="0" type="line"/>
		</contour>
	</outline>
	<anchor name="bottom.UC" x="323" y="-50"/>
	<anchor name="top.UC" x="323" y="750"/>
</glyph>
<glyph name="Z" format="2">
	<unicode hex="005A"/>
	<advance width="609"/>
	<outline>
		<contour>
			<point x="566" y="0" type="line"/>
			<point x="566" y="69" type="line"/>
			<point x="134" y="69" type="line"/>
			<point x="554" y="646" type="line"/>
			<point x="554" y="715" type="line"/>
			<point x="57" y="715" type="line"/>
			<point x="57" y="646" type="line"/>
			<point x="464" y="646" type="line"/>
			<point x="44" y="69" type="line"/>
			<point x="44" y="0" type="line"/>
		</contour>
	</outline>
	<anchor name="top.UC" x="305" y="750"/>
</glyph>
<glyph name="bracketleft" format="2">
	<unicode hex="005B"/>
	<advance width="313"/>
	<outline>
		<contour>
			<point x="268" y="-129" type="line"/>
			<point x="268" y="-67" type="line"/>
			<point x="144" y="-67" type="line"/>
			<point x="144" y="669" type="line"/>
			<point x="268" y="669" type="line"/>
			<point x="268" y="731" type="line"/>
			<point x="70" y="731" type="line"/>
			<point x="70" y="-129" type="line"/>
		</contour>
	</outline>
</glyph>
<glyph name="backslash" format="2">
	<unicode hex="005C"/>
	<advance width="484"/>
	<outline>
		<contour>
			<point x="423" y="0" type="line"/>
			<point x="131" y="731" type="line"/>
			<point x="61" y="731" type="line"/>
			<point x="353" y="0" type="line"/>
		</contour>
	</outline>
</glyph>
<glyph name="bracketright" format="2">
	<unicode hex="005D"/>
	<advance width="313"/>
	<outline>
		<contour>
			<point x="243" y="-129" type="line"/>
			<point x="243" y="731" type="line"/>
			<point x="45" y="731" type="line"/>
			<point x="45" y="669" type="line"/>
			<point x="169" y="669" type="line"/>
			<point x="169" y="-67" type="line"/>
			<point x="45" y="-67" type="line"/>
			<point x="45" y="-129" type="line"/>
		</contour>
	</outline>
</glyph>
<glyph name="asciicircum" format="2">
	<unicode hex="005E"/>
	<advance width="660"/>
	<outline>
		<contour>
			<point x="306" y="715" type="line"/>
			<point x="483" y="354" type="line"/>
			<point x="557" y="354" type="line"/>
			<point x="373" y="715" type="line"/>
		</contour>
		<contour>
			<point x="287" y="715" type="line"/>
			<point x="103" y="354" type="line"/>
			<point x="172" y="354" type="line"/>
			<point x="350" y="715" type="line"/>
		</contour>
	</outline>
</glyph>
<glyph name="a" format="2">
	<unicode hex="0061"/>
	<advance width="550"/>
	<outline>
		<contour>
			<point x="487" y="0" type="line"/>
			<point x="487" y="311" type="line" smooth="yes"/>
			<point x="487" y="430"/>
			<point x="399" y="508"/>
			<point x="267" y="508" type="curve" smooth="yes"/>
			<point x="179" y="508"/>
			<point x="111" y="474"/>
			<point x="57" y="416" type="curve"/>
			<point x="109" y="366" type="line"/>
			<point x="149" y="414"/>
			<point x="201" y="444"/>
			<point x="267" y="444" type="curve" smooth="yes"/>
			<point x="357" y="444"/>
			<point x="415" y="390"/>
			<point x="415" y="308" type="curve" smooth="yes"/>
			<point x="415" y="124" type="line"/>
			<point x="416" y="96" type="line"/>
			<point x="416" y="0" type="line"/>
		</contour>
		<contour>
			<point x="228" y="-16" type="curve" smooth="yes"/>
			<point x="360" y="-16"/>
			<point x="457" y="71"/>
			<point x="457" y="192" type="curve"/>
			<point x="427" y="209" type="line"/>
			<point x="421" y="112"/>
			<point x="341" y="46"/>
			<point x="237" y="46" type="curve" smooth="yes"/>
			<point x="165" y="46"/>
			<point x="117" y="83"/>
			<point x="117" y="142" type="curve" smooth="yes"/>
			<point x="117" y="211"/>
			<point x="184" y="243"/>
			<point x="273" y="243" type="curve" smooth="yes"/>
			<point x="425" y="243" type="line"/>
			<point x="425" y="303" type="line"/>
			<point x="263" y="303" type="line" smooth="yes"/>
			<point x="134" y="303"/>
			<point x="40" y="244"/>
			<point x="40" y="140" type="curve" smooth="yes"/>
			<point x="40" y="50"/>
			<point x="116" y="-16"/>
		</contour>
	</outline>
	<anchor name="bottom.LC" x="267" y="-50"/>
	<anchor name="ogonek.LC" x="390" y="-30"/>
	<anchor name="top.LC" x="267" y="544"/>
	<guideline x="-191"/>
</glyph>
<glyph name="d" format="2">
	<unicode hex="0064"/>
	<advance width="633"/>
	<outline>
		<contour>
			<point x="563" y="0" type="line"/>
			<point x="563" y="720" type="line"/>
			<point x="489" y="720" type="line"/>
			<point x="489" y="343" type="line"/>
			<point x="508" y="343" type="line"/>
			<point x="491" y="443"/>
			<point x="405" y="508"/>
			<point x="297" y="508" type="curve" smooth="yes"/>
			<point x="153" y="508"/>
			<point x="47" y="395"/>
			<point x="47" y="246" type="curve" smooth="yes"/>
			<point x="47" y="94"/>
			<point x="153" y="-16"/>
			<point x="301" y="-16" type="curve" smooth="yes"/>
			<point x="435" y="-16"/>
			<point x="528" y="75"/>
			<point x="513" y="193" type="curve"/>
			<point x="499" y="213" type="line"/>
			<point x="491" y="118"/>
			<point x="410" y="49"/>
			<point x="309" y="49" type="curve" smooth="yes"/>
			<point x="200" y="49"/>
			<point x="125" y="131"/>
			<point x="125" y="246" type="curve" smooth="yes"/>
			<point x="125" y="360"/>
			<point x="200" y="443"/>
			<point x="306" y="443" type="curve" smooth="yes"/>
			<point x="414" y="443"/>
			<point x="489" y="356"/>
			<point x="489" y="231" type="curve" smooth="yes"/>
			<point x="489" y="135" type="line"/>
			<point x="490" y="134" type="line"/>
			<point x="490" y="0" type="line"/>
		</contour>
	</outline>
	<anchor name="top_right" x="669" y="540"/>
</glyph>
<glyph name="j" format="2">
	<unicode hex="006A"/>
	<advance width="214"/>
	<outline>
		<contour>
			<point x="-24" y="-194" type="line"/>
			<point x="25" y="-194" type="line" smooth="yes"/>
			<point x="105" y="-194"/>
			<point x="144" y="-155"/>
			<point x="144" y="-75" type="curve" smooth="yes"/>
			<point x="144" y="492" type="line"/>
			<point x="70" y="492" type="line"/>
			<point x="70" y="-69" type="line" smooth="yes"/>
			<point x="70" y="-111"/>
			<point x="52" y="-130"/>
			<point x="9" y="-130" type="curve" smooth="yes"/>
			<point x="-24" y="-130" type="line"/>
		</contour>
		<contour>
			<point x="107" y="624" type="curve" smooth="yes"/>
			<point x="137" y="624"/>
			<point x="161" y="648"/>
			<point x="161" y="677" type="curve" smooth="yes"/>
			<point x="161" y="707"/>
			<point x="137" y="731"/>
			<point x="107" y="731" type="curve" smooth="yes"/>
			<point x="77" y="731"/>
			<point x="53" y="707"/>
			<point x="53" y="677" type="curve" smooth="yes"/>
			<point x="53" y="648"/>
			<point x="77" y="624"/>
		</contour>
	</outline>
</glyph>
<glyph name="k" format="2">
	<unicode hex="006B"/>
	<advance width="547"/>
	<outline>
		<contour>
			<point x="144" y="0" type="line"/>
			<point x="144" y="720" type="line"/>
			<point x="70" y="720" type="line"/>
			<point x="70" y="0" type="line"/>
		</contour>
		<contour>
			<point x="533" y="0" type="line"/>
			<point x="213" y="264" type="line"/>
			<point x="213" y="246" type="line"/>
			<point x="505" y="492" type="line"/>
			<point x="403" y="492" type="line"/>
			<point x="128" y="255" type="line"/>
			<point x="118" y="255" type="line"/>
			<point x="423" y="0" type="line"/>
		</contour>
	</outline>
	<anchor name="bottom.LC" x="288" y="-50"/>
</glyph>
<glyph name="l" format="2">
	<unicode hex="006C"/>
	<advance width="214"/>
	<outline>
		<contour>
			<point x="144" y="0" type="line"/>
			<point x="144" y="720" type="line"/>
			<point x="70" y="720" type="line"/>
			<point x="70" y="0" type="line"/>
		</contour>
	</outline>
	<anchor name="bottom.LC" x="107" y="-50"/>
	<anchor name="top_right" x="250" y="540"/>
	<anchor name="top.LC" x="107" y="766"/>
</glyph>
<glyph name="o" format="2">
	<unicode hex="006F"/>
	<advance width="614"/>
	<outline>
		<contour>
			<point x="307" y="-16" type="curve" smooth="yes"/>
			<point x="458" y="-16"/>
			<point x="567" y="94"/>
			<point x="567" y="246" type="curve" smooth="yes"/>
			<point x="567" y="398"/>
			<point x="458" y="508"/>
			<point x="307" y="508" type="curve" smooth="yes"/>
			<point x="156" y="508"/>
			<point x="47" y="398"/>
			<point x="47" y="246" type="curve" smooth="yes"/>
			<point x="47" y="94"/>
			<point x="156" y="-16"/>
		</contour>
		<contour>
			<point x="307" y="49" type="curve" smooth="yes"/>
			<point x="199" y="49"/>
			<point x="125" y="130"/>
			<point x="125" y="246" type="curve" smooth="yes"/>
			<point x="125" y="362"/>
			<point x="199" y="443"/>
			<point x="307" y="443" type="curve" smooth="yes"/>
			<point x="415" y="443"/>
			<point x="489" y="362"/>
			<point x="489" y="246" type="curve" smooth="yes"/>
			<point x="489" y="130"/>
			<point x="415" y="49"/>
		</contour>
	</outline>
	<anchor name="bottom.LC" x="307" y="-50"/>
	<anchor name="top.LC" x="307" y="544"/>
	<anchor name="topright.LC" x="463" y="493"/>
</glyph>
<glyph name="r" format="2">
	<unicode hex="0072"/>
	<advance width="364"/>
	<outline>
		<contour>
			<point x="334" y="500" type="line"/>
			<point x="323" y="500" type="line" smooth="yes"/>
			<point x="239" y="500"/>
			<point x="154" y="456"/>
			<point x="130" y="336" type="curve"/>
			<point x="143" y="336" type="line"/>
			<point x="143" y="492" type="line"/>
			<point x="70" y="492" type="line"/>
			<point x="70" y="0" type="line"/>
			<point x="144" y="0" type="line"/>
			<point x="144" y="206" type="line" smooth="yes"/>
			<point x="144" y="362"/>
			<point x="226" y="428"/>
			<point x="314" y="428" type="curve" smooth="yes"/>
			<point x="334" y="428" type="line"/>
		</contour>
	</outline>
	<anchor name="top.LC" x="208" y="544"/>
</glyph>
<glyph name="s" format="2">
	<unicode hex="0073"/>
	<advance width="514"/>
	<outline>
		<contour>
			<point x="28" y="76" type="line"/>
			<point x="88" y="18"/>
			<point x="162" y="-16"/>
			<point x="258" y="-16" type="curve" smooth="yes"/>
			<point x="381" y="-16"/>
			<point x="471" y="47"/>
			<point x="471" y="140" type="curve" smooth="yes"/>
			<point x="471" y="224"/>
			<point x="414" y="269"/>
			<point x="260" y="290" type="curve" smooth="yes"/>
			<point x="162" y="303"/>
			<point x="126" y="323"/>
			<point x="126" y="361" type="curve" smooth="yes"/>
			<point x="126" y="412"/>
			<point x="179" y="445"/>
			<point x="253" y="445" type="curve" smooth="yes"/>
			<point x="319" y="445"/>
			<point x="371" y="415"/>
			<point x="411" y="366" type="curve"/>
			<point x="463" y="416" type="line"/>
			<point x="409" y="474"/>
			<point x="341" y="508"/>
			<point x="253" y="508" type="curve" smooth="yes"/>
			<point x="134" y="508"/>
			<point x="50" y="449"/>
			<point x="50" y="359" type="curve" smooth="yes"/>
			<point x="50" y="285"/>
			<point x="104" y="244"/>
			<point x="253" y="223" type="curve" smooth="yes"/>
			<point x="356" y="208"/>
			<point x="395" y="185"/>
			<point x="395" y="138" type="curve" smooth="yes"/>
			<point x="395" y="84"/>
			<point x="338" y="47"/>
			<point x="258" y="47" type="curve" smooth="yes"/>
			<point x="184" y="47"/>
			<point x="126" y="77"/>
			<point x="80" y="126" type="curve"/>
		</contour>
	</outline>
	<anchor name="top.LC" x="253" y="544"/>
	<anchor name="bottom.LC" x="253" y="-50"/>
	<guideline x="49"/>
	<guideline x="470"/>
</glyph>
<glyph name="t" format="2">
	<unicode hex="0074"/>
	<advance width="392"/>
	<outline>
		<contour>
			<point x="357" y="0" type="line"/>
			<point x="357" y="64" type="line"/>
			<point x="257" y="64" type="line" smooth="yes"/>
			<point x="224" y="64"/>
			<point x="206" y="83"/>
			<point x="206" y="115" type="curve" smooth="yes"/>
			<point x="206" y="636" type="line"/>
			<point x="132" y="636" type="line"/>
			<point x="132" y="109" type="line" smooth="yes"/>
			<point x="132" y="39"/>
			<point x="171" y="0"/>
			<point x="241" y="0" type="curve" smooth="yes"/>
		</contour>
		<contour>
			<point x="350" y="429" type="line"/>
			<point x="350" y="492" type="line"/>
			<point x="30" y="492" type="line"/>
			<point x="30" y="429" type="line"/>
		</contour>
	</outline>
	<anchor name="bottom.LC" x="252" y="-50"/>
	<anchor name="top_right.LC.short" x="313" y="540"/>
</glyph>
<glyph name="u" format="2">
	<unicode hex="0075"/>
	<advance width="582"/>
	<outline>
		<contour>
			<point x="512" y="0" type="line"/>
			<point x="512" y="492" type="line"/>
			<point x="438" y="492" type="line"/>
			<point x="438" y="124" type="line"/>
			<point x="439" y="96" type="line"/>
			<point x="439" y="0" type="line"/>
		</contour>
		<contour>
			<point x="448" y="213" type="line"/>
			<point x="440" y="115"/>
			<point x="362" y="49"/>
			<point x="272" y="49" type="curve" smooth="yes"/>
			<point x="187" y="49"/>
			<point x="137" y="100"/>
			<point x="137" y="198" type="curve" smooth="yes"/>
			<point x="137" y="492" type="line"/>
			<point x="63" y="492" type="line"/>
			<point x="63" y="190" type="line" smooth="yes"/>
			<point x="63" y="56"/>
			<point x="140" y="-16"/>
			<point x="259" y="-16" type="curve" smooth="yes"/>
			<point x="382" y="-16"/>
			<point x="472" y="71"/>
			<point x="463" y="192" type="curve"/>
		</contour>
	</outline>
	<anchor name="bottom.LC" x="287" y="-50"/>
	<anchor name="ogonek.LC" x="415" y="-30"/>
	<anchor name="top.LC" x="287" y="544"/>
	<anchor name="topright.LC" x="442" y="544"/>
</glyph>
<glyph name="v" format="2">
	<unicode hex="0076"/>
	<advance width="537"/>
	<outline>
		<contour>
			<point x="305" y="0" type="line"/>
			<point x="517" y="492" type="line"/>
			<point x="441" y="492" type="line"/>
			<point x="254" y="39" type="line"/>
			<point x="286" y="39" type="line"/>
			<point x="100" y="492" type="line"/>
			<point x="20" y="492" type="line"/>
			<point x="232" y="0" type="line"/>
		</contour>
	</outline>
</glyph>
<glyph name="x" format="2">
	<unicode hex="0078"/>
	<advance width="508"/>
	<outline>
		<contour>
			<point x="99" y="0" type="line"/>
			<point x="254" y="209" type="line"/>
			<point x="408" y="0" type="line"/>
			<point x="496" y="0" type="line"/>
			<point x="302" y="255" type="line"/>
			<point x="477" y="492" type="line"/>
			<point x="392" y="492" type="line"/>
			<point x="254" y="298" type="line"/>
			<point x="116" y="492" type="line"/>
			<point x="30" y="492" type="line"/>
			<point x="206" y="255" type="line"/>
			<point x="12" y="0" type="line"/>
		</contour>
	</outline>
</glyph>
<glyph name="y" format="2">
	<unicode hex="0079"/>
	<advance width="537"/>
	<outline>
		<contour>
			<point x="441" y="492" type="line"/>
			<point x="254" y="39" type="line"/>
			<point x="286" y="39" type="line"/>
			<point x="100" y="492" type="line"/>
			<point x="20" y="492" type="line"/>
			<point x="233" y="-2" type="line"/>
			<point x="207" y="-67" type="line" smooth="yes"/>
			<point x="189" y="-108"/>
			<point x="164" y="-130"/>
			<point x="121" y="-130" type="curve" smooth="yes"/>
			<point x="72" y="-130" type="line"/>
			<point x="72" y="-194" type="line"/>
			<point x="121" y="-194" type="line" smooth="yes"/>
			<point x="205" y="-194"/>
			<point x="239" y="-155"/>
			<point x="267" y="-89" type="curve" smooth="yes"/>
			<point x="517" y="492" type="line"/>
		</contour>
	</outline>
	<anchor name="bottom.LC" x="372" y="-50"/>
	<anchor name="top.LC" x="269" y="544"/>
</glyph>
<glyph name="z" format="2">
	<unicode hex="007A"/>
	<advance width="488"/>
	<outline>
		<contour>
			<point x="450" y="0" type="line"/>
			<point x="450" y="62" type="line"/>
			<point x="129" y="62" type="line"/>
			<point x="440" y="430" type="line"/>
			<point x="440" y="492" type="line"/>
			<point x="50" y="492" type="line"/>
			<point x="50" y="430" type="line"/>
			<point x="351" y="430" type="line"/>
			<point x="40" y="62" type="line"/>
			<point x="40" y="0" type="line"/>
		</contour>
	</outline>
	<anchor name="top.LC" x="242" y="544"/>
</glyph>
<glyph name="braceleft" format="2">
	<unicode hex="007B"/>
	<advance width="389"/>
	<outline>
		<contour>
			<point x="344" y="-67" type="line"/>
			<point x="281" y="-67" type="line" smooth="yes"/>
			<point x="238" y="-67"/>
			<point x="220" y="-48"/>
			<point x="220" y="-6" type="curve" smooth="yes"/>
			<point x="220" y="194" type="line" smooth="yes"/>
			<point x="220" y="274"/>
			<point x="181" y="313"/>
			<point x="101" y="313" type="curve"/>
			<point x="101" y="291" type="line"/>
			<point x="181" y="291"/>
			<point x="220" y="330"/>
			<point x="220" y="410" type="curve" smooth="yes"/>
			<point x="220" y="608" type="line" smooth="yes"/>
			<point x="220" y="650"/>
			<point x="238" y="669"/>
			<point x="281" y="669" type="curve" smooth="yes"/>
			<point x="344" y="669" type="line"/>
			<point x="344" y="731" type="line"/>
			<point x="265" y="731" type="line" smooth="yes"/>
			<point x="185" y="731"/>
			<point x="146" y="692"/>
			<point x="146" y="612" type="curve" smooth="yes"/>
			<point x="146" y="394" type="line" smooth="yes"/>
			<point x="146" y="352"/>
			<point x="128" y="333"/>
			<point x="85" y="333" type="curve" smooth="yes"/>
			<point x="45" y="333" type="line"/>
			<point x="45" y="271" type="line"/>
			<point x="85" y="271" type="line" smooth="yes"/>
			<point x="128" y="271"/>
			<point x="146" y="252"/>
			<point x="146" y="210" type="curve" smooth="yes"/>
			<point x="146" y="-10" type="line" smooth="yes"/>
			<point x="146" y="-90"/>
			<point x="185" y="-129"/>
			<point x="265" y="-129" type="curve" smooth="yes"/>
			<point x="344" y="-129" type="line"/>
		</contour>
	</outline>
	<guideline x="189"/>
	<guideline y="301"/>
</glyph>
<glyph name="bar" format="2">
	<unicode hex="007C"/>
	<advance width="214"/>
	<outline>
		<contour>
			<point x="144" y="-129" type="line"/>
			<point x="144" y="736" type="line"/>
			<point x="70" y="736" type="line"/>
			<point x="70" y="-129" type="line"/>
		</contour>
	</outline>
</glyph>
<glyph name="braceright" format="2">
	<unicode hex="007D"/>
	<advance width="389"/>
	<outline>
		<contour>
			<point x="45" y="-129" type="line"/>
			<point x="124" y="-129" type="line" smooth="yes"/>
			<point x="204" y="-129"/>
			<point x="243" y="-90"/>
			<point x="243" y="-10" type="curve" smooth="yes"/>
			<point x="243" y="210" type="line" smooth="yes"/>
			<point x="243" y="252"/>
			<point x="261" y="271"/>
			<point x="304" y="271" type="curve" smooth="yes"/>
			<point x="344" y="271" type="line"/>
			<point x="344" y="333" type="line"/>
			<point x="304" y="333" type="line" smooth="yes"/>
			<point x="261" y="333"/>
			<point x="243" y="352"/>
			<point x="243" y="394" type="curve" smooth="yes"/>
			<point x="243" y="612" type="line" smooth="yes"/>
			<point x="243" y="692"/>
			<point x="204" y="731"/>
			<point x="124" y="731" type="curve" smooth="yes"/>
			<point x="45" y="731" type="line"/>
			<point x="45" y="669" type="line"/>
			<point x="108" y="669" type="line" smooth="yes"/>
			<point x="151" y="669"/>
			<point x="169" y="650"/>
			<point x="169" y="608" type="curve" smooth="yes"/>
			<point x="169" y="410" type="line" smooth="yes"/>
			<point x="169" y="330"/>
			<point x="208" y="291"/>
			<point x="288" y="291" type="curve"/>
			<point x="288" y="313" type="line"/>
			<point x="208" y="313"/>
			<point x="169" y="274"/>
			<point x="169" y="194" type="curve" smooth="yes"/>
			<point x="169" y="-6" type="line" smooth="yes"/>
			<point x="169" y="-48"/>
			<point x="151" y="-67"/>
			<point x="108" y="-67" type="curve" smooth="yes"/>
			<point x="45" y="-67" type="line"/>
		</contour>
	</outline>
</glyph>
<glyph name="asciitilde" format="2">
	<unicode hex="007E"/>
	<advance width="660"/>
	<outline>
		<contour>
			<point x="500" y="438" type="line"/>
			<point x="491" y="372"/>
			<point x="471" y="333"/>
			<point x="433" y="333" type="curve" smooth="yes"/>
			<point x="415" y="333"/>
			<point x="400" y="341"/>
			<point x="342" y="387" type="curve" smooth="yes"/>
			<point x="289" y="430"/>
			<point x="251" y="443"/>
			<point x="226" y="443" type="curve" smooth="yes"/>
			<point x="157" y="443"/>
			<point x="118" y="399"/>
			<point x="98" y="298" type="curve"/>
			<point x="159" y="276" type="line"/>
			<point x="168" y="342"/>
			<point x="188" y="381"/>
			<point x="226" y="381" type="curve" smooth="yes"/>
			<point x="244" y="381"/>
			<point x="259" y="373"/>
			<point x="317" y="327" type="curve" smooth="yes"/>
			<point x="370" y="284"/>
			<point x="408" y="271"/>
			<point x="433" y="271" type="curve" smooth="yes"/>
			<point x="502" y="271"/>
			<point x="541" y="315"/>
			<point x="561" y="416" type="curve"/>
		</contour>
	</outline>
	<guideline x="273"/>
	<guideline y="357"/>
</glyph>
<glyph name="exclamdown" format="2">
	<unicode hex="00A1"/>
	<advance width="222"/>
	<outline>
		<contour>
			<point x="55" y="436" type="curve" smooth="yes"/>
			<point x="55" y="405"/>
			<point x="80" y="380"/>
			<point x="111" y="380" type="curve" smooth="yes"/>
			<point x="142" y="380"/>
			<point x="167" y="405"/>
			<point x="167" y="436" type="curve" smooth="yes"/>
			<point x="167" y="467"/>
			<point x="142" y="492"/>
			<point x="111" y="492" type="curve" smooth="yes"/>
			<point x="80" y="492"/>
			<point x="55" y="467"/>
		</contour>
		<contour>
			<point x="88" y="278" type="line"/>
			<point x="84" y="208"/>
			<point x="66" y="-185"/>
			<point x="66" y="-205" type="curve" smooth="yes"/>
			<point x="66" y="-230"/>
			<point x="86" y="-249"/>
			<point x="111" y="-249" type="curve" smooth="yes"/>
			<point x="136" y="-249"/>
			<point x="156" y="-230"/>
			<point x="156" y="-205" type="curve" smooth="yes"/>
			<point x="156" y="-185"/>
			<point x="138" y="208"/>
			<point x="134" y="278" type="curve"/>
		</contour>
	</outline>
</glyph>
<glyph name="cent" format="2">
	<unicode hex="00A2"/>
	<advance width="660"/>
	<outline>
		<contour>
			<point x="507" y="128" type="line"/>
			<point x="475" y="80"/>
			<point x="428" y="49"/>
			<point x="359" y="49" type="curve" smooth="yes"/>
			<point x="251" y="49"/>
			<point x="177" y="130"/>
			<point x="177" y="246" type="curve" smooth="yes"/>
			<point x="177" y="362"/>
			<point x="251" y="443"/>
			<point x="359" y="443" type="curve" smooth="yes"/>
			<point x="428" y="443"/>
			<point x="475" y="412"/>
			<point x="507" y="364" type="curve"/>
			<point x="560" y="413" type="line"/>
			<point x="514" y="472"/>
			<point x="445" y="508"/>
			<point x="359" y="508" type="curve" smooth="yes"/>
			<point x="208" y="508"/>
			<point x="99" y="398"/>
			<point x="99" y="246" type="curve" smooth="yes"/>
			<point x="99" y="94"/>
			<point x="207" y="-16"/>
			<point x="358" y="-16" type="curve" smooth="yes"/>
			<point x="444" y="-16"/>
			<point x="514" y="20"/>
			<point x="560" y="79" type="curve"/>
		</contour>
		<contour>
			<point x="387" y="-116" type="line"/>
			<point x="387" y="608" type="line"/>
			<point x="323" y="608" type="line"/>
			<point x="323" y="-116" type="line"/>
		</contour>
	</outline>
</glyph>
<glyph name="currency" format="2">
	<unicode hex="00A4"/>
	<advance width="632"/>
	<outline>
		<contour>
			<point x="316" y="220" type="curve" smooth="yes"/>
			<point x="231" y="220"/>
			<point x="167" y="286"/>
			<point x="167" y="376" type="curve" smooth="yes"/>
			<point x="167" y="466"/>
			<point x="231" y="532"/>
			<point x="316" y="532" type="curve" smooth="yes"/>
			<point x="401" y="532"/>
			<point x="465" y="466"/>
			<point x="465" y="376" type="curve" smooth="yes"/>
			<point x="465" y="286"/>
			<point x="401" y="220"/>
		</contour>
		<contour>
			<point x="316" y="161" type="curve" smooth="yes"/>
			<point x="365" y="161"/>
			<point x="410" y="177"/>
			<point x="446" y="204" type="curve"/>
			<point x="520" y="130" type="line"/>
			<point x="562" y="172" type="line"/>
			<point x="488" y="246" type="line"/>
			<point x="514" y="282"/>
			<point x="530" y="327"/>
			<point x="530" y="376" type="curve" smooth="yes"/>
			<point x="530" y="425"/>
			<point x="514" y="470"/>
			<point x="488" y="506" type="curve"/>
			<point x="562" y="580" type="line"/>
			<point x="520" y="622" type="line"/>
			<point x="446" y="548" type="line"/>
			<point x="410" y="575"/>
			<point x="365" y="591"/>
			<point x="316" y="591" type="curve" smooth="yes"/>
			<point x="267" y="591"/>
			<point x="222" y="575"/>
			<point x="186" y="548" type="curve"/>
			<point x="112" y="622" type="line"/>
			<point x="70" y="580" type="line"/>
			<point x="144" y="506" type="line"/>
			<point x="118" y="470"/>
			<point x="102" y="425"/>
			<point x="102" y="376" type="curve" smooth="yes"/>
			<point x="102" y="327"/>
			<point x="118" y="282"/>
			<point x="144" y="246" type="curve"/>
			<point x="70" y="172" type="line"/>
			<point x="112" y="130" type="line"/>
			<point x="186" y="204" type="line"/>
			<point x="222" y="177"/>
			<point x="267" y="161"/>
		</contour>
	</outline>
</glyph>
<glyph name="yen" format="2">
	<unicode hex="00A5"/>
	<advance width="660"/>
	<outline>
		<contour>
			<point x="367" y="0" type="line"/>
			<point x="367" y="317" type="line"/>
			<point x="632" y="715" type="line"/>
			<point x="547" y="715" type="line"/>
			<point x="318" y="358" type="line"/>
			<point x="345" y="358" type="line"/>
			<point x="116" y="715" type="line"/>
			<point x="28" y="715" type="line"/>
			<point x="293" y="319" type="line"/>
			<point x="293" y="0" type="line"/>
		</contour>
		<contour>
			<point x="539" y="114" type="line"/>
			<point x="539" y="178" type="line"/>
			<point x="122" y="178" type="line"/>
			<point x="122" y="114" type="line"/>
		</contour>
		<contour>
			<point x="539" y="274" type="line"/>
			<point x="539" y="338" type="line"/>
			<point x="122" y="338" type="line"/>
			<point x="122" y="274" type="line"/>
		</contour>
	</outline>
	<guideline x="324"/>
	<guideline y="357"/>
</glyph>
<glyph name="brokenbar" format="2">
	<unicode hex="00A6"/>
	<advance width="214"/>
	<outline>
		<contour>
			<point x="144" y="-129" type="line"/>
			<point x="144" y="217" type="line"/>
			<point x="70" y="217" type="line"/>
			<point x="70" y="-129" type="line"/>
		</contour>
		<contour>
			<point x="144" y="390" type="line"/>
			<point x="144" y="736" type="line"/>
			<point x="70" y="736" type="line"/>
			<point x="70" y="390" type="line"/>
		</contour>
	</outline>
</glyph>
<glyph name="section" format="2">
	<unicode hex="00A7"/>
	<advance width="596"/>
	<outline>
		<contour>
			<point x="521" y="302" type="curve" smooth="yes"/>
			<point x="520" y="388"/>
			<point x="455" y="430"/>
			<point x="321" y="465" type="curve" smooth="yes"/>
			<point x="239" y="486"/>
			<point x="197" y="518"/>
			<point x="197" y="572" type="curve" smooth="yes"/>
			<point x="197" y="630"/>
			<point x="246" y="669"/>
			<point x="311" y="669" type="curve" smooth="yes"/>
			<point x="378" y="669"/>
			<point x="429" y="638"/>
			<point x="466" y="594" type="curve"/>
			<point x="508" y="642" type="line"/>
			<point x="460" y="697"/>
			<point x="386" y="731"/>
			<point x="310" y="731" type="curve" smooth="yes"/>
			<point x="205" y="731"/>
			<point x="127" y="662"/>
			<point x="127" y="569" type="curve" smooth="yes"/>
			<point x="127" y="519"/>
			<point x="152" y="479"/>
			<point x="202" y="449" type="curve"/>
			<point x="140" y="420"/>
			<point x="101" y="370"/>
			<point x="101" y="309" type="curve" smooth="yes"/>
			<point x="101" y="223"/>
			<point x="168" y="181"/>
			<point x="301" y="146" type="curve" smooth="yes"/>
			<point x="382" y="125"/>
			<point x="425" y="94"/>
			<point x="425" y="29" type="curve" smooth="yes"/>
			<point x="425" y="-22"/>
			<point x="371" y="-66"/>
			<point x="302" y="-66" type="curve" smooth="yes"/>
			<point x="233" y="-66"/>
			<point x="169" y="-35"/>
			<point x="128" y="10" type="curve"/>
			<point x="88" y="-38" type="line"/>
			<point x="140" y="-94"/>
			<point x="220" y="-128"/>
			<point x="303" y="-128" type="curve" smooth="yes"/>
			<point x="413" y="-128"/>
			<point x="495" y="-55"/>
			<point x="495" y="32" type="curve" smooth="yes"/>
			<point x="495" y="93"/>
			<point x="469" y="132"/>
			<point x="420" y="162" type="curve"/>
			<point x="481" y="190"/>
			<point x="521" y="240"/>
		</contour>
		<contour>
			<point x="451" y="299" type="curve"/>
			<point x="451" y="247"/>
			<point x="409" y="212"/>
			<point x="361" y="195" type="curve"/>
			<point x="306" y="210" type="line" smooth="yes"/>
			<point x="218" y="234"/>
			<point x="171" y="262"/>
			<point x="171" y="314" type="curve" smooth="yes"/>
			<point x="171" y="365"/>
			<point x="213" y="399"/>
			<point x="261" y="416" type="curve"/>
			<point x="316" y="401" type="line" smooth="yes"/>
			<point x="403" y="377"/>
			<point x="450" y="349"/>
		</contour>
	</outline>
</glyph>
<glyph name="ordfeminine" format="2">
	<unicode hex="00AA"/>
	<advance width="458"/>
	<outline>
		<contour>
			<point x="395" y="316" type="line"/>
			<point x="395" y="559" type="line" smooth="yes"/>
			<point x="395" y="654"/>
			<point x="324" y="715"/>
			<point x="219" y="715" type="curve" smooth="yes"/>
			<point x="151" y="715"/>
			<point x="96" y="688"/>
			<point x="53" y="644" type="curve"/>
			<point x="97" y="600" type="line"/>
			<point x="127" y="637"/>
			<point x="168" y="659"/>
			<point x="218" y="659" type="curve" smooth="yes"/>
			<point x="287" y="659"/>
			<point x="331" y="619"/>
			<point x="331" y="557" type="curve" smooth="yes"/>
			<point x="331" y="412" type="line"/>
			<point x="332" y="392" type="line"/>
			<point x="332" y="316" type="line"/>
		</contour>
		<contour>
			<point x="188" y="304" type="curve" smooth="yes"/>
			<point x="290" y="304"/>
			<point x="364" y="372"/>
			<point x="364" y="466" type="curve"/>
			<point x="340" y="480" type="line"/>
			<point x="335" y="408"/>
			<point x="276" y="358"/>
			<point x="199" y="358" type="curve" smooth="yes"/>
			<point x="145" y="358"/>
			<point x="109" y="385"/>
			<point x="109" y="429" type="curve" smooth="yes"/>
			<point x="109" y="480"/>
			<point x="158" y="504"/>
			<point x="225" y="504" type="curve" smooth="yes"/>
			<point x="339" y="504" type="line"/>
			<point x="339" y="555" type="line"/>
			<point x="217" y="555" type="line" smooth="yes"/>
			<point x="113" y="555"/>
			<point x="40" y="508"/>
			<point x="40" y="427" type="curve" smooth="yes"/>
			<point x="40" y="356"/>
			<point x="100" y="304"/>
		</contour>
	</outline>
	<guideline y="306"/>
</glyph>
<glyph name="registered" format="2">
	<unicode hex="00AE"/>
	<advance width="526"/>
	<outline>
		<contour>
			<point x="215" y="383" type="line"/>
			<point x="215" y="570" type="line"/>
			<point x="274" y="570" type="line" smooth="yes"/>
			<point x="302" y="570"/>
			<point x="320" y="556"/>
			<point x="320" y="536" type="curve" smooth="yes"/>
			<point x="320" y="517"/>
			<point x="302" y="503"/>
			<point x="274" y="503" type="curve" smooth="yes"/>
			<point x="212" y="503" type="line"/>
			<point x="212" y="470" type="line"/>
			<point x="274" y="470" type="line" smooth="yes"/>
			<point x="324" y="470"/>
			<point x="359" y="497"/>
			<point x="359" y="536" type="curve" smooth="yes"/>
			<point x="359" y="575"/>
			<point x="324" y="603"/>
			<point x="274" y="603" type="curve" smooth="yes"/>
			<point x="177" y="603" type="line"/>
			<point x="177" y="383" type="line"/>
		</contour>
		<contour>
			<point x="380" y="383" type="line"/>
			<point x="293" y="475" type="line"/>
			<point x="247" y="475" type="line"/>
			<point x="332" y="383" type="line"/>
		</contour>
		<contour>
			<point x="263" y="265" type="curve" smooth="yes"/>
			<point x="384" y="265"/>
			<point x="481" y="364"/>
			<point x="481" y="488" type="curve" smooth="yes"/>
			<point x="481" y="612"/>
			<point x="384" y="711"/>
			<point x="263" y="711" type="curve" smooth="yes"/>
			<point x="142" y="711"/>
			<point x="45" y="612"/>
			<point x="45" y="488" type="curve" smooth="yes"/>
			<point x="45" y="364"/>
			<point x="142" y="265"/>
		</contour>
		<contour>
			<point x="263" y="316" type="curve" smooth="yes"/>
			<point x="169" y="316"/>
			<point x="98" y="387"/>
			<point x="98" y="488" type="curve" smooth="yes"/>
			<point x="98" y="589"/>
			<point x="169" y="660"/>
			<point x="263" y="660" type="curve" smooth="yes"/>
			<point x="357" y="660"/>
			<point x="428" y="589"/>
			<point x="428" y="488" type="curve" smooth="yes"/>
			<point x="428" y="387"/>
			<point x="357" y="316"/>
		</contour>
	</outline>
</glyph>
<glyph name="micro" format="2">
	<unicode hex="00B5"/>
	<advance width="660"/>
	<outline>
		<contour>
			<point x="555" y="0" type="line"/>
			<point x="555" y="492" type="line"/>
			<point x="481" y="492" type="line"/>
			<point x="481" y="124" type="line"/>
			<point x="482" y="96" type="line"/>
			<point x="482" y="0" type="line"/>
		</contour>
		<contour>
			<point x="148" y="68" type="line"/>
			<point x="176" y="13"/>
			<point x="233" y="-16"/>
			<point x="307" y="-16" type="curve" smooth="yes"/>
			<point x="425" y="-16"/>
			<point x="515" y="71"/>
			<point x="506" y="192" type="curve"/>
			<point x="491" y="213" type="line"/>
			<point x="483" y="115"/>
			<point x="405" y="49"/>
			<point x="315" y="49" type="curve" smooth="yes"/>
			<point x="230" y="49"/>
			<point x="180" y="100"/>
			<point x="180" y="198" type="curve" smooth="yes"/>
			<point x="180" y="492" type="line"/>
			<point x="106" y="492" type="line"/>
			<point x="106" y="-194" type="line"/>
			<point x="180" y="-194" type="line"/>
			<point x="180" y="89" type="line"/>
		</contour>
	</outline>
</glyph>
<glyph name="paragraph" format="2">
	<unicode hex="00B6"/>
	<advance width="624"/>
	<outline>
		<contour>
			<point x="340" y="-130" type="line"/>
			<point x="340" y="652" type="line"/>
			<point x="459" y="652" type="line"/>
			<point x="459" y="-130" type="line"/>
			<point x="529" y="-130" type="line"/>
			<point x="529" y="715" type="line"/>
			<point x="301" y="715" type="line" smooth="yes"/>
			<point x="152" y="715"/>
			<point x="52" y="632"/>
			<point x="52" y="507" type="curve" smooth="yes"/>
			<point x="52" y="390"/>
			<point x="140" y="307"/>
			<point x="270" y="300" type="curve"/>
			<point x="270" y="-130" type="line"/>
		</contour>
	</outline>
</glyph>
<glyph name="ordmasculine" format="2">
	<unicode hex="00BA"/>
	<advance width="506"/>
	<outline>
		<contour>
			<point x="253" y="305" type="curve" smooth="yes"/>
			<point x="373" y="305"/>
			<point x="459" y="390"/>
			<point x="459" y="510" type="curve" smooth="yes"/>
			<point x="459" y="630"/>
			<point x="373" y="715"/>
			<point x="253" y="715" type="curve" smooth="yes"/>
			<point x="133" y="715"/>
			<point x="47" y="630"/>
			<point x="47" y="510" type="curve" smooth="yes"/>
			<point x="47" y="390"/>
			<point x="133" y="305"/>
		</contour>
		<contour>
			<point x="253" y="362" type="curve" smooth="yes"/>
			<point x="173" y="362"/>
			<point x="117" y="423"/>
			<point x="117" y="510" type="curve" smooth="yes"/>
			<point x="117" y="597"/>
			<point x="173" y="658"/>
			<point x="253" y="658" type="curve" smooth="yes"/>
			<point x="333" y="658"/>
			<point x="389" y="597"/>
			<point x="389" y="510" type="curve" smooth="yes"/>
			<point x="389" y="423"/>
			<point x="333" y="362"/>
		</contour>
	</outline>
</glyph>
<glyph name="questiondown" format="2">
	<unicode hex="00BF"/>
	<advance width="561"/>
	<outline>
		<contour>
			<point x="277" y="278" type="line"/>
			<point x="277" y="208"/>
			<point x="254" y="167"/>
			<point x="191" y="127" type="curve" smooth="yes"/>
			<point x="105" y="72"/>
			<point x="65" y="17"/>
			<point x="65" y="-55" type="curve" smooth="yes"/>
			<point x="65" y="-166"/>
			<point x="159" y="-249"/>
			<point x="286" y="-249" type="curve" smooth="yes"/>
			<point x="380" y="-249"/>
			<point x="462" y="-204"/>
			<point x="524" y="-119" type="curve"/>
			<point x="471" y="-70" type="line"/>
			<point x="423" y="-145"/>
			<point x="360" y="-184"/>
			<point x="287" y="-184" type="curve" smooth="yes"/>
			<point x="202" y="-184"/>
			<point x="143" y="-131"/>
			<point x="143" y="-53" type="curve" smooth="yes"/>
			<point x="143" y="-5"/>
			<point x="167" y="34"/>
			<point x="218" y="70" type="curve" smooth="yes"/>
			<point x="309" y="126"/>
			<point x="347" y="191"/>
			<point x="339" y="278" type="curve"/>
		</contour>
		<contour>
			<point x="253" y="436" type="curve" smooth="yes"/>
			<point x="253" y="405"/>
			<point x="278" y="380"/>
			<point x="309" y="380" type="curve" smooth="yes"/>
			<point x="340" y="380"/>
			<point x="365" y="405"/>
			<point x="365" y="436" type="curve" smooth="yes"/>
			<point x="365" y="467"/>
			<point x="340" y="492"/>
			<point x="309" y="492" type="curve" smooth="yes"/>
			<point x="278" y="492"/>
			<point x="253" y="467"/>
		</contour>
	</outline>
</glyph>
<glyph name="AE" format="2">
	<unicode hex="00C6"/>
	<advance width="1043"/>
	<outline>
		<contour>
			<point x="569" y="715" type="line"/>
			<point x="489" y="715" type="line"/>
			<point x="25" y="0" type="line"/>
			<point x="108" y="0" type="line"/>
		</contour>
		<contour>
			<point x="549" y="200" type="line"/>
			<point x="549" y="268" type="line"/>
			<point x="215" y="268" type="line"/>
			<point x="215" y="200" type="line"/>
		</contour>
		<contour>
			<point x="998" y="0" type="line"/>
			<point x="998" y="68" type="line"/>
			<point x="602" y="68" type="line"/>
			<point x="602" y="647" type="line"/>
			<point x="998" y="647" type="line"/>
			<point x="998" y="715" type="line"/>
			<point x="525" y="715" type="line"/>
			<point x="525" y="0" type="line"/>
		</contour>
		<contour>
			<point x="979" y="332" type="line"/>
			<point x="979" y="400" type="line"/>
			<point x="592" y="400" type="line"/>
			<point x="592" y="332" type="line"/>
		</contour>
	</outline>
	<guideline y="647"/>
</glyph>
<glyph name="Eth" format="2">
	<unicode hex="00D0"/>
	<advance width="741"/>
	<outline>
		<contour>
			<point x="85" y="0" type="line"/>
			<point x="316" y="0" type="line" smooth="yes"/>
			<point x="535" y="0"/>
			<point x="687" y="150"/>
			<point x="687" y="358" type="curve" smooth="yes"/>
			<point x="687" y="565"/>
			<point x="535" y="715"/>
			<point x="316" y="715" type="curve" smooth="yes"/>
			<point x="85" y="715" type="line"/>
		</contour>
		<contour>
			<point x="162" y="70" type="line"/>
			<point x="162" y="645" type="line"/>
			<point x="316" y="645" type="line" smooth="yes"/>
			<point x="494" y="645"/>
			<point x="607" y="529"/>
			<point x="607" y="358" type="curve" smooth="yes"/>
			<point x="607" y="186"/>
			<point x="494" y="70"/>
			<point x="316" y="70" type="curve" smooth="yes"/>
		</contour>
		<contour>
			<point x="367" y="332" type="line"/>
			<point x="367" y="400" type="line"/>
			<point x="10" y="400" type="line"/>
			<point x="10" y="332" type="line"/>
		</contour>
	</outline>
	<guideline x="381"/>
	<guideline y="357"/>
</glyph>
<glyph name="multiply" format="2">
	<unicode hex="00D7"/>
	<advance width="660"/>
	<outline>
		<contour>
			<point x="516" y="213" type="line"/>
			<point x="186" y="543" type="line"/>
			<point x="144" y="501" type="line"/>
			<point x="474" y="171" type="line"/>
		</contour>
		<contour>
			<point x="474" y="543" type="line"/>
			<point x="144" y="213" type="line"/>
			<point x="186" y="171" type="line"/>
			<point x="516" y="501" type="line"/>
		</contour>
	</outline>
</glyph>
<glyph name="Oslash" format="2">
	<unicode hex="00D8"/>
	<advance width="852"/>
	<outline>
		<contour>
			<point x="426" y="-16" type="curve" smooth="yes"/>
			<point x="639" y="-16"/>
			<point x="797" y="144"/>
			<point x="797" y="358" type="curve" smooth="yes"/>
			<point x="797" y="571"/>
			<point x="639" y="731"/>
			<point x="426" y="731" type="curve" smooth="yes"/>
			<point x="213" y="731"/>
			<point x="55" y="571"/>
			<point x="55" y="358" type="curve" smooth="yes"/>
			<point x="55" y="144"/>
			<point x="213" y="-16"/>
		</contour>
		<contour>
			<point x="426" y="54" type="curve" smooth="yes"/>
			<point x="255" y="54"/>
			<point x="135" y="181"/>
			<point x="135" y="358" type="curve" smooth="yes"/>
			<point x="135" y="534"/>
			<point x="255" y="661"/>
			<point x="426" y="661" type="curve" smooth="yes"/>
			<point x="597" y="661"/>
			<point x="717" y="534"/>
			<point x="717" y="358" type="curve" smooth="yes"/>
			<point x="717" y="181"/>
			<point x="597" y="54"/>
		</contour>
		<contour>
			<point x="98" y="-19" type="line"/>
			<point x="800" y="688" type="line"/>
			<point x="754" y="734" type="line"/>
			<point x="52" y="27" type="line"/>
		</contour>
	</outline>
</glyph>
<glyph name="Thorn" format="2">
	<unicode hex="00DE"/>
	<advance width="644"/>
	<outline>
		<contour>
			<point x="152" y="489" type="line"/>
			<point x="362" y="489" type="line" smooth="yes"/>
			<point x="459" y="489"/>
			<point x="518" y="440"/>
			<point x="518" y="357" type="curve" smooth="yes"/>
			<point x="518" y="274"/>
			<point x="459" y="225"/>
			<point x="362" y="225" type="curve" smooth="yes"/>
			<point x="152" y="225" type="line"/>
			<point x="152" y="157" type="line"/>
			<point x="362" y="157" type="line" smooth="yes"/>
			<point x="503" y="157"/>
			<point x="597" y="237"/>
			<point x="597" y="357" type="curve" smooth="yes"/>
			<point x="597" y="477"/>
			<point x="503" y="557"/>
			<point x="362" y="557" type="curve" smooth="yes"/>
			<point x="152" y="557" type="line"/>
		</contour>
		<contour>
			<point x="162" y="0" type="line"/>
			<point x="162" y="715" type="line"/>
			<point x="85" y="715" type="line"/>
			<point x="85" y="0" type="line"/>
		</contour>
	</outline>
	<guideline x="118"/>
	<guideline y="357"/>
</glyph>
<glyph name="germandbls" format="2">
	<unicode hex="00DF"/>
	<advance width="622"/>
	<outline>
		<contour>
			<point x="137" y="0" type="line"/>
			<point x="137" y="453" type="line" smooth="yes"/>
			<point x="137" y="596"/>
			<point x="209" y="666"/>
			<point x="308" y="666" type="curve" smooth="yes"/>
			<point x="393" y="666"/>
			<point x="443" y="614"/>
			<point x="443" y="542" type="curve" smooth="yes"/>
			<point x="443" y="461"/>
			<point x="382" y="407"/>
			<point x="294" y="407" type="curve" smooth="yes"/>
			<point x="272" y="407" type="line"/>
			<point x="272" y="342" type="line"/>
			<point x="317" y="342" type="line" smooth="yes"/>
			<point x="409" y="342"/>
			<point x="501" y="284"/>
			<point x="501" y="183" type="curve" smooth="yes"/>
			<point x="501" y="99"/>
			<point x="442" y="47"/>
			<point x="366" y="47" type="curve" smooth="yes"/>
			<point x="321" y="47"/>
			<point x="273" y="65"/>
			<point x="243" y="98" type="curve"/>
			<point x="198" y="44" type="line"/>
			<point x="241" y="5"/>
			<point x="306" y="-16"/>
			<point x="367" y="-16" type="curve" smooth="yes"/>
			<point x="488" y="-16"/>
			<point x="579" y="65"/>
			<point x="579" y="187" type="curve" smooth="yes"/>
			<point x="579" y="317"/>
			<point x="464" y="396"/>
			<point x="327" y="396" type="curve" smooth="yes"/>
			<point x="291" y="396" type="line"/>
			<point x="291" y="361" type="line"/>
			<point x="294" y="361" type="line" smooth="yes"/>
			<point x="435" y="361"/>
			<point x="521" y="439"/>
			<point x="521" y="542" type="curve" smooth="yes"/>
			<point x="521" y="647"/>
			<point x="435" y="731"/>
			<point x="307" y="731" type="curve" smooth="yes"/>
			<point x="170" y="731"/>
			<point x="63" y="635"/>
			<point x="63" y="466" type="curve" smooth="yes"/>
			<point x="63" y="0" type="line"/>
		</contour>
	</outline>
	<guideline x="296"/>
	<guideline x="1015"/>
	<guideline x="1015"/>
	<guideline y="49"/>
	<guideline y="666"/>
</glyph>
<glyph name="ae" format="2">
	<unicode hex="00E6"/>
	<advance width="963"/>
	<outline>
		<contour>
			<point x="848" y="140" type="line"/>
			<point x="806" y="79"/>
			<point x="751" y="49"/>
			<point x="681" y="49" type="curve" smooth="yes"/>
			<point x="567" y="49"/>
			<point x="487" y="130"/>
			<point x="487" y="247" type="curve" smooth="yes"/>
			<point x="487" y="362"/>
			<point x="561" y="443"/>
			<point x="669" y="443" type="curve" smooth="yes"/>
			<point x="767" y="443"/>
			<point x="840" y="364"/>
			<point x="840" y="249" type="curve" smooth="yes"/>
			<point x="840" y="243" type="line"/>
			<point x="916" y="243" type="line"/>
			<point x="916" y="249" type="line" smooth="yes"/>
			<point x="916" y="400"/>
			<point x="812" y="508"/>
			<point x="669" y="508" type="curve" smooth="yes"/>
			<point x="520" y="508"/>
			<point x="415" y="398"/>
			<point x="415" y="246" type="curve" smooth="yes"/>
			<point x="415" y="94"/>
			<point x="526" y="-16"/>
			<point x="680" y="-16" type="curve" smooth="yes"/>
			<point x="774" y="-16"/>
			<point x="848" y="24"/>
			<point x="900" y="91" type="curve"/>
		</contour>
		<contour>
			<point x="916" y="228" type="line"/>
			<point x="916" y="249" type="line"/>
			<point x="900" y="288" type="line"/>
			<point x="471" y="288" type="line"/>
			<point x="471" y="228" type="line"/>
		</contour>
		<contour>
			<point x="479" y="250" type="line"/>
			<point x="479" y="293" type="line" smooth="yes"/>
			<point x="479" y="420"/>
			<point x="395" y="508"/>
			<point x="267" y="508" type="curve" smooth="yes"/>
			<point x="179" y="508"/>
			<point x="111" y="474"/>
			<point x="57" y="416" type="curve"/>
			<point x="109" y="366" type="line"/>
			<point x="149" y="414"/>
			<point x="201" y="444"/>
			<point x="267" y="444" type="curve" smooth="yes"/>
			<point x="356" y="444"/>
			<point x="415" y="380"/>
			<point x="415" y="290" type="curve" smooth="yes"/>
			<point x="415" y="250" type="line"/>
		</contour>
		<contour>
			<point x="236" y="-16" type="curve" smooth="yes"/>
			<point x="368" y="-16"/>
			<point x="478" y="66"/>
			<point x="488" y="172" type="curve"/>
			<point x="442" y="189" type="line"/>
			<point x="427" y="109"/>
			<point x="343" y="46"/>
			<point x="245" y="46" type="curve" smooth="yes"/>
			<point x="169" y="46"/>
			<point x="117" y="83"/>
			<point x="117" y="142" type="curve" smooth="yes"/>
			<point x="117" y="204"/>
			<point x="184" y="228"/>
			<point x="273" y="228" type="curve" smooth="yes"/>
			<point x="421" y="228" type="line"/>
			<point x="421" y="288" type="line"/>
			<point x="263" y="288" type="line" smooth="yes"/>
			<point x="134" y="288"/>
			<point x="40" y="238"/>
			<point x="40" y="140" type="curve" smooth="yes"/>
			<point x="40" y="50"/>
			<point x="120" y="-16"/>
		</contour>
	</outline>
</glyph>
<glyph name="oslash" format="2">
	<unicode hex="00F8"/>
	<advance width="614"/>
	<outline>
		<contour>
			<point x="307" y="-16" type="curve" smooth="yes"/>
			<point x="458" y="-16"/>
			<point x="567" y="94"/>
			<point x="567" y="246" type="curve" smooth="yes"/>
			<point x="567" y="398"/>
			<point x="458" y="508"/>
			<point x="307" y="508" type="curve" smooth="yes"/>
			<point x="156" y="508"/>
			<point x="47" y="398"/>
			<point x="47" y="246" type="curve" smooth="yes"/>
			<point x="47" y="94"/>
			<point x="156" y="-16"/>
		</contour>
		<contour>
			<point x="307" y="49" type="curve" smooth="yes"/>
			<point x="199" y="49"/>
			<point x="125" y="130"/>
			<point x="125" y="246" type="curve" smooth="yes"/>
			<point x="125" y="362"/>
			<point x="199" y="443"/>
			<point x="307" y="443" type="curve" smooth="yes"/>
			<point x="415" y="443"/>
			<point x="489" y="362"/>
			<point x="489" y="246" type="curve" smooth="yes"/>
			<point x="489" y="130"/>
			<point x="415" y="49"/>
		</contour>
		<contour>
			<point x="78" y="-27" type="line"/>
			<point x="578" y="477" type="line"/>
			<point x="536" y="519" type="line"/>
			<point x="36" y="15" type="line"/>
		</contour>
	</outline>
</glyph>
<glyph name="Hbar" format="2">
	<unicode hex="0126"/>
	<advance width="742"/>
	<outline>
		<contour>
			<point x="580" y="0" type="line"/>
			<point x="657" y="0" type="line"/>
			<point x="657" y="715" type="line"/>
			<point x="580" y="715" type="line"/>
		</contour>
		<contour>
			<point x="162" y="0" type="line"/>
			<point x="162" y="715" type="line"/>
			<point x="85" y="715" type="line"/>
			<point x="85" y="0" type="line"/>
		</contour>
		<contour>
			<point x="152" y="337" type="line"/>
			<point x="590" y="337" type="line"/>
			<point x="590" y="406" type="line"/>
			<point x="152" y="406" type="line"/>
		</contour>
		<contour>
			<point x="727" y="527" type="line"/>
			<point x="727" y="595" type="line"/>
			<point x="15" y="595" type="line"/>
			<point x="15" y="527" type="line"/>
		</contour>
	</outline>
</glyph>
<glyph name="dotlessi" format="2">
	<unicode hex="0131"/>
	<advance width="214"/>
	<outline>
		<contour>
			<point x="144" y="0" type="line"/>
			<point x="144" y="492" type="line"/>
			<point x="70" y="492" type="line"/>
			<point x="70" y="0" type="line"/>
		</contour>
	</outline>
	<anchor name="top.LC" x="107" y="544"/>
	<guideline x="102"/>
	<guideline y="492"/>
</glyph>
<glyph name="IJ" format="2">
	<unicode hex="0132"/>
	<advance width="682"/>
	<outline>
		<contour>
			<point x="153" y="313" type="line"/>
			<point x="153" y="715" type="line"/>
			<point x="76" y="715" type="line"/>
			<point x="76" y="313" type="line"/>
		</contour>
		<contour>
			<point x="606" y="715" type="line"/>
			<point x="529" y="715" type="line"/>
			<point x="529" y="272" type="line" smooth="yes"/>
			<point x="529" y="130"/>
			<point x="463" y="54"/>
			<point x="340" y="54" type="curve" smooth="yes"/>
			<point x="230" y="54"/>
			<point x="166" y="114"/>
			<point x="153" y="228" type="curve"/>
			<point x="77" y="219" type="line"/>
			<point x="94" y="69"/>
			<point x="187" y="-16"/>
			<point x="340" y="-16" type="curve" smooth="yes"/>
			<point x="510" y="-16"/>
			<point x="606" y="89"/>
			<point x="606" y="272" type="curve" smooth="yes"/>
		</contour>
	</outline>
	<anchor name="top.UC_1" x="114" y="750"/>
	<anchor name="top.UC_2" x="567" y="750"/>
	<guideline x="109"/>
	<guideline x="562"/>
	<guideline y="715"/>
	<guideline y="715"/>
</glyph>
<glyph name="kgreenlandic" format="2">
	<unicode hex="0138"/>
	<advance width="547"/>
	<outline>
		<contour>
			<point x="144" y="0" type="line"/>
			<point x="144" y="492" type="line"/>
			<point x="70" y="492" type="line"/>
			<point x="70" y="0" type="line"/>
		</contour>
		<contour>
			<point x="533" y="0" type="line"/>
			<point x="213" y="264" type="line"/>
			<point x="213" y="246" type="line"/>
			<point x="505" y="492" type="line"/>
			<point x="403" y="492" type="line"/>
			<point x="128" y="255" type="line"/>
			<point x="118" y="255" type="line"/>
			<point x="423" y="0" type="line"/>
		</contour>
	</outline>
</glyph>
<glyph name="Lslash" format="2">
	<unicode hex="0141"/>
	<advance width="590"/>
	<outline>
		<contour>
			<point x="554" y="0" type="line"/>
			<point x="554" y="69" type="line"/>
			<point x="188" y="69" type="line"/>
			<point x="188" y="715" type="line"/>
			<point x="111" y="715" type="line"/>
			<point x="111" y="0" type="line"/>
		</contour>
		<contour>
			<point x="413" y="439" type="line"/>
			<point x="376" y="495" type="line"/>
			<point x="17" y="256" type="line"/>
			<point x="54" y="200" type="line"/>
		</contour>
	</outline>
</glyph>
<glyph name="lslash" format="2">
	<unicode hex="0142"/>
	<advance width="317"/>
	<outline>
		<contour>
			<point x="184" y="0" type="line"/>
			<point x="184" y="720" type="line"/>
			<point x="110" y="720" type="line"/>
			<point x="110" y="0" type="line"/>
		</contour>
		<contour>
			<point x="312" y="448" type="line"/>
			<point x="280" y="495" type="line"/>
			<point x="5" y="312" type="line"/>
			<point x="37" y="265" type="line"/>
		</contour>
	</outline>
</glyph>
<glyph name="Eng" format="2">
	<unicode hex="014A"/>
	<advance width="738"/>
	<outline>
		<contour>
			<point x="228" y="-145" type="line"/>
			<point x="272" y="-184"/>
			<point x="334" y="-204"/>
			<point x="411" y="-204" type="curve" smooth="yes"/>
			<point x="567" y="-204"/>
			<point x="655" y="-108"/>
			<point x="655" y="71" type="curve" smooth="yes"/>
			<point x="655" y="715" type="line"/>
			<point x="581" y="715" type="line"/>
			<point x="581" y="71" type="line" smooth="yes"/>
			<point x="581" y="-63"/>
			<point x="521" y="-134"/>
			<point x="411" y="-134" type="curve" smooth="yes"/>
			<point x="359" y="-134"/>
			<point x="313" y="-120"/>
			<point x="275" y="-84" type="curve"/>
		</contour>
		<contour>
			<point x="157" y="0" type="line"/>
			<point x="157" y="631" type="line"/>
			<point x="141" y="631" type="line"/>
			<point x="578" y="0" type="line"/>
			<point x="604" y="84" type="line"/>
			<point x="167" y="715" type="line"/>
			<point x="83" y="715" type="line"/>
			<point x="83" y="0" type="line"/>
		</contour>
	</outline>
</glyph>
<glyph name="eng" format="2">
	<unicode hex="014B"/>
	<advance width="584"/>
	<outline>
		<contour>
			<point x="353" y="-194" type="line"/>
			<point x="402" y="-194" type="line" smooth="yes"/>
			<point x="482" y="-194"/>
			<point x="521" y="-155"/>
			<point x="521" y="-75" type="curve" smooth="yes"/>
			<point x="521" y="292" type="line" smooth="yes"/>
			<point x="521" y="432"/>
			<point x="447" y="508"/>
			<point x="327" y="508" type="curve" smooth="yes"/>
			<point x="237" y="508"/>
			<point x="153" y="464"/>
			<point x="130" y="343" type="curve"/>
			<point x="143" y="343" type="line"/>
			<point x="143" y="492" type="line"/>
			<point x="70" y="492" type="line"/>
			<point x="70" y="0" type="line"/>
			<point x="144" y="0" type="line"/>
			<point x="144" y="221" type="line" smooth="yes"/>
			<point x="144" y="377"/>
			<point x="226" y="443"/>
			<point x="314" y="443" type="curve" smooth="yes"/>
			<point x="395" y="443"/>
			<point x="447" y="389"/>
			<point x="447" y="284" type="curve" smooth="yes"/>
			<point x="447" y="-69" type="line" smooth="yes"/>
			<point x="447" y="-111"/>
			<point x="429" y="-130"/>
			<point x="386" y="-130" type="curve" smooth="yes"/>
			<point x="353" y="-130" type="line"/>
		</contour>
	</outline>
</glyph>
<glyph name="OE" format="2">
	<unicode hex="0152"/>
	<advance width="1235"/>
	<outline>
		<contour>
			<point x="426" y="-16" type="curve" smooth="yes"/>
			<point x="627" y="-16"/>
			<point x="777" y="144"/>
			<point x="777" y="358" type="curve" smooth="yes"/>
			<point x="777" y="571"/>
			<point x="627" y="731"/>
			<point x="426" y="731" type="curve" smooth="yes"/>
			<point x="213" y="731"/>
			<point x="55" y="571"/>
			<point x="55" y="358" type="curve" smooth="yes"/>
			<point x="55" y="144"/>
			<point x="213" y="-16"/>
		</contour>
		<contour>
			<point x="426" y="54" type="curve" smooth="yes"/>
			<point x="255" y="54"/>
			<point x="135" y="181"/>
			<point x="135" y="358" type="curve" smooth="yes"/>
			<point x="135" y="534"/>
			<point x="255" y="661"/>
			<point x="426" y="661" type="curve" smooth="yes"/>
			<point x="597" y="661"/>
			<point x="717" y="534"/>
			<point x="717" y="358" type="curve" smooth="yes"/>
			<point x="717" y="181"/>
			<point x="597" y="54"/>
		</contour>
		<contour>
			<point x="1190" y="0" type="line"/>
			<point x="1190" y="68" type="line"/>
			<point x="794" y="68" type="line"/>
			<point x="794" y="647" type="line"/>
			<point x="1190" y="647" type="line"/>
			<point x="1190" y="715" type="line"/>
			<point x="717" y="715" type="line"/>
			<point x="717" y="0" type="line"/>
		</contour>
		<contour>
			<point x="1171" y="332" type="line"/>
			<point x="1171" y="400" type="line"/>
			<point x="784" y="400" type="line"/>
			<point x="784" y="332" type="line"/>
		</contour>
	</outline>
</glyph>
<glyph name="Tbar" format="2">
	<unicode hex="0166"/>
	<advance width="625"/>
	<outline>
		<contour>
			<point x="351" y="0" type="line"/>
			<point x="351" y="656" type="line"/>
			<point x="274" y="656" type="line"/>
			<point x="274" y="0" type="line"/>
		</contour>
		<contour>
			<point x="589" y="646" type="line"/>
			<point x="589" y="715" type="line"/>
			<point x="36" y="715" type="line"/>
			<point x="36" y="646" type="line"/>
		</contour>
		<contour>
			<point x="519" y="332" type="line"/>
			<point x="519" y="400" type="line"/>
			<point x="106" y="400" type="line"/>
			<point x="106" y="332" type="line"/>
		</contour>
	</outline>
</glyph>
<glyph name="tbar" format="2">
	<unicode hex="0167"/>
	<advance width="392"/>
	<outline>
		<contour>
			<point x="357" y="0" type="line"/>
			<point x="357" y="64" type="line"/>
			<point x="257" y="64" type="line" smooth="yes"/>
			<point x="224" y="64"/>
			<point x="206" y="83"/>
			<point x="206" y="115" type="curve" smooth="yes"/>
			<point x="206" y="636" type="line"/>
			<point x="132" y="636" type="line"/>
			<point x="132" y="109" type="line"/>
			<point x="132" y="39"/>
			<point x="171" y="0"/>
			<point x="241" y="0" type="curve" smooth="yes"/>
		</contour>
		<contour>
			<point x="350" y="429" type="line"/>
			<point x="350" y="492" type="line"/>
			<point x="30" y="492" type="line"/>
			<point x="30" y="429" type="line"/>
		</contour>
		<contour>
			<point x="350" y="246" type="line"/>
			<point x="350" y="309" type="line"/>
			<point x="30" y="309" type="line"/>
			<point x="30" y="246" type="line"/>
		</contour>
	</outline>
	<guideline x="188"/>
	<guideline y="246"/>
</glyph>
<glyph name="Ohorn" format="2">
	<unicode hex="01A0"/>
	<advance width="864"/>
	<outline>
		<contour>
			<point x="426" y="-16" type="curve" smooth="yes"/>
			<point x="639" y="-16"/>
			<point x="797" y="144"/>
			<point x="797" y="358" type="curve" smooth="yes"/>
			<point x="797" y="492"/>
			<point x="734" y="605"/>
			<point x="636" y="670" type="curve"/>
			<point x="634" y="657" type="line"/>
			<point x="648" y="654"/>
			<point x="670" y="652"/>
			<point x="691" y="652" type="curve" smooth="yes"/>
			<point x="790" y="652"/>
			<point x="844" y="711"/>
			<point x="844" y="820" type="curve" smooth="yes"/>
			<point x="844" y="865" type="line"/>
			<point x="767" y="865" type="line"/>
			<point x="767" y="811" type="line" smooth="yes"/>
			<point x="767" y="726"/>
			<point x="719" y="713"/>
			<point x="640" y="713" type="curve" smooth="yes"/>
			<point x="601" y="713"/>
			<point x="543" y="716"/>
			<point x="509" y="722" type="curve" smooth="yes"/>
			<point x="476" y="728"/>
			<point x="452" y="731"/>
			<point x="426" y="731" type="curve" smooth="yes"/>
			<point x="213" y="731"/>
			<point x="55" y="571"/>
			<point x="55" y="358" type="curve" smooth="yes"/>
			<point x="55" y="144"/>
			<point x="213" y="-16"/>
		</contour>
		<contour>
			<point x="426" y="54" type="curve" smooth="yes"/>
			<point x="255" y="54"/>
			<point x="135" y="181"/>
			<point x="135" y="358" type="curve" smooth="yes"/>
			<point x="135" y="534"/>
			<point x="255" y="661"/>
			<point x="426" y="661" type="curve" smooth="yes"/>
			<point x="597" y="661"/>
			<point x="717" y="534"/>
			<point x="717" y="358" type="curve" smooth="yes"/>
			<point x="717" y="181"/>
			<point x="597" y="54"/>
		</contour>
	</outline>
	<anchor name="bottom.UC" x="426" y="-50"/>
	<anchor name="top.UC" x="426" y="750"/>
</glyph>
<glyph name="ohorn" format="2">
	<unicode hex="01A1"/>
	<advance width="621"/>
	<outline>
		<contour>
			<point x="307" y="-16" type="curve" smooth="yes"/>
			<point x="458" y="-16"/>
			<point x="567" y="94"/>
			<point x="567" y="246" type="curve" smooth="yes"/>
			<point x="567" y="334"/>
			<point x="530" y="408"/>
			<point x="471" y="454" type="curve"/>
			<point x="457" y="430" type="line"/>
			<point x="555" y="437"/>
			<point x="601" y="481"/>
			<point x="601" y="575" type="curve" smooth="yes"/>
			<point x="601" y="612" type="line"/>
			<point x="528" y="612" type="line"/>
			<point x="528" y="568" type="line" smooth="yes"/>
			<point x="528" y="512"/>
			<point x="498" y="492"/>
			<point x="434" y="492" type="curve" smooth="yes"/>
			<point x="417" y="492"/>
			<point x="402" y="493"/>
			<point x="379" y="499" type="curve" smooth="yes"/>
			<point x="357" y="505"/>
			<point x="332" y="508"/>
			<point x="307" y="508" type="curve" smooth="yes"/>
			<point x="156" y="508"/>
			<point x="47" y="398"/>
			<point x="47" y="246" type="curve" smooth="yes"/>
			<point x="47" y="94"/>
			<point x="156" y="-16"/>
		</contour>
		<contour>
			<point x="307" y="49" type="curve" smooth="yes"/>
			<point x="199" y="49"/>
			<point x="125" y="130"/>
			<point x="125" y="246" type="curve" smooth="yes"/>
			<point x="125" y="362"/>
			<point x="199" y="443"/>
			<point x="307" y="443" type="curve" smooth="yes"/>
			<point x="415" y="443"/>
			<point x="489" y="362"/>
			<point x="489" y="246" type="curve" smooth="yes"/>
			<point x="489" y="130"/>
			<point x="415" y="49"/>
		</contour>
	</outline>
	<anchor name="bottom.LC" x="307" y="-50"/>
	<anchor name="top.LC" x="307" y="544"/>
</glyph>
<glyph name="Uhorn" format="2">
	<unicode hex="01AF"/>
	<advance width="746"/>
	<outline>
		<contour>
			<point x="361" y="-16" type="curve" smooth="yes"/>
			<point x="540" y="-16"/>
			<point x="647" y="94"/>
			<point x="647" y="282" type="curve" smooth="yes"/>
			<point x="647" y="697" type="line"/>
			<point x="610" y="652" type="line"/>
			<point x="736" y="644"/>
			<point x="806" y="703"/>
			<point x="806" y="820" type="curve" smooth="yes"/>
			<point x="806" y="865" type="line"/>
			<point x="729" y="865" type="line"/>
			<point x="729" y="811" type="line" smooth="yes"/>
			<point x="729" y="749"/>
			<point x="694" y="715"/>
			<point x="632" y="715" type="curve" smooth="yes"/>
			<point x="571" y="715" type="line"/>
			<point x="571" y="282" type="line" smooth="yes"/>
			<point x="571" y="134"/>
			<point x="494" y="54"/>
			<point x="361" y="54" type="curve" smooth="yes"/>
			<point x="229" y="54"/>
			<point x="152" y="134"/>
			<point x="152" y="282" type="curve" smooth="yes"/>
			<point x="152" y="715" type="line"/>
			<point x="75" y="715" type="line"/>
			<point x="75" y="282" type="line" smooth="yes"/>
			<point x="75" y="94"/>
			<point x="183" y="-16"/>
		</contour>
	</outline>
	<anchor name="bottom.UC" x="362" y="-50"/>
	<anchor name="ogonek.UC.round" x="402" y="-30"/>
	<anchor name="top.UC" x="361" y="750"/>
	<anchor name="topright.UC" x="586" y="750"/>
</glyph>
<glyph name="uhorn" format="2">
	<unicode hex="01B0"/>
	<advance width="627"/>
	<outline>
		<contour>
			<point x="448" y="213" type="line"/>
			<point x="440" y="115"/>
			<point x="362" y="49"/>
			<point x="272" y="49" type="curve" smooth="yes"/>
			<point x="187" y="49"/>
			<point x="137" y="100"/>
			<point x="137" y="198" type="curve" smooth="yes"/>
			<point x="137" y="492" type="line"/>
			<point x="63" y="492" type="line"/>
			<point x="63" y="190" type="line" smooth="yes"/>
			<point x="63" y="56"/>
			<point x="140" y="-16"/>
			<point x="259" y="-16" type="curve" smooth="yes"/>
			<point x="382" y="-16"/>
			<point x="472" y="71"/>
			<point x="463" y="192" type="curve"/>
		</contour>
		<contour>
			<point x="580" y="612" type="line"/>
			<point x="580" y="568" type="line" smooth="yes"/>
			<point x="580" y="516"/>
			<point x="556" y="492"/>
			<point x="491" y="492" type="curve" smooth="yes"/>
			<point x="438" y="492" type="line"/>
			<point x="438" y="124" type="line"/>
			<point x="439" y="96" type="line"/>
			<point x="439" y="0" type="line"/>
			<point x="512" y="0" type="line"/>
			<point x="512" y="475" type="line"/>
			<point x="470" y="429" type="line"/>
			<point x="599" y="426"/>
			<point x="653" y="471"/>
			<point x="653" y="575" type="curve" smooth="yes"/>
			<point x="653" y="612" type="line"/>
		</contour>
	</outline>
	<anchor name="bottom.LC" x="287" y="-50"/>
	<anchor name="top.LC" x="287" y="544"/>
</glyph>
<glyph name="dotlessj" format="2">
	<unicode hex="0237"/>
	<advance width="214"/>
	<outline>
		<contour>
			<point x="-24" y="-194" type="line"/>
			<point x="25" y="-194" type="line" smooth="yes"/>
			<point x="105" y="-194"/>
			<point x="144" y="-155"/>
			<point x="144" y="-75" type="curve" smooth="yes"/>
			<point x="144" y="492" type="line"/>
			<point x="70" y="492" type="line"/>
			<point x="70" y="-69" type="line" smooth="yes"/>
			<point x="70" y="-111"/>
			<point x="52" y="-130"/>
			<point x="9" y="-130" type="curve" smooth="yes"/>
			<point x="-24" y="-130" type="line"/>
		</contour>
	</outline>
	<anchor name="top.LC" x="107" y="544"/>
</glyph>
<glyph name="circumflexcomb" format="2">
	<unicode hex="0302"/>
	<outline>
		<contour>
			<point x="157" y="587" type="line"/>
			<point x="33" y="761" type="line"/>
			<point x="-33" y="761" type="line"/>
			<point x="-157" y="587" type="line"/>
			<point x="-90" y="587" type="line"/>
			<point x="31" y="745" type="line"/>
			<point x="-34" y="745" type="line"/>
			<point x="87" y="587" type="line"/>
		</contour>
	</outline>
	<anchor name="_top.LC" x="0" y="544"/>
	<anchor name="top.LC" x="161" y="667"/>
</glyph>
<glyph name="tildecomb" format="2">
	<unicode hex="0303"/>
	<outline>
		<contour>
			<point x="108" y="720" type="line"/>
			<point x="103" y="677"/>
			<point x="86" y="657"/>
			<point x="66" y="657" type="curve" smooth="yes"/>
			<point x="52" y="657"/>
			<point x="39" y="665"/>
			<point x="12" y="686" type="curve" smooth="yes"/>
			<point x="-16" y="707"/>
			<point x="-43" y="720"/>
			<point x="-73" y="720" type="curve" smooth="yes"/>
			<point x="-113" y="720"/>
			<point x="-151" y="695"/>
			<point x="-164" y="622" type="curve"/>
			<point x="-109" y="597" type="line"/>
			<point x="-104" y="640"/>
			<point x="-87" y="660"/>
			<point x="-67" y="660" type="curve" smooth="yes"/>
			<point x="-53" y="660"/>
			<point x="-40" y="652"/>
			<point x="-13" y="631" type="curve" smooth="yes"/>
			<point x="15" y="610"/>
			<point x="42" y="597"/>
			<point x="72" y="597" type="curve" smooth="yes"/>
			<point x="112" y="597"/>
			<point x="150" y="622"/>
			<point x="163" y="695" type="curve"/>
		</contour>
	</outline>
	<anchor name="_top.LC" x="0" y="544"/>
</glyph>
<glyph name="macroncomb" format="2">
	<unicode hex="0304"/>
	<outline>
		<contour>
			<point x="139" y="622" type="line"/>
			<point x="139" y="683" type="line"/>
			<point x="-139" y="683" type="line"/>
			<point x="-139" y="622" type="line"/>
		</contour>
	</outline>
	<anchor name="_top.LC" x="0" y="544"/>
</glyph>
<glyph name="brevecomb" format="2">
	<unicode hex="0306"/>
	<outline>
		<contour>
			<point x="0" y="582" type="curve" smooth="yes"/>
			<point x="79" y="582"/>
			<point x="143" y="641"/>
			<point x="151" y="732" type="curve"/>
			<point x="89" y="732" type="line"/>
			<point x="81" y="671"/>
			<point x="45" y="639"/>
			<point x="0" y="639" type="curve" smooth="yes"/>
			<point x="-45" y="639"/>
			<point x="-81" y="671"/>
			<point x="-89" y="732" type="curve"/>
			<point x="-151" y="732" type="line"/>
			<point x="-143" y="641"/>
			<point x="-79" y="582"/>
		</contour>
	</outline>
	<anchor name="_top.LC" x="0" y="544"/>
	<anchor name="top.LC" x="0" y="691"/>
</glyph>
<glyph name="dieresiscomb" format="2">
	<unicode hex="0308"/>
	<outline>
		<contour>
			<point x="101" y="624" type="curve" smooth="yes"/>
			<point x="131" y="624"/>
			<point x="155" y="648"/>
			<point x="155" y="677" type="curve" smooth="yes"/>
			<point x="155" y="707"/>
			<point x="131" y="731"/>
			<point x="101" y="731" type="curve" smooth="yes"/>
			<point x="71" y="731"/>
			<point x="47" y="707"/>
			<point x="47" y="677" type="curve" smooth="yes"/>
			<point x="47" y="648"/>
			<point x="71" y="624"/>
		</contour>
		<contour>
			<point x="-101" y="624" type="curve" smooth="yes"/>
			<point x="-71" y="624"/>
			<point x="-47" y="648"/>
			<point x="-47" y="677" type="curve" smooth="yes"/>
			<point x="-47" y="707"/>
			<point x="-71" y="731"/>
			<point x="-101" y="731" type="curve" smooth="yes"/>
			<point x="-131" y="731"/>
			<point x="-155" y="707"/>
			<point x="-155" y="677" type="curve" smooth="yes"/>
			<point x="-155" y="648"/>
			<point x="-131" y="624"/>
		</contour>
	</outline>
	<anchor name="_top.LC" x="0" y="544"/>
</glyph>
<glyph name="hookabovecomb" format="2">
	<unicode hex="0309"/>
	<outline>
		<contour>
			<point x="-8" y="560" type="line"/>
			<point x="57" y="584"/>
			<point x="94" y="624"/>
			<point x="94" y="670" type="curve" smooth="yes"/>
			<point x="94" y="720"/>
			<point x="50" y="759"/>
			<point x="-6" y="759" type="curve" smooth="yes"/>
			<point x="-42" y="759"/>
			<point x="-73" y="747"/>
			<point x="-101" y="723" type="curve"/>
			<point x="-68" y="682" type="line"/>
			<point x="-51" y="696"/>
			<point x="-32" y="703"/>
			<point x="-14" y="703" type="curve" smooth="yes"/>
			<point x="15" y="703"/>
			<point x="32" y="690"/>
			<point x="32" y="666" type="curve" smooth="yes"/>
			<point x="32" y="643"/>
			<point x="10" y="622"/>
			<point x="-31" y="604" type="curve"/>
		</contour>
	</outline>
	<anchor name="_top.LC" x="0" y="544"/>
</glyph>
<glyph name="ringcomb" format="2">
	<unicode hex="030A"/>
	<outline>
		<contour>
			<point x="109" y="672" type="curve" smooth="yes"/>
			<point x="109" y="732"/>
			<point x="61" y="779"/>
			<point x="0" y="779" type="curve" smooth="yes"/>
			<point x="-61" y="779"/>
			<point x="-109" y="732"/>
			<point x="-109" y="672" type="curve" smooth="yes"/>
			<point x="-109" y="612"/>
			<point x="-61" y="565"/>
			<point x="0" y="565" type="curve" smooth="yes"/>
			<point x="61" y="565"/>
			<point x="109" y="612"/>
		</contour>
		<contour>
			<point x="54" y="672" type="curve" smooth="yes"/>
			<point x="54" y="640"/>
			<point x="30" y="615"/>
			<point x="0" y="615" type="curve" smooth="yes"/>
			<point x="-30" y="615"/>
			<point x="-54" y="640"/>
			<point x="-54" y="672" type="curve" smooth="yes"/>
			<point x="-54" y="703"/>
			<point x="-30" y="728"/>
			<point x="0" y="728" type="curve" smooth="yes"/>
			<point x="30" y="728"/>
			<point x="54" y="703"/>
		</contour>
	</outline>
	<anchor name="_top.LC" x="0" y="544"/>
</glyph>
<glyph name="hungarumlautcomb" format="2">
	<unicode hex="030B"/>
	<outline>
		<contour>
			<point x="101" y="761" type="line"/>
			<point x="13" y="761" type="line"/>
			<point x="-141" y="587" type="line"/>
			<point x="-74" y="587" type="line"/>
		</contour>
		<contour>
			<point x="277" y="761" type="line"/>
			<point x="189" y="761" type="line"/>
			<point x="35" y="587" type="line"/>
			<point x="102" y="587" type="line"/>
		</contour>
	</outline>
	<anchor name="_top.LC" x="0" y="544"/>
</glyph>
<glyph name="commaaboverightcomb" format="2">
	<unicode hex="0315"/>
	<outline>
		<contour>
			<point x="-1" y="523" type="line"/>
			<point x="29" y="563"/>
			<point x="56" y="626"/>
			<point x="56" y="670" type="curve" smooth="yes"/>
			<point x="56" y="706"/>
			<point x="33" y="731"/>
			<point x="1" y="731" type="curve" smooth="yes"/>
			<point x="-26" y="731"/>
			<point x="-48" y="708"/>
			<point x="-48" y="680" type="curve" smooth="yes"/>
			<point x="-48" y="651"/>
			<point x="-26" y="629"/>
			<point x="3" y="629" type="curve"/>
			<point x="-5" y="645" type="line"/>
			<point x="-3" y="613"/>
			<point x="-20" y="562"/>
			<point x="-48" y="523" type="curve"/>
		</contour>
	</outline>
	<anchor name="_top_right" x="0" y="540"/>
</glyph>
<glyph name="commabelowcomb" format="2">
	<unicode hex="0326"/>
	<outline>
		<contour>
			<point x="1" y="-270" type="line"/>
			<point x="27" y="-235"/>
			<point x="50" y="-183"/>
			<point x="50" y="-144" type="curve" smooth="yes"/>
			<point x="50" y="-113"/>
			<point x="29" y="-90"/>
			<point x="-1" y="-90" type="curve" smooth="yes"/>
			<point x="-27" y="-90"/>
			<point x="-48" y="-111"/>
			<point x="-48" y="-136" type="curve" smooth="yes"/>
			<point x="-48" y="-162"/>
			<point x="-24" y="-182"/>
			<point x="5" y="-182" type="curve"/>
			<point x="-12" y="-163" type="line"/>
			<point x="-10" y="-190"/>
			<point x="-27" y="-234"/>
			<point x="-51" y="-270" type="curve"/>
		</contour>
	</outline>
	<anchor name="_bottom.LC" x="0" y="-50"/>
</glyph>
<glyph name="cedillacomb" format="2">
	<unicode hex="0327"/>
	<outline>
		<contour>
			<point x="-122" y="-219" type="line"/>
			<point x="-99" y="-241"/>
			<point x="-65" y="-255"/>
			<point x="-27" y="-255" type="curve" smooth="yes"/>
			<point x="52" y="-255"/>
			<point x="95" y="-211"/>
			<point x="95" y="-154" type="curve" smooth="yes"/>
			<point x="95" y="-96"/>
			<point x="42" y="-54"/>
			<point x="-28" y="-54" type="curve"/>
			<point x="-2" y="-74" type="line"/>
			<point x="22" y="10" type="line"/>
			<point x="-31" y="10" type="line"/>
			<point x="-66" y="-113" type="line"/>
			<point x="-54" y="-109"/>
			<point x="-42" y="-108"/>
			<point x="-30" y="-108" type="curve" smooth="yes"/>
			<point x="8" y="-108"/>
			<point x="30" y="-128"/>
			<point x="30" y="-155" type="curve" smooth="yes"/>
			<point x="30" y="-183"/>
			<point x="8" y="-201"/>
			<point x="-23" y="-201" type="curve" smooth="yes"/>
			<point x="-50" y="-201"/>
			<point x="-76" y="-189"/>
			<point x="-91" y="-172" type="curve"/>
		</contour>
	</outline>
	<anchor name="_bottom.LC" x="0" y="-50"/>
</glyph>
<glyph name="Ieukrain" format="2">
	<unicode hex="0404"/>
	<advance width="739"/>
	<outline>
		<contour>
			<point x="414" y="-16" type="curve" smooth="yes"/>
			<point x="530" y="-16"/>
			<point x="634" y="34"/>
			<point x="698" y="120" type="curve"/>
			<point x="642" y="173" type="line"/>
			<point x="590" y="96"/>
			<point x="511" y="54"/>
			<point x="416" y="54" type="curve" smooth="yes"/>
			<point x="255" y="54"/>
			<point x="135" y="184"/>
			<point x="135" y="357" type="curve" smooth="yes"/>
			<point x="135" y="531"/>
			<point x="255" y="661"/>
			<point x="416" y="661" type="curve" smooth="yes"/>
			<point x="511" y="661"/>
			<point x="590" y="619"/>
			<point x="642" y="542" type="curve"/>
			<point x="698" y="595" type="line"/>
			<point x="634" y="682"/>
			<point x="532" y="731"/>
			<point x="416" y="731" type="curve" smooth="yes"/>
			<point x="210" y="731"/>
			<point x="55" y="570"/>
			<point x="55" y="357" type="curve" smooth="yes"/>
			<point x="55" y="143"/>
			<point x="208" y="-16"/>
		</contour>
		<contour>
			<point x="102" y="337" type="line"/>
			<point x="560" y="337" type="line"/>
			<point x="560" y="406" type="line"/>
			<point x="102" y="406" type="line"/>
		</contour>
	</outline>
	<anchor name="bottom.UC" x="416" y="-50"/>
	<anchor name="top.UC" x="416" y="750"/>
</glyph>
<glyph name="Nje" format="2">
	<unicode hex="040A"/>
	<advance width="1134"/>
	<outline>
		<contour>
			<point x="565" y="0" type="line"/>
			<point x="853" y="0" type="line" smooth="yes"/>
			<point x="995" y="0"/>
			<point x="1089" y="81"/>
			<point x="1089" y="203" type="curve" smooth="yes"/>
			<point x="1089" y="326"/>
			<point x="996" y="406"/>
			<point x="853" y="406" type="curve" smooth="yes"/>
			<point x="606" y="406" type="line"/>
			<point x="606" y="338" type="line"/>
			<point x="853" y="338" type="line" smooth="yes"/>
			<point x="951" y="338"/>
			<point x="1010" y="287"/>
			<point x="1010" y="203" type="curve" smooth="yes"/>
			<point x="1010" y="119"/>
			<point x="951" y="68"/>
			<point x="853" y="68" type="curve" smooth="yes"/>
			<point x="617" y="68" type="line"/>
			<point x="642" y="43" type="line"/>
			<point x="642" y="715" type="line"/>
			<point x="565" y="715" type="line"/>
		</contour>
		<contour>
			<point x="95" y="0" type="line"/>
			<point x="172" y="0" type="line"/>
			<point x="172" y="715" type="line"/>
			<point x="95" y="715" type="line"/>
		</contour>
		<contour>
			<point x="162" y="337" type="line"/>
			<point x="585" y="337" type="line"/>
			<point x="585" y="406" type="line"/>
			<point x="162" y="406" type="line"/>
		</contour>
	</outline>
	<anchor name="bottom.UC" x="381" y="-50"/>
	<anchor name="top.UC" x="381" y="750"/>
</glyph>
<glyph name="Tshe" format="2">
	<unicode hex="040B"/>
	<advance width="728"/>
	<outline>
		<contour>
			<point x="596" y="0" type="line"/>
			<point x="673" y="0" type="line"/>
			<point x="673" y="228" type="line" smooth="yes"/>
			<point x="673" y="364"/>
			<point x="585" y="439"/>
			<point x="428" y="439" type="curve" smooth="yes"/>
			<point x="329" y="439"/>
			<point x="246" y="414"/>
			<point x="184" y="367" type="curve"/>
			<point x="215" y="313" type="line"/>
			<point x="263" y="347"/>
			<point x="343" y="369"/>
			<point x="419" y="369" type="curve" smooth="yes"/>
			<point x="531" y="369"/>
			<point x="596" y="315"/>
			<point x="596" y="220" type="curve" smooth="yes"/>
		</contour>
		<contour>
			<point x="151" y="0" type="line"/>
			<point x="228" y="0" type="line"/>
			<point x="228" y="656" type="line"/>
			<point x="151" y="656" type="line"/>
		</contour>
		<contour>
			<point x="10" y="646" type="line"/>
			<point x="491" y="646" type="line"/>
			<point x="491" y="715" type="line"/>
			<point x="10" y="715" type="line"/>
		</contour>
	</outline>
</glyph>
<glyph name="Dzhe" format="2">
	<unicode hex="040F"/>
	<advance width="757"/>
	<outline>
		<contour>
			<point x="95" y="0" type="line"/>
			<point x="662" y="0" type="line"/>
			<point x="662" y="715" type="line"/>
			<point x="585" y="715" type="line"/>
			<point x="585" y="69" type="line"/>
			<point x="172" y="69" type="line"/>
			<point x="172" y="715" type="line"/>
			<point x="95" y="715" type="line"/>
		</contour>
		<contour>
			<point x="341" y="-174" type="line"/>
			<point x="416" y="-174" type="line"/>
			<point x="416" y="39" type="line"/>
			<point x="341" y="39" type="line"/>
		</contour>
	</outline>
</glyph>
<glyph name="Be" format="2">
	<unicode hex="0411"/>
	<advance width="663"/>
	<outline>
		<contour>
			<point x="95" y="0" type="line"/>
			<point x="383" y="0" type="line" smooth="yes"/>
			<point x="525" y="0"/>
			<point x="619" y="82"/>
			<point x="619" y="204" type="curve" smooth="yes"/>
			<point x="619" y="327"/>
			<point x="526" y="407"/>
			<point x="383" y="407" type="curve" smooth="yes"/>
			<point x="136" y="407" type="line"/>
			<point x="136" y="339" type="line"/>
			<point x="383" y="339" type="line" smooth="yes"/>
			<point x="481" y="339"/>
			<point x="540" y="289"/>
			<point x="540" y="204" type="curve" smooth="yes"/>
			<point x="540" y="119"/>
			<point x="481" y="68"/>
			<point x="383" y="68" type="curve" smooth="yes"/>
			<point x="160" y="68" type="line"/>
			<point x="172" y="56" type="line"/>
			<point x="172" y="715" type="line"/>
			<point x="95" y="715" type="line"/>
		</contour>
		<contour>
			<point x="150" y="646" type="line"/>
			<point x="563" y="646" type="line"/>
			<point x="563" y="715" type="line"/>
			<point x="150" y="715" type="line"/>
		</contour>
	</outline>
</glyph>
<glyph name="Ghe" format="2">
	<unicode hex="0413"/>
	<advance width="548"/>
	<outline>
		<contour>
			<point x="95" y="0" type="line"/>
			<point x="172" y="0" type="line"/>
			<point x="172" y="698" type="line"/>
			<point x="130" y="646" type="line"/>
			<point x="538" y="646" type="line"/>
			<point x="538" y="715" type="line"/>
			<point x="95" y="715" type="line"/>
		</contour>
	</outline>
	<anchor name="top.UC" x="321" y="750"/>
</glyph>
<glyph name="Ze" format="2">
	<unicode hex="0417"/>
	<advance width="637"/>
	<outline>
		<contour>
			<point x="308" y="-16" type="curve" smooth="yes"/>
			<point x="463" y="-16"/>
			<point x="583" y="79"/>
			<point x="583" y="202" type="curve" smooth="yes"/>
			<point x="583" y="284"/>
			<point x="532" y="348"/>
			<point x="444" y="378" type="curve"/>
			<point x="519" y="407"/>
			<point x="563" y="466"/>
			<point x="563" y="540" type="curve" smooth="yes"/>
			<point x="563" y="650"/>
			<point x="456" y="731"/>
			<point x="310" y="731" type="curve" smooth="yes"/>
			<point x="196" y="731"/>
			<point x="116" y="690"/>
			<point x="42" y="595" type="curve"/>
			<point x="96" y="546" type="line"/>
			<point x="161" y="630"/>
			<point x="218" y="661"/>
			<point x="309" y="661" type="curve" smooth="yes"/>
			<point x="413" y="661"/>
			<point x="484" y="610"/>
			<point x="484" y="535" type="curve" smooth="yes"/>
			<point x="484" y="459"/>
			<point x="419" y="407"/>
			<point x="324" y="407" type="curve" smooth="yes"/>
			<point x="173" y="407" type="line"/>
			<point x="173" y="339" type="line"/>
			<point x="324" y="339" type="line" smooth="yes"/>
			<point x="433" y="339"/>
			<point x="504" y="286"/>
			<point x="504" y="204" type="curve" smooth="yes"/>
			<point x="504" y="118"/>
			<point x="420" y="54"/>
			<point x="309" y="54" type="curve" smooth="yes"/>
			<point x="214" y="54"/>
			<point x="135" y="95"/>
			<point x="80" y="172" type="curve"/>
			<point x="25" y="120" type="line"/>
			<point x="93" y="33"/>
			<point x="195" y="-16"/>
		</contour>
	</outline>
</glyph>
<glyph name="Icyr" format="2">
	<unicode hex="0418"/>
	<advance width="762"/>
	<outline>
		<contour>
			<point x="95" y="0" type="line"/>
			<point x="178" y="0" type="line"/>
			<point x="630" y="661" type="line"/>
			<point x="590" y="661" type="line"/>
			<point x="590" y="0" type="line"/>
			<point x="667" y="0" type="line"/>
			<point x="667" y="715" type="line"/>
			<point x="581" y="715" type="line"/>
			<point x="127" y="49" type="line"/>
			<point x="172" y="49" type="line"/>
			<point x="172" y="715" type="line"/>
			<point x="95" y="715" type="line"/>
		</contour>
	</outline>
	<anchor name="top.UC" x="376" y="750"/>
</glyph>
<glyph name="El" format="2">
	<unicode hex="041B"/>
	<advance width="724"/>
	<outline>
		<contour>
			<point x="20" y="0" type="line"/>
			<point x="73" y="0" type="line" smooth="yes"/>
			<point x="149" y="0"/>
			<point x="189" y="35"/>
			<point x="198" y="108" type="curve" smooth="yes"/>
			<point x="272" y="697" type="line"/>
			<point x="224" y="646" type="line"/>
			<point x="605" y="646" type="line"/>
			<point x="552" y="697" type="line"/>
			<point x="552" y="0" type="line"/>
			<point x="629" y="0" type="line"/>
			<point x="629" y="715" type="line"/>
			<point x="198" y="715" type="line"/>
			<point x="124" y="122" type="line" smooth="yes"/>
			<point x="119" y="86"/>
			<point x="101" y="69"/>
			<point x="65" y="69" type="curve" smooth="yes"/>
			<point x="20" y="69" type="line"/>
		</contour>
	</outline>
</glyph>
<glyph name="Pe" format="2">
	<unicode hex="041F"/>
	<advance width="758"/>
	<outline>
		<contour>
			<point x="95" y="0" type="line"/>
			<point x="172" y="0" type="line"/>
			<point x="172" y="698" type="line"/>
			<point x="130" y="646" type="line"/>
			<point x="628" y="646" type="line"/>
			<point x="586" y="698" type="line"/>
			<point x="586" y="0" type="line"/>
			<point x="663" y="0" type="line"/>
			<point x="663" y="715" type="line"/>
			<point x="95" y="715" type="line"/>
		</contour>
	</outline>
</glyph>
<glyph name="Ef" format="2">
	<unicode hex="0424"/>
	<advance width="863"/>
	<outline>
		<contour>
			<point x="432" y="74" type="curve" smooth="yes"/>
			<point x="678" y="74"/>
			<point x="808" y="172"/>
			<point x="808" y="358" type="curve" smooth="yes"/>
			<point x="808" y="543"/>
			<point x="679" y="641"/>
			<point x="432" y="641" type="curve" smooth="yes"/>
			<point x="185" y="641"/>
			<point x="55" y="543"/>
			<point x="55" y="358" type="curve" smooth="yes"/>
			<point x="55" y="172"/>
			<point x="185" y="74"/>
		</contour>
		<contour>
			<point x="432" y="144" type="curve" smooth="yes"/>
			<point x="236" y="144"/>
			<point x="135" y="217"/>
			<point x="135" y="358" type="curve" smooth="yes"/>
			<point x="135" y="502"/>
			<point x="234" y="571"/>
			<point x="432" y="571" type="curve" smooth="yes"/>
			<point x="628" y="571"/>
			<point x="728" y="501"/>
			<point x="728" y="358" type="curve" smooth="yes"/>
			<point x="728" y="214"/>
			<point x="629" y="144"/>
		</contour>
		<contour>
			<point x="393" y="-30" type="line"/>
			<point x="470" y="-30" type="line"/>
			<point x="470" y="88" type="line"/>
			<point x="467" y="132" type="line"/>
			<point x="467" y="584" type="line"/>
			<point x="470" y="623" type="line"/>
			<point x="470" y="745" type="line"/>
			<point x="393" y="745" type="line"/>
			<point x="393" y="623" type="line"/>
			<point x="396" y="584" type="line"/>
			<point x="396" y="132" type="line"/>
			<point x="393" y="88" type="line"/>
		</contour>
	</outline>
</glyph>
<glyph name="Tse" format="2">
	<unicode hex="0426"/>
	<advance width="781"/>
	<outline>
		<contour>
			<point x="95" y="0" type="line"/>
			<point x="662" y="0" type="line"/>
			<point x="662" y="715" type="line"/>
			<point x="585" y="715" type="line"/>
			<point x="585" y="17" type="line"/>
			<point x="627" y="69" type="line"/>
			<point x="130" y="69" type="line"/>
			<point x="172" y="17" type="line"/>
			<point x="172" y="715" type="line"/>
			<point x="95" y="715" type="line"/>
		</contour>
		<contour>
			<point x="661" y="-174" type="line"/>
			<point x="736" y="-174" type="line"/>
			<point x="736" y="69" type="line"/>
			<point x="661" y="69" type="line"/>
		</contour>
	</outline>
</glyph>
<glyph name="Che" format="2">
	<unicode hex="0427"/>
	<advance width="672"/>
	<outline>
		<contour>
			<point x="303" y="268" type="curve" smooth="yes"/>
			<point x="399" y="268"/>
			<point x="482" y="298"/>
			<point x="544" y="355" type="curve"/>
			<point x="513" y="409" type="line"/>
			<point x="465" y="366"/>
			<point x="386" y="338"/>
			<point x="309" y="338" type="curve" smooth="yes"/>
			<point x="198" y="338"/>
			<point x="132" y="396"/>
			<point x="132" y="497" type="curve" smooth="yes"/>
			<point x="132" y="715" type="line"/>
			<point x="55" y="715" type="line"/>
			<point x="55" y="489" type="line" smooth="yes"/>
			<point x="55" y="348"/>
			<point x="145" y="268"/>
		</contour>
		<contour>
			<point x="500" y="0" type="line"/>
			<point x="577" y="0" type="line"/>
			<point x="577" y="715" type="line"/>
			<point x="500" y="715" type="line"/>
		</contour>
	</outline>
</glyph>
<glyph name="Sha" format="2">
	<unicode hex="0428"/>
	<advance width="1117"/>
	<outline>
		<contour>
			<point x="95" y="0" type="line"/>
			<point x="1022" y="0" type="line"/>
			<point x="1022" y="715" type="line"/>
			<point x="945" y="715" type="line"/>
			<point x="945" y="17" type="line"/>
			<point x="987" y="69" type="line"/>
			<point x="565" y="69" type="line"/>
			<point x="597" y="17" type="line"/>
			<point x="597" y="715" type="line"/>
			<point x="520" y="715" type="line"/>
			<point x="520" y="17" type="line"/>
			<point x="552" y="69" type="line"/>
			<point x="130" y="69" type="line"/>
			<point x="172" y="17" type="line"/>
			<point x="172" y="715" type="line"/>
			<point x="95" y="715" type="line"/>
		</contour>
	</outline>
</glyph>
<glyph name="Hard" format="2">
	<unicode hex="042A"/>
	<advance width="720"/>
	<outline>
		<contour>
			<point x="151" y="0" type="line"/>
			<point x="439" y="0" type="line" smooth="yes"/>
			<point x="581" y="0"/>
			<point x="675" y="83"/>
			<point x="675" y="207" type="curve" smooth="yes"/>
			<point x="675" y="333"/>
			<point x="582" y="414"/>
			<point x="439" y="414" type="curve" smooth="yes"/>
			<point x="202" y="414" type="line"/>
			<point x="202" y="345" type="line"/>
			<point x="439" y="345" type="line" smooth="yes"/>
			<point x="537" y="345"/>
			<point x="596" y="293"/>
			<point x="596" y="207" type="curve" smooth="yes"/>
			<point x="596" y="121"/>
			<point x="537" y="69"/>
			<point x="439" y="69" type="curve" smooth="yes"/>
			<point x="216" y="69" type="line"/>
			<point x="228" y="57" type="line"/>
			<point x="228" y="715" type="line"/>
			<point x="10" y="715" type="line"/>
			<point x="10" y="646" type="line"/>
			<point x="163" y="646" type="line"/>
			<point x="151" y="658" type="line"/>
		</contour>
	</outline>
</glyph>
<glyph name="Soft" format="2">
	<unicode hex="042C"/>
	<advance width="664"/>
	<outline>
		<contour>
			<point x="95" y="0" type="line"/>
			<point x="383" y="0" type="line" smooth="yes"/>
			<point x="525" y="0"/>
			<point x="619" y="83"/>
			<point x="619" y="207" type="curve" smooth="yes"/>
			<point x="619" y="333"/>
			<point x="526" y="414"/>
			<point x="383" y="414" type="curve" smooth="yes"/>
			<point x="136" y="414" type="line"/>
			<point x="136" y="345" type="line"/>
			<point x="383" y="345" type="line" smooth="yes"/>
			<point x="481" y="345"/>
			<point x="540" y="293"/>
			<point x="540" y="207" type="curve" smooth="yes"/>
			<point x="540" y="121"/>
			<point x="481" y="69"/>
			<point x="383" y="69" type="curve" smooth="yes"/>
			<point x="160" y="69" type="line"/>
			<point x="172" y="56" type="line"/>
			<point x="172" y="715" type="line"/>
			<point x="95" y="715" type="line"/>
		</contour>
	</outline>
</glyph>
<glyph name="Ecyr" format="2">
	<unicode hex="042D"/>
	<advance width="738"/>
	<outline>
		<contour>
			<point x="335" y="-16" type="curve" smooth="yes"/>
			<point x="542" y="-16"/>
			<point x="683" y="137"/>
			<point x="683" y="357" type="curve" smooth="yes"/>
			<point x="683" y="577"/>
			<point x="532" y="731"/>
			<point x="331" y="731" type="curve" smooth="yes"/>
			<point x="210" y="731"/>
			<point x="109" y="679"/>
			<point x="41" y="595" type="curve"/>
			<point x="96" y="544" type="line"/>
			<point x="154" y="614"/>
			<point x="231" y="661"/>
			<point x="330" y="661" type="curve" smooth="yes"/>
			<point x="489" y="661"/>
			<point x="603" y="538"/>
			<point x="603" y="357" type="curve" smooth="yes"/>
			<point x="603" y="176"/>
			<point x="494" y="54"/>
			<point x="332" y="54" type="curve" smooth="yes"/>
			<point x="231" y="54"/>
			<point x="145" y="100"/>
			<point x="92" y="169" type="curve"/>
			<point x="40" y="120" type="line"/>
			<point x="102" y="36"/>
			<point x="214" y="-16"/>
		</contour>
		<contour>
			<point x="185" y="337" type="line"/>
			<point x="635" y="337" type="line"/>
			<point x="635" y="406" type="line"/>
			<point x="185" y="406" type="line"/>
		</contour>
	</outline>
</glyph>
<glyph name="Yu" format="2">
	<unicode hex="042E"/>
	<advance width="1075"/>
	<outline>
		<contour>
			<point x="663" y="-16" type="curve" smooth="yes"/>
			<point x="868" y="-16"/>
			<point x="1020" y="144"/>
			<point x="1020" y="358" type="curve" smooth="yes"/>
			<point x="1020" y="571"/>
			<point x="868" y="731"/>
			<point x="663" y="731" type="curve" smooth="yes"/>
			<point x="458" y="731"/>
			<point x="305" y="571"/>
			<point x="305" y="358" type="curve" smooth="yes"/>
			<point x="305" y="144"/>
			<point x="458" y="-16"/>
		</contour>
		<contour>
			<point x="95" y="0" type="line"/>
			<point x="172" y="0" type="line"/>
			<point x="172" y="715" type="line"/>
			<point x="95" y="715" type="line"/>
		</contour>
		<contour>
			<point x="162" y="337" type="line"/>
			<point x="352" y="337" type="line"/>
			<point x="352" y="406" type="line"/>
			<point x="162" y="406" type="line"/>
		</contour>
		<contour>
			<point x="663" y="54" type="curve" smooth="yes"/>
			<point x="500" y="54"/>
			<point x="385" y="181"/>
			<point x="385" y="358" type="curve" smooth="yes"/>
			<point x="385" y="534"/>
			<point x="500" y="661"/>
			<point x="663" y="661" type="curve" smooth="yes"/>
			<point x="826" y="661"/>
			<point x="940" y="534"/>
			<point x="940" y="358" type="curve" smooth="yes"/>
			<point x="940" y="181"/>
			<point x="826" y="54"/>
		</contour>
	</outline>
</glyph>
<glyph name="Ya" format="2">
	<unicode hex="042F"/>
	<advance width="682"/>
	<outline>
		<contour>
			<point x="510" y="0" type="line"/>
			<point x="587" y="0" type="line"/>
			<point x="587" y="715" type="line"/>
			<point x="310" y="715" type="line" smooth="yes"/>
			<point x="169" y="715"/>
			<point x="75" y="635"/>
			<point x="75" y="515" type="curve" smooth="yes"/>
			<point x="75" y="395"/>
			<point x="169" y="315"/>
			<point x="310" y="315" type="curve" smooth="yes"/>
			<point x="520" y="315" type="line"/>
			<point x="520" y="383" type="line"/>
			<point x="310" y="383" type="line" smooth="yes"/>
			<point x="213" y="383"/>
			<point x="154" y="432"/>
			<point x="154" y="515" type="curve" smooth="yes"/>
			<point x="154" y="598"/>
			<point x="213" y="647"/>
			<point x="310" y="647" type="curve" smooth="yes"/>
			<point x="510" y="647" type="line"/>
		</contour>
		<contour>
			<point x="35" y="0" type="line"/>
			<point x="128" y="0" type="line"/>
			<point x="365" y="333" type="line"/>
			<point x="279" y="333" type="line"/>
		</contour>
	</outline>
</glyph>
<glyph name="be" format="2">
	<unicode hex="0431"/>
	<advance width="593"/>
	<outline>
		<contour>
			<point x="300" y="-16" type="curve" smooth="yes"/>
			<point x="450" y="-16"/>
			<point x="546" y="83"/>
			<point x="546" y="238" type="curve" smooth="yes"/>
			<point x="546" y="376"/>
			<point x="466" y="482"/>
			<point x="321" y="482" type="curve" smooth="yes"/>
			<point x="216" y="482"/>
			<point x="115" y="415"/>
			<point x="103" y="305" type="curve"/>
			<point x="116" y="335" type="line"/>
			<point x="121" y="525"/>
			<point x="162" y="594"/>
			<point x="279" y="615" type="curve" smooth="yes"/>
			<point x="499" y="654" type="line"/>
			<point x="486" y="719" type="line"/>
			<point x="266" y="682" type="line" smooth="yes"/>
			<point x="114" y="656"/>
			<point x="47" y="551"/>
			<point x="47" y="334" type="curve" smooth="yes"/>
			<point x="47" y="106"/>
			<point x="135" y="-16"/>
		</contour>
		<contour>
			<point x="299" y="50" type="curve" smooth="yes"/>
			<point x="179" y="50"/>
			<point x="123" y="132"/>
			<point x="127" y="302" type="curve"/>
			<point x="124" y="242" type="line"/>
			<point x="142" y="345"/>
			<point x="219" y="418"/>
			<point x="309" y="418" type="curve" smooth="yes"/>
			<point x="409" y="418"/>
			<point x="469" y="351"/>
			<point x="469" y="238" type="curve" smooth="yes"/>
			<point x="469" y="122"/>
			<point x="404" y="50"/>
		</contour>
	</outline>
</glyph>
<glyph name="ghe" format="2">
	<unicode hex="0433"/>
	<advance width="453"/>
	<outline>
		<contour>
			<point x="80" y="0" type="line"/>
			<point x="154" y="0" type="line"/>
			<point x="154" y="477" type="line"/>
			<point x="92" y="429" type="line"/>
			<point x="423" y="429" type="line"/>
			<point x="423" y="492" type="line"/>
			<point x="80" y="492" type="line"/>
		</contour>
	</outline>
	<anchor name="top.LC" x="253" y="544"/>
</glyph>
<glyph name="de" format="2">
	<unicode hex="0434"/>
	<advance width="599"/>
	<outline>
		<contour>
			<point x="40" y="20" type="line"/>
			<point x="70" y="20" type="line" smooth="yes"/>
			<point x="151" y="20"/>
			<point x="177" y="56"/>
			<point x="190" y="158" type="curve" smooth="yes"/>
			<point x="230" y="477" type="line"/>
			<point x="170" y="429" type="line"/>
			<point x="477" y="429" type="line"/>
			<point x="425" y="477" type="line"/>
			<point x="425" y="30" type="line"/>
			<point x="499" y="30" type="line"/>
			<point x="499" y="492" type="line"/>
			<point x="159" y="492" type="line"/>
			<point x="120" y="164" type="line" smooth="yes"/>
			<point x="111" y="88"/>
			<point x="100" y="63"/>
			<point x="60" y="63" type="curve" smooth="yes"/>
			<point x="40" y="63" type="line"/>
		</contour>
		<contour>
			<point x="20" y="-128" type="line"/>
			<point x="90" y="-128" type="line"/>
			<point x="90" y="53" type="line"/>
			<point x="61" y="0" type="line"/>
			<point x="551" y="0" type="line"/>
			<point x="499" y="53" type="line"/>
			<point x="499" y="-128" type="line"/>
			<point x="569" y="-128" type="line"/>
			<point x="569" y="63" type="line"/>
			<point x="20" y="63" type="line"/>
		</contour>
	</outline>
</glyph>
<glyph name="zhe" format="2">
	<unicode hex="0436"/>
	<advance width="759"/>
	<outline>
		<contour>
			<point x="645" y="0" type="line"/>
			<point x="745" y="0" type="line"/>
			<point x="492" y="251" type="line"/>
			<point x="731" y="492" type="line"/>
			<point x="636" y="492" type="line"/>
			<point x="400" y="255" type="line"/>
			<point x="390" y="255" type="line"/>
		</contour>
		<contour>
			<point x="14" y="0" type="line"/>
			<point x="115" y="0" type="line"/>
			<point x="369" y="255" type="line"/>
			<point x="359" y="255" type="line"/>
			<point x="123" y="492" type="line"/>
			<point x="29" y="492" type="line"/>
			<point x="267" y="251" type="line"/>
		</contour>
		<contour>
			<point x="342" y="0" type="line"/>
			<point x="416" y="0" type="line"/>
			<point x="416" y="492" type="line"/>
			<point x="342" y="492" type="line"/>
		</contour>
	</outline>
</glyph>
<glyph name="ze" format="2">
	<unicode hex="0437"/>
	<advance width="489"/>
	<outline>
		<contour>
			<point x="238" y="-17" type="curve" smooth="yes"/>
			<point x="362" y="-17"/>
			<point x="457" y="50"/>
			<point x="457" y="138" type="curve" smooth="yes"/>
			<point x="457" y="200"/>
			<point x="416" y="245"/>
			<point x="344" y="263" type="curve"/>
			<point x="345" y="255" type="line"/>
			<point x="406" y="272"/>
			<point x="441" y="313"/>
			<point x="441" y="368" type="curve" smooth="yes"/>
			<point x="441" y="449"/>
			<point x="355" y="508"/>
			<point x="236" y="508" type="curve" smooth="yes"/>
			<point x="152" y="508"/>
			<point x="83" y="479"/>
			<point x="30" y="422" type="curve"/>
			<point x="79" y="373" type="line"/>
			<point x="122" y="421"/>
			<point x="172" y="443"/>
			<point x="236" y="443" type="curve" smooth="yes"/>
			<point x="315" y="443"/>
			<point x="366" y="411"/>
			<point x="366" y="360" type="curve" smooth="yes"/>
			<point x="366" y="312"/>
			<point x="325" y="286"/>
			<point x="251" y="286" type="curve" smooth="yes"/>
			<point x="147" y="286" type="line"/>
			<point x="147" y="223" type="line"/>
			<point x="249" y="223" type="line" smooth="yes"/>
			<point x="338" y="223"/>
			<point x="382" y="197"/>
			<point x="382" y="144" type="curve" smooth="yes"/>
			<point x="382" y="87"/>
			<point x="324" y="49"/>
			<point x="236" y="49" type="curve" smooth="yes"/>
			<point x="169" y="49"/>
			<point x="112" y="72"/>
			<point x="67" y="117" type="curve"/>
			<point x="20" y="70" type="line"/>
			<point x="71" y="13"/>
			<point x="156" y="-17"/>
		</contour>
	</outline>
</glyph>
<glyph name="icyr" format="2">
	<unicode hex="0438"/>
	<advance width="610"/>
	<outline>
		<contour>
			<point x="80" y="0" type="line"/>
			<point x="144" y="0" type="line"/>
			<point x="464" y="390" type="line"/>
			<point x="456" y="393" type="line"/>
			<point x="456" y="0" type="line"/>
			<point x="530" y="0" type="line"/>
			<point x="530" y="492" type="line"/>
			<point x="466" y="492" type="line"/>
			<point x="146" y="102" type="line"/>
			<point x="154" y="99" type="line"/>
			<point x="154" y="492" type="line"/>
			<point x="80" y="492" type="line"/>
		</contour>
	</outline>
	<anchor name="top.LC" x="310" y="544"/>
</glyph>
<glyph name="ka" format="2">
	<unicode hex="043A"/>
	<advance width="536"/>
	<outline>
		<contour>
			<point x="414" y="0" type="line"/>
			<point x="522" y="0" type="line"/>
			<point x="201" y="282" type="line"/>
			<point x="226" y="246" type="line"/>
			<point x="497" y="492" type="line"/>
			<point x="396" y="492" type="line"/>
			<point x="138" y="255" type="line"/>
			<point x="128" y="255" type="line"/>
		</contour>
		<contour>
			<point x="80" y="0" type="line"/>
			<point x="154" y="0" type="line"/>
			<point x="154" y="492" type="line"/>
			<point x="80" y="492" type="line"/>
		</contour>
	</outline>
	<anchor name="top.LC" x="287" y="544"/>
</glyph>
<glyph name="el" format="2">
	<unicode hex="043B"/>
	<advance width="579"/>
	<outline>
		<contour>
			<point x="20" y="0" type="line"/>
			<point x="70" y="0" type="line" smooth="yes"/>
			<point x="145" y="0"/>
			<point x="181" y="32"/>
			<point x="189" y="120" type="curve" smooth="yes"/>
			<point x="222" y="477" type="line"/>
			<point x="165" y="429" type="line"/>
			<point x="477" y="429" type="line"/>
			<point x="425" y="477" type="line"/>
			<point x="425" y="0" type="line"/>
			<point x="499" y="0" type="line"/>
			<point x="499" y="492" type="line"/>
			<point x="149" y="492" type="line"/>
			<point x="118" y="132" type="line" smooth="yes"/>
			<point x="114" y="80"/>
			<point x="96" y="64"/>
			<point x="60" y="64" type="curve" smooth="yes"/>
			<point x="20" y="64" type="line"/>
		</contour>
	</outline>
</glyph>
<glyph name="em" format="2">
	<unicode hex="043C"/>
	<advance width="728"/>
	<outline>
		<contour>
			<point x="80" y="0" type="line"/>
			<point x="151" y="0" type="line"/>
			<point x="151" y="467" type="line"/>
			<point x="104" y="467" type="line"/>
			<point x="328" y="45" type="line"/>
			<point x="391" y="45" type="line"/>
			<point x="617" y="467" type="line"/>
			<point x="575" y="467" type="line"/>
			<point x="575" y="0" type="line"/>
			<point x="648" y="0" type="line"/>
			<point x="648" y="492" type="line"/>
			<point x="558" y="492" type="line"/>
			<point x="354" y="112" type="line"/>
			<point x="370" y="112" type="line"/>
			<point x="166" y="492" type="line"/>
			<point x="80" y="492" type="line"/>
		</contour>
	</outline>
</glyph>
<glyph name="en" format="2">
	<unicode hex="043D"/>
	<advance width="614"/>
	<outline>
		<contour>
			<point x="460" y="0" type="line"/>
			<point x="534" y="0" type="line"/>
			<point x="534" y="492" type="line"/>
			<point x="460" y="492" type="line"/>
		</contour>
		<contour>
			<point x="80" y="0" type="line"/>
			<point x="154" y="0" type="line"/>
			<point x="154" y="492" type="line"/>
			<point x="80" y="492" type="line"/>
		</contour>
		<contour>
			<point x="116" y="227" type="line"/>
			<point x="501" y="227" type="line"/>
			<point x="501" y="290" type="line"/>
			<point x="116" y="290" type="line"/>
		</contour>
	</outline>
</glyph>
<glyph name="pe" format="2">
	<unicode hex="043F"/>
	<advance width="595"/>
	<outline>
		<contour>
			<point x="80" y="0" type="line"/>
			<point x="154" y="0" type="line"/>
			<point x="154" y="477" type="line"/>
			<point x="92" y="429" type="line"/>
			<point x="493" y="429" type="line"/>
			<point x="441" y="477" type="line"/>
			<point x="441" y="0" type="line"/>
			<point x="515" y="0" type="line"/>
			<point x="515" y="492" type="line"/>
			<point x="80" y="492" type="line"/>
		</contour>
	</outline>
</glyph>
<glyph name="te" format="2">
	<unicode hex="0442"/>
	<advance width="489"/>
	<outline>
		<contour>
			<point x="208" y="0" type="line"/>
			<point x="282" y="0" type="line"/>
			<point x="282" y="471" type="line"/>
			<point x="208" y="471" type="line"/>
		</contour>
		<contour>
			<point x="25" y="429" type="line"/>
			<point x="464" y="429" type="line"/>
			<point x="464" y="492" type="line"/>
			<point x="25" y="492" type="line"/>
		</contour>
	</outline>
</glyph>
<glyph name="tse" format="2">
	<unicode hex="0446"/>
	<advance width="600"/>
	<outline>
		<contour>
			<point x="80" y="0" type="line"/>
			<point x="505" y="0" type="line"/>
			<point x="505" y="492" type="line"/>
			<point x="431" y="492" type="line"/>
			<point x="431" y="15" type="line"/>
			<point x="483" y="63" type="line"/>
			<point x="92" y="63" type="line"/>
			<point x="154" y="15" type="line"/>
			<point x="154" y="492" type="line"/>
			<point x="80" y="492" type="line"/>
		</contour>
		<contour>
			<point x="500" y="-128" type="line"/>
			<point x="570" y="-128" type="line"/>
			<point x="570" y="63" type="line"/>
			<point x="500" y="63" type="line"/>
		</contour>
	</outline>
</glyph>
<glyph name="che" format="2">
	<unicode hex="0447"/>
	<advance width="558"/>
	<outline>
		<contour>
			<point x="242" y="167" type="curve" smooth="yes"/>
			<point x="312" y="167"/>
			<point x="379" y="191"/>
			<point x="435" y="237" type="curve"/>
			<point x="409" y="286" type="line"/>
			<point x="355" y="249"/>
			<point x="303" y="231"/>
			<point x="253" y="231" type="curve" smooth="yes"/>
			<point x="169" y="231"/>
			<point x="121" y="262"/>
			<point x="121" y="364" type="curve" smooth="yes"/>
			<point x="121" y="492" type="line"/>
			<point x="47" y="492" type="line"/>
			<point x="47" y="356" type="line" smooth="yes"/>
			<point x="47" y="233"/>
			<point x="115" y="167"/>
		</contour>
		<contour>
			<point x="404" y="0" type="line"/>
			<point x="478" y="0" type="line"/>
			<point x="478" y="492" type="line"/>
			<point x="404" y="492" type="line"/>
		</contour>
	</outline>
</glyph>
<glyph name="sha" format="2">
	<unicode hex="0448"/>
	<advance width="836"/>
	<outline>
		<contour>
			<point x="80" y="0" type="line"/>
			<point x="756" y="0" type="line"/>
			<point x="756" y="492" type="line"/>
			<point x="682" y="492" type="line"/>
			<point x="682" y="21" type="line"/>
			<point x="694" y="63" type="line"/>
			<point x="443" y="63" type="line"/>
			<point x="455" y="21" type="line"/>
			<point x="455" y="492" type="line"/>
			<point x="381" y="492" type="line"/>
			<point x="381" y="21" type="line"/>
			<point x="393" y="63" type="line"/>
			<point x="142" y="63" type="line"/>
			<point x="154" y="21" type="line"/>
			<point x="154" y="492" type="line"/>
			<point x="80" y="492" type="line"/>
		</contour>
	</outline>
</glyph>
<glyph name="hard" format="2">
	<unicode hex="044A"/>
	<advance width="570"/>
	<outline>
		<contour>
			<point x="127" y="0" type="line"/>
			<point x="362" y="0" type="line" smooth="yes"/>
			<point x="465" y="0"/>
			<point x="544" y="67"/>
			<point x="544" y="155" type="curve" smooth="yes"/>
			<point x="544" y="246"/>
			<point x="470" y="308"/>
			<point x="362" y="308" type="curve" smooth="yes"/>
			<point x="170" y="308" type="line"/>
			<point x="170" y="245" type="line"/>
			<point x="362" y="245" type="line" smooth="yes"/>
			<point x="428" y="245"/>
			<point x="467" y="211"/>
			<point x="467" y="155" type="curve" smooth="yes"/>
			<point x="467" y="97"/>
			<point x="428" y="63"/>
			<point x="362" y="63" type="curve" smooth="yes"/>
			<point x="159" y="63" type="line"/>
			<point x="201" y="11" type="line"/>
			<point x="201" y="492" type="line"/>
			<point x="30" y="492" type="line"/>
			<point x="30" y="429" type="line"/>
			<point x="169" y="429" type="line"/>
			<point x="127" y="481" type="line"/>
		</contour>
	</outline>
</glyph>
<glyph name="yeru" format="2">
	<unicode hex="044B"/>
	<advance width="717"/>
	<outline>
		<contour>
			<point x="80" y="0" type="line"/>
			<point x="315" y="0" type="line" smooth="yes"/>
			<point x="418" y="0"/>
			<point x="497" y="67"/>
			<point x="497" y="155" type="curve" smooth="yes"/>
			<point x="497" y="246"/>
			<point x="423" y="308"/>
			<point x="315" y="308" type="curve" smooth="yes"/>
			<point x="113" y="308" type="line"/>
			<point x="113" y="245" type="line"/>
			<point x="315" y="245" type="line" smooth="yes"/>
			<point x="381" y="245"/>
			<point x="420" y="211"/>
			<point x="420" y="155" type="curve" smooth="yes"/>
			<point x="420" y="97"/>
			<point x="381" y="63"/>
			<point x="315" y="63" type="curve" smooth="yes"/>
			<point x="108" y="63" type="line"/>
			<point x="154" y="12" type="line"/>
			<point x="154" y="492" type="line"/>
			<point x="80" y="492" type="line"/>
		</contour>
		<contour>
			<point x="563" y="0" type="line"/>
			<point x="637" y="0" type="line"/>
			<point x="637" y="492" type="line"/>
			<point x="563" y="492" type="line"/>
		</contour>
	</outline>
	<anchor name="top.LC" x="605" y="544"/>
</glyph>
<glyph name="soft" format="2">
	<unicode hex="044C"/>
	<advance width="523"/>
	<outline>
		<contour>
			<point x="80" y="0" type="line"/>
			<point x="315" y="0" type="line" smooth="yes"/>
			<point x="418" y="0"/>
			<point x="497" y="67"/>
			<point x="497" y="155" type="curve" smooth="yes"/>
			<point x="497" y="246"/>
			<point x="423" y="308"/>
			<point x="315" y="308" type="curve" smooth="yes"/>
			<point x="113" y="308" type="line"/>
			<point x="113" y="245" type="line"/>
			<point x="315" y="245" type="line" smooth="yes"/>
			<point x="381" y="245"/>
			<point x="420" y="211"/>
			<point x="420" y="155" type="curve" smooth="yes"/>
			<point x="420" y="97"/>
			<point x="381" y="63"/>
			<point x="315" y="63" type="curve" smooth="yes"/>
			<point x="108" y="63" type="line"/>
			<point x="154" y="12" type="line"/>
			<point x="154" y="492" type="line"/>
			<point x="80" y="492" type="line"/>
		</contour>
	</outline>
</glyph>
<glyph name="ecyr" format="2">
	<unicode hex="044D"/>
	<advance width="548"/>
	<outline>
		<contour>
			<point x="240" y="-16" type="curve" smooth="yes"/>
			<point x="394" y="-16"/>
			<point x="501" y="91"/>
			<point x="501" y="246" type="curve" smooth="yes"/>
			<point x="501" y="405"/>
			<point x="394" y="508"/>
			<point x="241" y="508" type="curve" smooth="yes"/>
			<point x="151" y="508"/>
			<point x="81" y="472"/>
			<point x="35" y="413" type="curve"/>
			<point x="88" y="364" type="line"/>
			<point x="120" y="412"/>
			<point x="170" y="443"/>
			<point x="241" y="443" type="curve" smooth="yes"/>
			<point x="352" y="443"/>
			<point x="423" y="369"/>
			<point x="423" y="247" type="curve" smooth="yes"/>
			<point x="423" y="127"/>
			<point x="351" y="49"/>
			<point x="239" y="49" type="curve" smooth="yes"/>
			<point x="168" y="49"/>
			<point x="117" y="80"/>
			<point x="85" y="128" type="curve"/>
			<point x="32" y="79" type="line"/>
			<point x="78" y="20"/>
			<point x="151" y="-16"/>
		</contour>
		<contour>
			<point x="136" y="222" type="line"/>
			<point x="454" y="222" type="line"/>
			<point x="454" y="285" type="line"/>
			<point x="136" y="285" type="line"/>
		</contour>
	</outline>
</glyph>
<glyph name="ya" format="2">
	<unicode hex="044F"/>
	<advance width="555"/>
	<outline>
		<contour>
			<point x="401" y="0" type="line"/>
			<point x="475" y="0" type="line"/>
			<point x="475" y="492" type="line"/>
			<point x="253" y="492" type="line" smooth="yes"/>
			<point x="150" y="492"/>
			<point x="71" y="427"/>
			<point x="71" y="343" type="curve" smooth="yes"/>
			<point x="71" y="254"/>
			<point x="143" y="194"/>
			<point x="253" y="194" type="curve" smooth="yes"/>
			<point x="442" y="194" type="line"/>
			<point x="442" y="257" type="line"/>
			<point x="253" y="257" type="line" smooth="yes"/>
			<point x="186" y="257"/>
			<point x="148" y="289"/>
			<point x="148" y="343" type="curve" smooth="yes"/>
			<point x="148" y="406"/>
			<point x="197" y="429"/>
			<point x="253" y="429" type="curve" smooth="yes"/>
			<point x="447" y="429" type="line"/>
			<point x="401" y="480" type="line"/>
		</contour>
		<contour>
			<point x="50" y="0" type="line"/>
			<point x="140" y="0" type="line"/>
			<point x="314" y="230" type="line"/>
			<point x="230" y="230" type="line"/>
		</contour>
	</outline>
</glyph>
<glyph name="dje" format="2">
	<unicode hex="0452"/>
	<advance width="610"/>
	<outline>
		<contour>
			<point x="346" y="-210" type="line"/>
			<point x="483" y="-134"/>
			<point x="554" y="-4"/>
			<point x="554" y="191" type="curve" smooth="yes"/>
			<point x="554" y="394"/>
			<point x="489" y="501"/>
			<point x="355" y="501" type="curve" smooth="yes"/>
			<point x="248" y="501"/>
			<point x="177" y="442"/>
			<point x="157" y="336" type="curve"/>
			<point x="170" y="336" type="line"/>
			<point x="170" y="720" type="line"/>
			<point x="96" y="720" type="line"/>
			<point x="96" y="0" type="line"/>
			<point x="170" y="0" type="line"/>
			<point x="170" y="214" type="line" smooth="yes"/>
			<point x="170" y="349"/>
			<point x="236" y="436"/>
			<point x="340" y="436" type="curve" smooth="yes"/>
			<point x="435" y="436"/>
			<point x="480" y="350"/>
			<point x="480" y="188" type="curve" smooth="yes"/>
			<point x="480" y="18"/>
			<point x="420" y="-90"/>
			<point x="306" y="-146" type="curve"/>
		</contour>
		<contour>
			<point x="15" y="573" type="line"/>
			<point x="370" y="573" type="line"/>
			<point x="370" y="636" type="line"/>
			<point x="15" y="636" type="line"/>
		</contour>
	</outline>
</glyph>
<glyph name="lje" format="2">
	<unicode hex="0459"/>
	<advance width="843"/>
	<outline>
		<contour>
			<point x="20" y="0" type="line"/>
			<point x="70" y="0" type="line" smooth="yes"/>
			<point x="145" y="0"/>
			<point x="181" y="32"/>
			<point x="189" y="120" type="curve"/>
			<point x="219" y="441" type="line"/>
			<point x="206" y="429" type="line"/>
			<point x="427" y="429" type="line"/>
			<point x="415" y="441" type="line"/>
			<point x="415" y="0" type="line"/>
			<point x="635" y="0" type="line" smooth="yes"/>
			<point x="738" y="0"/>
			<point x="817" y="67"/>
			<point x="817" y="155" type="curve" smooth="yes"/>
			<point x="817" y="246"/>
			<point x="743" y="308"/>
			<point x="635" y="308" type="curve" smooth="yes"/>
			<point x="474" y="308" type="line"/>
			<point x="474" y="245" type="line"/>
			<point x="635" y="245" type="line" smooth="yes"/>
			<point x="701" y="245"/>
			<point x="740" y="211"/>
			<point x="740" y="155" type="curve" smooth="yes"/>
			<point x="740" y="97"/>
			<point x="701" y="63"/>
			<point x="635" y="63" type="curve" smooth="yes"/>
			<point x="477" y="63" type="line"/>
			<point x="489" y="51" type="line"/>
			<point x="489" y="492" type="line"/>
			<point x="149" y="492" type="line"/>
			<point x="118" y="132" type="line" smooth="yes"/>
			<point x="114" y="80"/>
			<point x="96" y="64"/>
			<point x="60" y="64" type="curve" smooth="yes"/>
			<point x="20" y="64" type="line"/>
		</contour>
	</outline>
</glyph>
<glyph name="tshe" format="2">
	<unicode hex="045B"/>
	<advance width="610"/>
	<outline>
		<contour>
			<point x="96" y="0" type="line"/>
			<point x="170" y="0" type="line"/>
			<point x="170" y="214" type="line" smooth="yes"/>
			<point x="170" y="370"/>
			<point x="252" y="436"/>
			<point x="340" y="436" type="curve" smooth="yes"/>
			<point x="421" y="436"/>
			<point x="473" y="382"/>
			<point x="473" y="277" type="curve" smooth="yes"/>
			<point x="473" y="0" type="line"/>
			<point x="547" y="0" type="line"/>
			<point x="547" y="285" type="line" smooth="yes"/>
			<point x="547" y="425"/>
			<point x="473" y="501"/>
			<point x="353" y="501" type="curve" smooth="yes"/>
			<point x="263" y="501"/>
			<point x="180" y="457"/>
			<point x="157" y="336" type="curve"/>
			<point x="170" y="336" type="line"/>
			<point x="170" y="720" type="line"/>
			<point x="96" y="720" type="line"/>
		</contour>
		<contour>
			<point x="15" y="573" type="line"/>
			<point x="370" y="573" type="line"/>
			<point x="370" y="636" type="line"/>
			<point x="15" y="636" type="line"/>
		</contour>
	</outline>
</glyph>
<glyph name="dzhe" format="2">
	<unicode hex="045F"/>
	<advance width="575"/>
	<outline>
		<contour>
			<point x="70" y="0" type="line"/>
			<point x="495" y="0" type="line"/>
			<point x="495" y="492" type="line"/>
			<point x="421" y="492" type="line"/>
			<point x="421" y="63" type="line"/>
			<point x="144" y="63" type="line"/>
			<point x="144" y="492" type="line"/>
			<point x="70" y="492" type="line"/>
		</contour>
		<contour>
			<point x="247" y="-128" type="line"/>
			<point x="317" y="-128" type="line"/>
			<point x="317" y="43" type="line"/>
			<point x="247" y="43" type="line"/>
		</contour>
	</outline>
</glyph>
<glyph name="Yat" format="2">
	<unicode hex="0462"/>
	<advance width="699"/>
	<outline>
		<contour>
			<point x="130" y="0" type="line"/>
			<point x="418" y="0" type="line" smooth="yes"/>
			<point x="560" y="0"/>
			<point x="654" y="83"/>
			<point x="654" y="207" type="curve" smooth="yes"/>
			<point x="654" y="333"/>
			<point x="561" y="414"/>
			<point x="418" y="414" type="curve" smooth="yes"/>
			<point x="171" y="414" type="line"/>
			<point x="171" y="345" type="line"/>
			<point x="418" y="345" type="line" smooth="yes"/>
			<point x="516" y="345"/>
			<point x="575" y="293"/>
			<point x="575" y="207" type="curve" smooth="yes"/>
			<point x="575" y="121"/>
			<point x="516" y="69"/>
			<point x="418" y="69" type="curve" smooth="yes"/>
			<point x="195" y="69" type="line"/>
			<point x="207" y="56" type="line"/>
			<point x="207" y="715" type="line"/>
			<point x="130" y="715" type="line"/>
		</contour>
		<contour>
			<point x="10" y="562" type="line"/>
			<point x="498" y="562" type="line"/>
			<point x="498" y="631" type="line"/>
			<point x="10" y="631" type="line"/>
		</contour>
	</outline>
</glyph>
<glyph name="yat" format="2">
	<unicode hex="0463"/>
	<advance width="560"/>
	<outline>
		<contour>
			<point x="117" y="0" type="line"/>
			<point x="352" y="0" type="line" smooth="yes"/>
			<point x="455" y="0"/>
			<point x="534" y="67"/>
			<point x="534" y="155" type="curve" smooth="yes"/>
			<point x="534" y="246"/>
			<point x="460" y="308"/>
			<point x="352" y="308" type="curve" smooth="yes"/>
			<point x="150" y="308" type="line"/>
			<point x="150" y="245" type="line"/>
			<point x="352" y="245" type="line" smooth="yes"/>
			<point x="418" y="245"/>
			<point x="457" y="211"/>
			<point x="457" y="155" type="curve" smooth="yes"/>
			<point x="457" y="97"/>
			<point x="418" y="63"/>
			<point x="352" y="63" type="curve" smooth="yes"/>
			<point x="145" y="63" type="line"/>
			<point x="191" y="12" type="line"/>
			<point x="191" y="720" type="line"/>
			<point x="117" y="720" type="line"/>
		</contour>
		<contour>
			<point x="30" y="429" type="line"/>
			<point x="426" y="429" type="line"/>
			<point x="426" y="492" type="line"/>
			<point x="30" y="492" type="line"/>
		</contour>
	</outline>
</glyph>
<glyph name="Fita" format="2">
	<unicode hex="0472"/>
	<advance width="852"/>
	<outline>
		<contour>
			<point x="426" y="-16" type="curve" smooth="yes"/>
			<point x="639" y="-16"/>
			<point x="797" y="144"/>
			<point x="797" y="358" type="curve" smooth="yes"/>
			<point x="797" y="571"/>
			<point x="639" y="731"/>
			<point x="426" y="731" type="curve" smooth="yes"/>
			<point x="213" y="731"/>
			<point x="55" y="571"/>
			<point x="55" y="358" type="curve" smooth="yes"/>
			<point x="55" y="144"/>
			<point x="213" y="-16"/>
		</contour>
		<contour>
			<point x="426" y="54" type="curve" smooth="yes"/>
			<point x="255" y="54"/>
			<point x="133" y="181"/>
			<point x="133" y="358" type="curve" smooth="yes"/>
			<point x="133" y="534"/>
			<point x="255" y="661"/>
			<point x="426" y="661" type="curve" smooth="yes"/>
			<point x="597" y="661"/>
			<point x="719" y="534"/>
			<point x="719" y="358" type="curve" smooth="yes"/>
			<point x="719" y="181"/>
			<point x="597" y="54"/>
		</contour>
		<contour>
			<point x="97" y="337" type="line"/>
			<point x="755" y="337" type="line"/>
			<point x="755" y="406" type="line"/>
			<point x="97" y="406" type="line"/>
		</contour>
	</outline>
	<anchor name="top.UC" x="426" y="750"/>
</glyph>
<glyph name="fita" format="2">
	<unicode hex="0473"/>
	<advance width="614"/>
	<outline>
		<contour>
			<point x="307" y="-16" type="curve" smooth="yes"/>
			<point x="458" y="-16"/>
			<point x="567" y="94"/>
			<point x="567" y="246" type="curve" smooth="yes"/>
			<point x="567" y="398"/>
			<point x="458" y="508"/>
			<point x="307" y="508" type="curve" smooth="yes"/>
			<point x="156" y="508"/>
			<point x="47" y="398"/>
			<point x="47" y="246" type="curve" smooth="yes"/>
			<point x="47" y="94"/>
			<point x="156" y="-16"/>
		</contour>
		<contour>
			<point x="307" y="49" type="curve" smooth="yes"/>
			<point x="199" y="49"/>
			<point x="123" y="130"/>
			<point x="123" y="246" type="curve" smooth="yes"/>
			<point x="123" y="362"/>
			<point x="199" y="443"/>
			<point x="307" y="443" type="curve" smooth="yes"/>
			<point x="415" y="443"/>
			<point x="491" y="362"/>
			<point x="491" y="246" type="curve" smooth="yes"/>
			<point x="491" y="130"/>
			<point x="415" y="49"/>
		</contour>
		<contour>
			<point x="85" y="220" type="line"/>
			<point x="529" y="220" type="line"/>
			<point x="529" y="281" type="line"/>
			<point x="85" y="281" type="line"/>
		</contour>
	</outline>
</glyph>
<glyph name="Izhitsa" format="2">
	<unicode hex="0474"/>
	<advance width="745"/>
	<outline>
		<contour>
			<point x="314" y="0" type="line"/>
			<point x="397" y="0" type="line"/>
			<point x="622" y="599" type="line" smooth="yes"/>
			<point x="636" y="635"/>
			<point x="649" y="646"/>
			<point x="679" y="646" type="curve" smooth="yes"/>
			<point x="730" y="646" type="line"/>
			<point x="730" y="715" type="line"/>
			<point x="664" y="715" type="line" smooth="yes"/>
			<point x="609" y="715"/>
			<point x="579" y="693"/>
			<point x="555" y="626" type="curve" smooth="yes"/>
			<point x="341" y="42" type="line"/>
			<point x="373" y="42" type="line"/>
			<point x="119" y="715" type="line"/>
			<point x="36" y="715" type="line"/>
		</contour>
	</outline>
</glyph>
<glyph name="izhitsa" format="2">
	<unicode hex="0475"/>
	<advance width="579"/>
	<outline>
		<contour>
			<point x="232" y="0" type="line"/>
			<point x="305" y="0" type="line"/>
			<point x="468" y="396" type="line" smooth="yes"/>
			<point x="478" y="420"/>
			<point x="489" y="428"/>
			<point x="513" y="428" type="curve" smooth="yes"/>
			<point x="559" y="428" type="line"/>
			<point x="559" y="492" type="line"/>
			<point x="503" y="492" type="line" smooth="yes"/>
			<point x="449" y="492"/>
			<point x="425" y="476"/>
			<point x="406" y="427" type="curve" smooth="yes"/>
			<point x="254" y="39" type="line"/>
			<point x="286" y="39" type="line"/>
			<point x="100" y="492" type="line"/>
			<point x="20" y="492" type="line"/>
		</contour>
	</outline>
</glyph>
<glyph name="Gheup" format="2">
	<unicode hex="0490"/>
	<advance width="558"/>
	<outline>
		<contour>
			<point x="95" y="0" type="line"/>
			<point x="172" y="0" type="line"/>
			<point x="172" y="698" type="line"/>
			<point x="130" y="646" type="line"/>
			<point x="538" y="646" type="line"/>
			<point x="538" y="879" type="line"/>
			<point x="463" y="879" type="line"/>
			<point x="463" y="666" type="line"/>
			<point x="508" y="715" type="line"/>
			<point x="95" y="715" type="line"/>
		</contour>
	</outline>
</glyph>
<glyph name="Germandbls" format="2">
	<unicode hex="1E9E"/>
	<advance width="750"/>
	<outline>
		<contour>
			<point x="235" y="71" type="line"/>
			<point x="294" y="17"/>
			<point x="375" y="-16"/>
			<point x="465" y="-16" type="curve" smooth="yes"/>
			<point x="615" y="-16"/>
			<point x="722" y="84"/>
			<point x="722" y="209" type="curve" smooth="yes"/>
			<point x="722" y="349"/>
			<point x="588" y="441"/>
			<point x="451" y="417" type="curve"/>
			<point x="455" y="409" type="line"/>
			<point x="664" y="646" type="line"/>
			<point x="664" y="715" type="line"/>
			<point x="371" y="715" type="line" smooth="yes"/>
			<point x="186" y="715"/>
			<point x="75" y="604"/>
			<point x="75" y="417" type="curve" smooth="yes"/>
			<point x="75" y="0" type="line"/>
			<point x="152" y="0" type="line"/>
			<point x="152" y="417" type="line" smooth="yes"/>
			<point x="152" y="563"/>
			<point x="231" y="645"/>
			<point x="371" y="645" type="curve" smooth="yes"/>
			<point x="613" y="645" type="line"/>
			<point x="602" y="679" type="line"/>
			<point x="331" y="371" type="line"/>
			<point x="380" y="329" type="line"/>
			<point x="412" y="353"/>
			<point x="442" y="362"/>
			<point x="478" y="362" type="curve" smooth="yes"/>
			<point x="576" y="362"/>
			<point x="642" y="299"/>
			<point x="642" y="211" type="curve" smooth="yes"/>
			<point x="642" y="123"/>
			<point x="571" y="54"/>
			<point x="464" y="54" type="curve" smooth="yes"/>
			<point x="392" y="54"/>
			<point x="334" y="83"/>
			<point x="289" y="126" type="curve"/>
		</contour>
	</outline>
	<guideline x="-12"/>
	<guideline x="-1" y="0" angle="131.41"/>
	<guideline x="89" y="0" angle="131.41"/>
</glyph>
<glyph name="endash" format="2">
	<unicode hex="2013"/>
	<advance width="500"/>
	<outline>
		<contour>
			<point x="500" y="246" type="line"/>
			<point x="500" y="308" type="line"/>
			<point x="0" y="308" type="line"/>
			<point x="0" y="246" type="line"/>
		</contour>
	</outline>
	<guideline x="244"/>
	<guideline y="246"/>
</glyph>
<glyph name="quoteleft" format="2">
	<unicode hex="2018"/>
	<advance width="222"/>
	<outline>
		<contour>
			<point x="116" y="736" type="line"/>
			<point x="84" y="693"/>
			<point x="55" y="626"/>
			<point x="55" y="578" type="curve" smooth="yes"/>
			<point x="55" y="540"/>
			<point x="80" y="513"/>
			<point x="114" y="513" type="curve" smooth="yes"/>
			<point x="143" y="513"/>
			<point x="167" y="538"/>
			<point x="167" y="568" type="curve" smooth="yes"/>
			<point x="167" y="599"/>
			<point x="143" y="622"/>
			<point x="112" y="622" type="curve"/>
			<point x="120" y="605" type="line"/>
			<point x="118" y="640"/>
			<point x="137" y="694"/>
			<point x="166" y="736" type="curve"/>
		</contour>
	</outline>
</glyph>
<glyph name="dagger" format="2">
	<unicode hex="2020"/>
	<advance width="476"/>
	<outline>
		<contour>
			<point x="277" y="-129" type="line"/>
			<point x="277" y="736" type="line"/>
			<point x="203" y="736" type="line"/>
			<point x="203" y="-129" type="line"/>
		</contour>
		<contour>
			<point x="423" y="430" type="line"/>
			<point x="423" y="492" type="line"/>
			<point x="53" y="492" type="line"/>
			<point x="53" y="430" type="line"/>
		</contour>
	</outline>
</glyph>
<glyph name="guilsinglleft" format="2">
	<unicode hex="2039"/>
	<advance width="318"/>
	<outline>
		<contour>
			<point x="183" y="34" type="line"/>
			<point x="266" y="34" type="line"/>
			<point x="123" y="246" type="line"/>
			<point x="266" y="458" type="line"/>
			<point x="183" y="458" type="line"/>
			<point x="40" y="246" type="line"/>
		</contour>
	</outline>
	<guideline x="249"/>
</glyph>
<glyph name="fraction" format="2">
	<unicode hex="2044"/>
	<advance width="206"/>
	<outline>
		<contour>
			<point x="-93" y="0" type="line"/>
			<point x="381" y="715" type="line"/>
			<point x="299" y="715" type="line"/>
			<point x="-175" y="0" type="line"/>
		</contour>
	</outline>
</glyph>
<glyph name="dong" format="2">
	<unicode hex="20AB"/>
	<advance width="653"/>
	<outline>
		<contour>
			<point x="297" y="132" type="curve" smooth="yes"/>
			<point x="402" y="132"/>
			<point x="473" y="204"/>
			<point x="464" y="297" type="curve"/>
			<point x="448" y="313" type="line"/>
			<point x="442" y="244"/>
			<point x="382" y="196"/>
			<point x="310" y="196" type="curve" smooth="yes"/>
			<point x="230" y="196"/>
			<point x="174" y="256"/>
			<point x="174" y="341" type="curve" smooth="yes"/>
			<point x="174" y="425"/>
			<point x="229" y="487"/>
			<point x="307" y="487" type="curve" smooth="yes"/>
			<point x="386" y="487"/>
			<point x="441" y="423"/>
			<point x="441" y="332" type="curve" smooth="yes"/>
			<point x="441" y="249" type="line"/>
			<point x="442" y="246" type="line"/>
			<point x="442" y="145" type="line"/>
			<point x="515" y="145" type="line"/>
			<point x="515" y="715" type="line"/>
			<point x="441" y="715" type="line"/>
			<point x="441" y="417" type="line"/>
			<point x="460" y="417" type="line"/>
			<point x="447" y="497"/>
			<point x="382" y="550"/>
			<point x="295" y="550" type="curve" smooth="yes"/>
			<point x="182" y="550"/>
			<point x="97" y="460"/>
			<point x="97" y="341" type="curve" smooth="yes"/>
			<point x="97" y="219"/>
			<point x="184" y="132"/>
		</contour>
		<contour>
			<point x="108" y="1" type="line"/>
			<point x="515" y="1" type="line"/>
			<point x="515" y="62" type="line"/>
			<point x="108" y="62" type="line"/>
		</contour>
		<contour>
			<point x="324" y="600" type="line"/>
			<point x="586" y="600" type="line"/>
			<point x="586" y="654" type="line"/>
			<point x="324" y="654" type="line"/>
		</contour>
	</outline>
</glyph>
<glyph name="Euro" format="2">
	<unicode hex="20AC"/>
	<advance width="660"/>
	<outline>
		<contour>
			<point x="589" y="163" type="line"/>
			<point x="542" y="97"/>
			<point x="474" y="52"/>
			<point x="395" y="52" type="curve" smooth="yes"/>
			<point x="258" y="52"/>
			<point x="167" y="166"/>
			<point x="167" y="357" type="curve" smooth="yes"/>
			<point x="167" y="551"/>
			<point x="258" y="663"/>
			<point x="396" y="663" type="curve" smooth="yes"/>
			<point x="476" y="663"/>
			<point x="544" y="618"/>
			<point x="591" y="552" type="curve"/>
			<point x="644" y="601" type="line"/>
			<point x="583" y="682"/>
			<point x="495" y="731"/>
			<point x="396" y="731" type="curve" smooth="yes"/>
			<point x="218" y="731"/>
			<point x="89" y="578"/>
			<point x="89" y="357" type="curve" smooth="yes"/>
			<point x="89" y="138"/>
			<point x="215" y="-16"/>
			<point x="394" y="-16" type="curve" smooth="yes"/>
			<point x="493" y="-16"/>
			<point x="581" y="33"/>
			<point x="642" y="114" type="curve"/>
		</contour>
		<contour>
			<point x="461" y="247" type="line"/>
			<point x="473" y="311" type="line"/>
			<point x="19" y="311" type="line"/>
			<point x="19" y="247" type="line"/>
		</contour>
		<contour>
			<point x="491" y="407" type="line"/>
			<point x="503" y="471" type="line"/>
			<point x="19" y="471" type="line"/>
			<point x="19" y="407" type="line"/>
		</contour>
	</outline>
	<guideline x="0" y="799" angle="43.42"/>
	<guideline x="410" y="0" angle="100.62"/>
	<guideline x="0" y="4" angle="136.58"/>
</glyph>
<glyph name="hryvnia" format="2">
	<unicode hex="20B4"/>
	<advance width="660"/>
	<outline>
		<contour>
			<point x="333" y="-16" type="curve" smooth="yes"/>
			<point x="437" y="-16"/>
			<point x="526" y="21"/>
			<point x="591" y="90" type="curve"/>
			<point x="543" y="145" type="line"/>
			<point x="491" y="83"/>
			<point x="421" y="52"/>
			<point x="333" y="52" type="curve" smooth="yes"/>
			<point x="228" y="52"/>
			<point x="168" y="85"/>
			<point x="168" y="142" type="curve" smooth="yes"/>
			<point x="168" y="217"/>
			<point x="244" y="266"/>
			<point x="359" y="345" type="curve" smooth="yes"/>
			<point x="486" y="432"/>
			<point x="572" y="479"/>
			<point x="572" y="574" type="curve" smooth="yes"/>
			<point x="572" y="673"/>
			<point x="484" y="731"/>
			<point x="346" y="731" type="curve" smooth="yes"/>
			<point x="253" y="731"/>
			<point x="168" y="694"/>
			<point x="110" y="629" type="curve"/>
			<point x="158" y="576" type="line"/>
			<point x="203" y="636"/>
			<point x="268" y="663"/>
			<point x="344" y="663" type="curve" smooth="yes"/>
			<point x="440" y="663"/>
			<point x="494" y="628"/>
			<point x="494" y="571" type="curve" smooth="yes"/>
			<point x="494" y="506"/>
			<point x="412" y="460"/>
			<point x="322" y="396" type="curve" smooth="yes"/>
			<point x="135" y="263"/>
			<point x="90" y="214"/>
			<point x="90" y="137" type="curve" smooth="yes"/>
			<point x="90" y="38"/>
			<point x="175" y="-16"/>
		</contour>
		<contour>
			<point x="38" y="249" type="line"/>
			<point x="622" y="249" type="line"/>
			<point x="622" y="313" type="line"/>
			<point x="38" y="313" type="line"/>
		</contour>
		<contour>
			<point x="38" y="407" type="line"/>
			<point x="622" y="407" type="line"/>
			<point x="622" y="471" type="line"/>
			<point x="38" y="471" type="line"/>
		</contour>
	</outline>
</glyph>
<glyph name="rupeeindian" format="2">
	<unicode hex="20B9"/>
	<advance width="660"/>
	<outline>
		<contour>
			<point x="52" y="647" type="line"/>
			<point x="296" y="647" type="line" smooth="yes"/>
			<point x="393" y="647"/>
			<point x="452" y="598"/>
			<point x="452" y="515" type="curve" smooth="yes"/>
			<point x="452" y="432"/>
			<point x="393" y="383"/>
			<point x="296" y="383" type="curve" smooth="yes"/>
			<point x="53" y="383" type="line"/>
			<point x="53" y="315" type="line"/>
			<point x="296" y="315" type="line" smooth="yes"/>
			<point x="437" y="315"/>
			<point x="531" y="395"/>
			<point x="531" y="515" type="curve" smooth="yes"/>
			<point x="531" y="623"/>
			<point x="437" y="695"/>
			<point x="296" y="695" type="curve" smooth="yes"/>
			<point x="52" y="695" type="line"/>
		</contour>
		<contour>
			<point x="611" y="0" type="line"/>
			<point x="163" y="322" type="line"/>
			<point x="53" y="315" type="line"/>
			<point x="482" y="0" type="line"/>
		</contour>
		<contour>
			<point x="587" y="481" type="line"/>
			<point x="600" y="549" type="line"/>
			<point x="52" y="549" type="line"/>
			<point x="52" y="481" type="line"/>
		</contour>
		<contour>
			<point x="617" y="647" type="line"/>
			<point x="630" y="715" type="line"/>
			<point x="52" y="715" type="line"/>
			<point x="52" y="647" type="line"/>
		</contour>
	</outline>
	<guideline x="493" y="0" angle="100.49"/>
</glyph>
<glyph name="liraturkish" format="2">
	<unicode hex="20BA"/>
	<advance width="660"/>
	<outline>
		<contour>
			<point x="139" y="0" type="line"/>
			<point x="290" y="0" type="line" smooth="yes"/>
			<point x="510" y="0"/>
			<point x="627" y="108"/>
			<point x="627" y="338" type="curve" smooth="yes"/>
			<point x="627" y="348" type="line"/>
			<point x="553" y="353" type="line"/>
			<point x="553" y="338" type="line" smooth="yes"/>
			<point x="553" y="150"/>
			<point x="462" y="65"/>
			<point x="290" y="65" type="curve" smooth="yes"/>
			<point x="213" y="65" type="line"/>
			<point x="213" y="715" type="line"/>
			<point x="139" y="715" type="line"/>
		</contour>
		<contour>
			<point x="415" y="376" type="line"/>
			<point x="415" y="444" type="line"/>
			<point x="28" y="281" type="line"/>
			<point x="28" y="213" type="line"/>
		</contour>
		<contour>
			<point x="415" y="540" type="line"/>
			<point x="415" y="608" type="line"/>
			<point x="28" y="445" type="line"/>
			<point x="28" y="377" type="line"/>
		</contour>
	</outline>
</glyph>
<glyph name="ruble" format="2">
	<unicode hex="20BD"/>
	<advance width="660"/>
	<outline>
		<contour>
			<point x="235" y="0" type="line"/>
			<point x="235" y="651" type="line"/>
			<point x="396" y="651" type="line" smooth="yes"/>
			<point x="495" y="651"/>
			<point x="556" y="600"/>
			<point x="556" y="515" type="curve" smooth="yes"/>
			<point x="556" y="430"/>
			<point x="495" y="379"/>
			<point x="396" y="379" type="curve" smooth="yes"/>
			<point x="35" y="379" type="line"/>
			<point x="35" y="315" type="line"/>
			<point x="396" y="315" type="line" smooth="yes"/>
			<point x="537" y="315"/>
			<point x="631" y="395"/>
			<point x="631" y="515" type="curve" smooth="yes"/>
			<point x="631" y="635"/>
			<point x="537" y="715"/>
			<point x="396" y="715" type="curve" smooth="yes"/>
			<point x="161" y="715" type="line"/>
			<point x="161" y="0" type="line"/>
		</contour>
		<contour>
			<point x="475" y="200" type="line"/>
			<point x="35" y="200" type="line"/>
			<point x="35" y="136" type="line"/>
			<point x="475" y="136" type="line"/>
		</contour>
	</outline>
</glyph>
<glyph name="numero" format="2">
	<unicode hex="2116"/>
	<advance width="1204"/>
	<outline>
		<contour>
			<point x="83" y="0" type="line"/>
			<point x="157" y="0" type="line"/>
			<point x="157" y="631" type="line"/>
			<point x="141" y="631" type="line"/>
			<point x="571" y="0" type="line"/>
			<point x="655" y="0" type="line"/>
			<point x="655" y="715" type="line"/>
			<point x="581" y="715" type="line"/>
			<point x="581" y="84" type="line"/>
			<point x="597" y="84" type="line"/>
			<point x="167" y="715" type="line"/>
			<point x="83" y="715" type="line"/>
		</contour>
		<contour>
			<point x="805" y="232" type="line"/>
			<point x="1137" y="232" type="line"/>
			<point x="1137" y="289" type="line"/>
			<point x="805" y="289" type="line"/>
		</contour>
		<contour>
			<point x="971" y="345" type="curve" smooth="yes"/>
			<point x="1079" y="345"/>
			<point x="1157" y="422"/>
			<point x="1157" y="530" type="curve" smooth="yes"/>
			<point x="1157" y="638"/>
			<point x="1079" y="715"/>
			<point x="971" y="715" type="curve" smooth="yes"/>
			<point x="863" y="715"/>
			<point x="785" y="638"/>
			<point x="785" y="530" type="curve" smooth="yes"/>
			<point x="785" y="422"/>
			<point x="863" y="345"/>
		</contour>
		<contour>
			<point x="971" y="402" type="curve" smooth="yes"/>
			<point x="903" y="402"/>
			<point x="855" y="456"/>
			<point x="855" y="530" type="curve" smooth="yes"/>
			<point x="855" y="605"/>
			<point x="903" y="658"/>
			<point x="971" y="658" type="curve" smooth="yes"/>
			<point x="1039" y="658"/>
			<point x="1087" y="605"/>
			<point x="1087" y="530" type="curve" smooth="yes"/>
			<point x="1087" y="456"/>
			<point x="1039" y="402"/>
		</contour>
	</outline>
</glyph>
<glyph name="trademark" format="2">
	<unicode hex="2122"/>
	<advance width="883"/>
	<outline>
		<contour>
			<point x="227" y="316" type="line"/>
			<point x="227" y="668" type="line"/>
			<point x="167" y="668" type="line"/>
			<point x="167" y="316" type="line"/>
		</contour>
		<contour>
			<point x="359" y="663" type="line"/>
			<point x="359" y="715" type="line"/>
			<point x="35" y="715" type="line"/>
			<point x="35" y="663" type="line"/>
		</contour>
		<contour>
			<point x="654" y="355" type="line"/>
			<point x="817" y="684" type="line"/>
			<point x="789" y="685" type="line"/>
			<point x="789" y="316" type="line"/>
			<point x="848" y="316" type="line"/>
			<point x="848" y="715" type="line"/>
			<point x="776" y="715" type="line"/>
			<point x="618" y="394" type="line"/>
			<point x="647" y="394" type="line"/>
			<point x="490" y="715" type="line"/>
			<point x="416" y="715" type="line"/>
			<point x="416" y="316" type="line"/>
			<point x="475" y="316" type="line"/>
			<point x="475" y="685" type="line"/>
			<point x="447" y="684" type="line"/>
			<point x="610" y="355" type="line"/>
		</contour>
	</outline>
</glyph>
<glyph name="minus" format="2">
	<unicode hex="2212"/>
	<advance width="660"/>
	<outline>
		<contour>
			<point x="535" y="326" type="line"/>
			<point x="535" y="388" type="line"/>
			<point x="125" y="388" type="line"/>
			<point x="125" y="326" type="line"/>
		</contour>
	</outline>
	<guideline x="443"/>
	<guideline y="357"/>
</glyph>
<glyph name="De.loclBGR" format="2">
	<advance width="782"/>
	<outline>
		<contour>
			<point x="80" y="20" type="line"/>
			<point x="158" y="20" type="line"/>
			<point x="389" y="625" type="line"/>
			<point x="620" y="20" type="line"/>
			<point x="701" y="20" type="line"/>
			<point x="432" y="715" type="line"/>
			<point x="349" y="715" type="line"/>
		</contour>
		<contour>
			<point x="30" y="-174" type="line"/>
			<point x="105" y="-174" type="line"/>
			<point x="105" y="0" type="line"/>
			<point x="677" y="0" type="line"/>
			<point x="677" y="-174" type="line"/>
			<point x="752" y="-174" type="line"/>
			<point x="752" y="69" type="line"/>
			<point x="30" y="69" type="line"/>
		</contour>
	</outline>
</glyph>
<glyph name="Ef.loclBGR" format="2">
	<advance width="863"/>
	<outline>
		<contour>
			<point x="432" y="54" type="curve" smooth="yes"/>
			<point x="678" y="54"/>
			<point x="808" y="159"/>
			<point x="808" y="358" type="curve" smooth="yes"/>
			<point x="808" y="556"/>
			<point x="679" y="661"/>
			<point x="432" y="661" type="curve" smooth="yes"/>
			<point x="185" y="661"/>
			<point x="55" y="556"/>
			<point x="55" y="358" type="curve" smooth="yes"/>
			<point x="55" y="159"/>
			<point x="185" y="54"/>
		</contour>
		<contour>
			<point x="432" y="124" type="curve" smooth="yes"/>
			<point x="236" y="124"/>
			<point x="135" y="204"/>
			<point x="135" y="358" type="curve" smooth="yes"/>
			<point x="135" y="515"/>
			<point x="234" y="591"/>
			<point x="432" y="591" type="curve" smooth="yes"/>
			<point x="628" y="591"/>
			<point x="728" y="514"/>
			<point x="728" y="358" type="curve" smooth="yes"/>
			<point x="728" y="201"/>
			<point x="629" y="124"/>
		</contour>
		<contour>
			<point x="393" y="-50" type="line"/>
			<point x="470" y="-50" type="line"/>
			<point x="470" y="68" type="line"/>
			<point x="467" y="112" type="line"/>
			<point x="467" y="604" type="line"/>
			<point x="470" y="643" type="line"/>
			<point x="470" y="765" type="line"/>
			<point x="393" y="765" type="line"/>
			<point x="393" y="643" type="line"/>
			<point x="396" y="604" type="line"/>
			<point x="396" y="112" type="line"/>
			<point x="393" y="68" type="line"/>
		</contour>
	</outline>
</glyph>
<glyph name="El.loclBGR" format="2">
	<advance width="727"/>
	<outline>
		<contour>
			<point x="36" y="0" type="line"/>
			<point x="116" y="0" type="line"/>
			<point x="362" y="622" type="line"/>
			<point x="608" y="0" type="line"/>
			<point x="691" y="0" type="line"/>
			<point x="405" y="715" type="line"/>
			<point x="322" y="715" type="line"/>
		</contour>
	</outline>
	<anchor name="top.UC" x="363" y="750"/>
</glyph>
<glyph name="acutecomb.asc" format="2">
	<outline>
		<contour>
			<point x="154" y="731" type="line"/>
			<point x="62" y="731" type="line"/>
			<point x="-52" y="587" type="line"/>
			<point x="19" y="587" type="line"/>
		</contour>
	</outline>
	<anchor name="_top.LC" x="0" y="544"/>
</glyph>
<glyph name="be.loclMKDSRB" format="2">
	<advance width="593"/>
	<outline>
		<contour>
			<point x="300" y="-16" type="curve" smooth="yes"/>
			<point x="443" y="-16"/>
			<point x="546" y="87"/>
			<point x="546" y="230" type="curve" smooth="yes"/>
			<point x="546" y="341"/>
			<point x="482" y="427"/>
			<point x="360" y="479" type="curve" smooth="yes"/>
			<point x="234" y="533" type="line" smooth="yes"/>
			<point x="204" y="546"/>
			<point x="191" y="560"/>
			<point x="191" y="581" type="curve" smooth="yes"/>
			<point x="191" y="613"/>
			<point x="212" y="626"/>
			<point x="273" y="632" type="curve" smooth="yes"/>
			<point x="493" y="653" type="line"/>
			<point x="485" y="719" type="line"/>
			<point x="266" y="699" type="line" smooth="yes"/>
			<point x="170" y="690"/>
			<point x="120" y="649"/>
			<point x="120" y="581" type="curve" smooth="yes"/>
			<point x="120" y="531"/>
			<point x="148" y="496"/>
			<point x="209" y="470" type="curve" smooth="yes"/>
			<point x="325" y="421" type="line" smooth="yes"/>
			<point x="417" y="382"/>
			<point x="469" y="312"/>
			<point x="469" y="227" type="curve" smooth="yes"/>
			<point x="469" y="122"/>
			<point x="399" y="50"/>
			<point x="297" y="50" type="curve" smooth="yes"/>
			<point x="193" y="50"/>
			<point x="124" y="117"/>
			<point x="124" y="220" type="curve" smooth="yes"/>
			<point x="124" y="325"/>
			<point x="204" y="415"/>
			<point x="317" y="436" type="curve"/>
			<point x="284" y="478" type="line"/>
			<point x="139" y="448"/>
			<point x="47" y="347"/>
			<point x="47" y="217" type="curve" smooth="yes"/>
			<point x="47" y="77"/>
			<point x="148" y="-16"/>
		</contour>
	</outline>
</glyph>
<glyph name="breveacutecomb.cap" format="2">
	<outline>
		<contour>
			<point x="0" y="795" type="curve" smooth="yes"/>
			<point x="88" y="795"/>
			<point x="153" y="851"/>
			<point x="161" y="934" type="curve"/>
			<point x="97" y="934" type="line"/>
			<point x="90" y="884"/>
			<point x="52" y="855"/>
			<point x="0" y="855" type="curve" smooth="yes"/>
			<point x="-52" y="855"/>
			<point x="-90" y="884"/>
			<point x="-97" y="934" type="curve"/>
			<point x="-161" y="934" type="line"/>
			<point x="-153" y="851"/>
			<point x="-88" y="795"/>
		</contour>
		<contour>
			<point x="-38" y="929" type="line"/>
			<point x="24" y="929" type="line"/>
			<point x="164" y="1076" type="line"/>
			<point x="75" y="1076" type="line"/>
		</contour>
	</outline>
	<anchor name="_top.UC" x="0" y="750"/>
</glyph>
<glyph name="brevecomb.cap" format="2">
	<outline>
		<contour>
			<point x="0" y="795" type="curve" smooth="yes"/>
			<point x="88" y="795"/>
			<point x="153" y="851"/>
			<point x="161" y="934" type="curve"/>
			<point x="97" y="934" type="line"/>
			<point x="90" y="884"/>
			<point x="52" y="855"/>
			<point x="0" y="855" type="curve" smooth="yes"/>
			<point x="-52" y="855"/>
			<point x="-90" y="884"/>
			<point x="-97" y="934" type="curve"/>
			<point x="-161" y="934" type="line"/>
			<point x="-153" y="851"/>
			<point x="-88" y="795"/>
		</contour>
	</outline>
	<anchor name="_top.UC" x="0" y="750"/>
	<anchor name="top.UC" x="1" y="895"/>
</glyph>
<glyph name="brevecomb.cyrl.cap" format="2">
	<outline>
		<contour>
			<point x="0" y="584" type="curve" smooth="yes"/>
			<point x="90" y="584"/>
			<point x="156" y="632"/>
			<point x="164" y="714" type="curve"/>
			<point x="95" y="714" type="line"/>
			<point x="87" y="658"/>
			<point x="51" y="632"/>
			<point x="0" y="632" type="curve" smooth="yes"/>
			<point x="-52" y="632"/>
			<point x="-88" y="658"/>
			<point x="-96" y="714" type="curve"/>
			<point x="-165" y="714" type="line"/>
			<point x="-157" y="632"/>
			<point x="-91" y="584"/>
		</contour>
	</outline>
	<anchor name="_top.UC" x="0" y="544"/>
</glyph>
<glyph name="brevecomb.cyrl" format="2">
	<outline>
		<contour>
			<point x="0" y="584" type="curve" smooth="yes"/>
			<point x="89" y="584"/>
			<point x="155" y="632"/>
			<point x="163" y="714" type="curve"/>
			<point x="96" y="714" type="line"/>
			<point x="88" y="657"/>
			<point x="52" y="631"/>
			<point x="0" y="631" type="curve" smooth="yes"/>
			<point x="-53" y="631"/>
			<point x="-89" y="657"/>
			<point x="-97" y="714" type="curve"/>
			<point x="-164" y="714" type="line"/>
			<point x="-156" y="632"/>
			<point x="-90" y="584"/>
		</contour>
	</outline>
	<anchor name="_top.LC" x="0" y="544"/>
</glyph>
<glyph name="brevegravecomb" format="2">
	<outline>
		<contour>
			<point x="0" y="582" type="curve" smooth="yes"/>
			<point x="79" y="582"/>
			<point x="143" y="641"/>
			<point x="151" y="732" type="curve"/>
			<point x="89" y="732" type="line"/>
			<point x="81" y="671"/>
			<point x="45" y="639"/>
			<point x="0" y="639" type="curve" smooth="yes"/>
			<point x="-45" y="639"/>
			<point x="-81" y="671"/>
			<point x="-89" y="732" type="curve"/>
			<point x="-151" y="732" type="line"/>
			<point x="-143" y="641"/>
			<point x="-79" y="582"/>
		</contour>
		<contour>
			<point x="-20" y="726" type="line"/>
			<point x="43" y="726" type="line"/>
			<point x="-65" y="867" type="line"/>
			<point x="-155" y="867" type="line"/>
		</contour>
	</outline>
	<anchor name="_top.LC" x="0" y="544"/>
</glyph>
<glyph name="brevehookabovecomb.cap" format="2">
	<outline>
		<contour>
			<point x="0" y="795" type="curve" smooth="yes"/>
			<point x="88" y="795"/>
			<point x="153" y="851"/>
			<point x="161" y="934" type="curve"/>
			<point x="97" y="934" type="line"/>
			<point x="90" y="884"/>
			<point x="52" y="855"/>
			<point x="0" y="855" type="curve" smooth="yes"/>
			<point x="-52" y="855"/>
			<point x="-90" y="884"/>
			<point x="-97" y="934" type="curve"/>
			<point x="-161" y="934" type="line"/>
			<point x="-153" y="851"/>
			<point x="-88" y="795"/>
		</contour>
		<contour>
			<point x="-13" y="911" type="line"/>
			<point x="50" y="935"/>
			<point x="85" y="975"/>
			<point x="85" y="1022" type="curve" smooth="yes"/>
			<point x="85" y="1071"/>
			<point x="43" y="1109"/>
			<point x="-11" y="1109" type="curve" smooth="yes"/>
			<point x="-45" y="1109"/>
			<point x="-75" y="1097"/>
			<point x="-102" y="1074" type="curve"/>
			<point x="-70" y="1035" type="line"/>
			<point x="-54" y="1048"/>
			<point x="-36" y="1055"/>
			<point x="-19" y="1055" type="curve" smooth="yes"/>
			<point x="9" y="1055"/>
			<point x="26" y="1042"/>
			<point x="26" y="1018" type="curve" smooth="yes"/>
			<point x="26" y="994"/>
			<point x="4" y="972"/>
			<point x="-35" y="953" type="curve"/>
		</contour>
	</outline>
	<anchor name="_top.UC" x="0" y="750"/>
</glyph>
<glyph name="brevehookabovecomb" format="2">
	<outline>
		<contour>
			<point x="0" y="582" type="curve" smooth="yes"/>
			<point x="79" y="582"/>
			<point x="143" y="641"/>
			<point x="151" y="732" type="curve"/>
			<point x="89" y="732" type="line"/>
			<point x="81" y="671"/>
			<point x="45" y="639"/>
			<point x="0" y="639" type="curve" smooth="yes"/>
			<point x="-45" y="639"/>
			<point x="-81" y="671"/>
			<point x="-89" y="732" type="curve"/>
			<point x="-151" y="732" type="line"/>
			<point x="-143" y="641"/>
			<point x="-79" y="582"/>
		</contour>
		<contour>
			<point x="-14" y="698" type="line"/>
			<point x="48" y="721"/>
			<point x="83" y="759"/>
			<point x="83" y="802" type="curve" smooth="yes"/>
			<point x="83" y="850"/>
			<point x="41" y="887"/>
			<point x="-12" y="887" type="curve" smooth="yes"/>
			<point x="-46" y="887"/>
			<point x="-76" y="876"/>
			<point x="-102" y="853" type="curve"/>
			<point x="-71" y="814" type="line"/>
			<point x="-55" y="827"/>
			<point x="-37" y="834"/>
			<point x="-19" y="834" type="curve" smooth="yes"/>
			<point x="8" y="834"/>
			<point x="24" y="822"/>
			<point x="24" y="799" type="curve" smooth="yes"/>
			<point x="24" y="777"/>
			<point x="3" y="757"/>
			<point x="-36" y="740" type="curve"/>
		</contour>
	</outline>
	<anchor name="_top.LC" x="0" y="544"/>
</glyph>
<glyph name="caroncomb.cap" format="2">
	<outline>
		<contour>
			<point x="-166" y="943" type="line"/>
			<point x="-33" y="799" type="line"/>
			<point x="33" y="799" type="line"/>
			<point x="166" y="943" type="line"/>
			<point x="91" y="943" type="line"/>
			<point x="-38" y="815" type="line"/>
			<point x="40" y="815" type="line"/>
			<point x="-90" y="943" type="line"/>
		</contour>
	</outline>
	<anchor name="_top.UC" x="0" y="750"/>
</glyph>
<glyph name="circumflexacutecomb.cap" format="2">
	<outline>
		<contour>
			<point x="-155" y="799" type="line"/>
			<point x="-84" y="799" type="line"/>
			<point x="31" y="907" type="line"/>
			<point x="-34" y="907" type="line"/>
			<point x="81" y="799" type="line"/>
			<point x="155" y="799" type="line"/>
			<point x="33" y="933" type="line"/>
			<point x="-33" y="933" type="line"/>
		</contour>
		<contour>
			<point x="131" y="875" type="line"/>
			<point x="193" y="875" type="line"/>
			<point x="333" y="1022" type="line"/>
			<point x="244" y="1022" type="line"/>
		</contour>
	</outline>
	<anchor name="_top.UC" x="0" y="750"/>
</glyph>
<glyph name="circumflexacutecomb" format="2">
	<outline>
		<contour>
			<point x="-155" y="587" type="line"/>
			<point x="-84" y="587" type="line"/>
			<point x="31" y="699" type="line"/>
			<point x="-34" y="699" type="line"/>
			<point x="81" y="587" type="line"/>
			<point x="155" y="587" type="line"/>
			<point x="33" y="725" type="line"/>
			<point x="-33" y="725" type="line"/>
		</contour>
		<contour>
			<point x="122" y="677" type="line"/>
			<point x="183" y="677" type="line"/>
			<point x="318" y="818" type="line"/>
			<point x="230" y="818" type="line"/>
		</contour>
	</outline>
	<anchor name="_top.LC" x="0" y="544"/>
</glyph>
<glyph name="circumflexcomb.cap" format="2">
	<outline>
		<contour>
			<point x="166" y="799" type="line"/>
			<point x="33" y="943" type="line"/>
			<point x="-33" y="943" type="line"/>
			<point x="-166" y="799" type="line"/>
			<point x="-91" y="799" type="line"/>
			<point x="38" y="927" type="line"/>
			<point x="-40" y="927" type="line"/>
			<point x="90" y="799" type="line"/>
		</contour>
	</outline>
	<anchor name="_top.UC" x="0" y="750"/>
	<anchor name="top.UC" x="156" y="863"/>
</glyph>
<glyph name="circumflexcomb.narrow" format="2">
	<outline>
		<contour>
			<point x="152" y="587" type="line"/>
			<point x="28" y="761" type="line"/>
			<point x="-28" y="761" type="line"/>
			<point x="-152" y="587" type="line"/>
			<point x="-85" y="587" type="line"/>
			<point x="35" y="744" type="line"/>
			<point x="-38" y="744" type="line"/>
			<point x="82" y="587" type="line"/>
		</contour>
	</outline>
	<anchor name="_top.LC" x="0" y="544"/>
</glyph>
<glyph name="circumflexgravecomb.cap" format="2">
	<outline>
		<contour>
			<point x="155" y="799" type="line"/>
			<point x="33" y="933" type="line"/>
			<point x="-33" y="933" type="line"/>
			<point x="-155" y="799" type="line"/>
			<point x="-84" y="799" type="line"/>
			<point x="31" y="907" type="line"/>
			<point x="-34" y="907" type="line"/>
			<point x="81" y="799" type="line"/>
		</contour>
		<contour>
			<point x="175" y="875" type="line"/>
			<point x="236" y="875" type="line"/>
			<point x="129" y="1022" type="line"/>
			<point x="41" y="1022" type="line"/>
		</contour>
	</outline>
	<anchor name="_top.UC" x="0" y="750"/>
</glyph>
<glyph name="circumflexgravecomb" format="2">
	<outline>
		<contour>
			<point x="-155" y="587" type="line"/>
			<point x="-84" y="587" type="line"/>
			<point x="31" y="699" type="line"/>
			<point x="-34" y="699" type="line"/>
			<point x="81" y="587" type="line"/>
			<point x="155" y="587" type="line"/>
			<point x="33" y="725" type="line"/>
			<point x="-33" y="725" type="line"/>
		</contour>
		<contour>
			<point x="151" y="677" type="line"/>
			<point x="214" y="677" type="line"/>
			<point x="106" y="818" type="line"/>
			<point x="16" y="818" type="line"/>
		</contour>
	</outline>
	<anchor name="_top.LC" x="0" y="544"/>
</glyph>
<glyph name="circumflexhookabovecomb.cap" format="2">
	<outline>
		<contour>
			<point x="-155" y="799" type="line"/>
			<point x="-84" y="799" type="line"/>
			<point x="31" y="907" type="line"/>
			<point x="-34" y="907" type="line"/>
			<point x="81" y="799" type="line"/>
			<point x="155" y="799" type="line"/>
			<point x="33" y="933" type="line"/>
			<point x="-33" y="933" type="line"/>
		</contour>
		<contour>
			<point x="156" y="857" type="line"/>
			<point x="219" y="881"/>
			<point x="254" y="921"/>
			<point x="254" y="968" type="curve" smooth="yes"/>
			<point x="254" y="1017"/>
			<point x="212" y="1055"/>
			<point x="158" y="1055" type="curve" smooth="yes"/>
			<point x="124" y="1055"/>
			<point x="94" y="1043"/>
			<point x="67" y="1020" type="curve"/>
			<point x="99" y="981" type="line"/>
			<point x="115" y="994"/>
			<point x="133" y="1001"/>
			<point x="150" y="1001" type="curve" smooth="yes"/>
			<point x="178" y="1001"/>
			<point x="195" y="988"/>
			<point x="195" y="964" type="curve" smooth="yes"/>
			<point x="195" y="940"/>
			<point x="173" y="918"/>
			<point x="134" y="899" type="curve"/>
		</contour>
	</outline>
	<anchor name="_top.UC" x="0" y="750"/>
</glyph>
<glyph name="circumflexhookabovecomb" format="2">
	<outline>
		<contour>
			<point x="-155" y="587" type="line"/>
			<point x="-84" y="587" type="line"/>
			<point x="31" y="699" type="line"/>
			<point x="-34" y="699" type="line"/>
			<point x="81" y="587" type="line"/>
			<point x="155" y="587" type="line"/>
			<point x="33" y="725" type="line"/>
			<point x="-33" y="725" type="line"/>
		</contour>
		<contour>
			<point x="152" y="649" type="line"/>
			<point x="214" y="672"/>
			<point x="249" y="710"/>
			<point x="249" y="753" type="curve" smooth="yes"/>
			<point x="249" y="801"/>
			<point x="207" y="838"/>
			<point x="154" y="838" type="curve" smooth="yes"/>
			<point x="120" y="838"/>
			<point x="90" y="827"/>
			<point x="64" y="804" type="curve"/>
			<point x="95" y="765" type="line"/>
			<point x="111" y="778"/>
			<point x="129" y="785"/>
			<point x="147" y="785" type="curve" smooth="yes"/>
			<point x="174" y="785"/>
			<point x="190" y="773"/>
			<point x="190" y="750" type="curve" smooth="yes"/>
			<point x="190" y="728"/>
			<point x="169" y="708"/>
			<point x="130" y="691" type="curve"/>
		</contour>
	</outline>
	<anchor name="_top.LC" x="0" y="544"/>
</glyph>
<glyph name="circumflextildecomb.cap" format="2">
	<outline>
		<contour>
			<point x="-159" y="799" type="line"/>
			<point x="-88" y="799" type="line"/>
			<point x="27" y="907" type="line"/>
			<point x="-38" y="907" type="line"/>
			<point x="77" y="799" type="line"/>
			<point x="151" y="799" type="line"/>
			<point x="29" y="933" type="line"/>
			<point x="-37" y="933" type="line"/>
		</contour>
		<contour>
			<point x="-115" y="959" type="line"/>
			<point x="-110" y="992"/>
			<point x="-92" y="1012"/>
			<point x="-69" y="1012" type="curve" smooth="yes"/>
			<point x="-53" y="1012"/>
			<point x="-39" y="1002"/>
			<point x="-11" y="985" type="curve" smooth="yes"/>
			<point x="27" y="962"/>
			<point x="49" y="955"/>
			<point x="75" y="955" type="curve" smooth="yes"/>
			<point x="122" y="955"/>
			<point x="160" y="991"/>
			<point x="169" y="1044" type="curve"/>
			<point x="114" y="1067" type="line"/>
			<point x="109" y="1034"/>
			<point x="91" y="1014"/>
			<point x="68" y="1014" type="curve" smooth="yes"/>
			<point x="55" y="1014"/>
			<point x="46" y="1018"/>
			<point x="10" y="1039" type="curve" smooth="yes"/>
			<point x="-31" y="1064"/>
			<point x="-51" y="1071"/>
			<point x="-76" y="1071" type="curve" smooth="yes"/>
			<point x="-123" y="1071"/>
			<point x="-161" y="1035"/>
			<point x="-170" y="982" type="curve"/>
		</contour>
	</outline>
	<anchor name="_top.UC" x="0" y="750"/>
</glyph>
<glyph name="circumflextildecomb" format="2">
	<outline>
		<contour>
			<point x="-155" y="587" type="line"/>
			<point x="-84" y="587" type="line"/>
			<point x="31" y="699" type="line"/>
			<point x="-34" y="699" type="line"/>
			<point x="81" y="587" type="line"/>
			<point x="155" y="587" type="line"/>
			<point x="33" y="725" type="line"/>
			<point x="-33" y="725" type="line"/>
		</contour>
		<contour>
			<point x="-98" y="755" type="line"/>
			<point x="-93" y="790"/>
			<point x="-79" y="809"/>
			<point x="-58" y="809" type="curve" smooth="yes"/>
			<point x="-47" y="809"/>
			<point x="-37" y="803"/>
			<point x="-11" y="783" type="curve" smooth="yes"/>
			<point x="17" y="762"/>
			<point x="36" y="753"/>
			<point x="65" y="753" type="curve" smooth="yes"/>
			<point x="108" y="753"/>
			<point x="137" y="784"/>
			<point x="146" y="840" type="curve"/>
			<point x="99" y="860" type="line"/>
			<point x="94" y="825"/>
			<point x="80" y="806"/>
			<point x="59" y="806" type="curve" smooth="yes"/>
			<point x="48" y="806"/>
			<point x="37" y="812"/>
			<point x="12" y="832" type="curve" smooth="yes"/>
			<point x="-13" y="852"/>
			<point x="-35" y="862"/>
			<point x="-64" y="862" type="curve" smooth="yes"/>
			<point x="-107" y="862"/>
			<point x="-136" y="831"/>
			<point x="-145" y="775" type="curve"/>
		</contour>
	</outline>
	<anchor name="_top.LC" x="0" y="544"/>
</glyph>
<glyph name="commaaboverightcomb.short" format="2">
	<outline>
		<contour>
			<point x="8" y="554" type="line"/>
			<point x="32" y="588"/>
			<point x="56" y="635"/>
			<point x="56" y="674" type="curve" smooth="yes"/>
			<point x="56" y="707"/>
			<point x="34" y="731"/>
			<point x="2" y="731" type="curve" smooth="yes"/>
			<point x="-26" y="731"/>
			<point x="-48" y="709"/>
			<point x="-48" y="682" type="curve" smooth="yes"/>
			<point x="-48" y="655"/>
			<point x="-23" y="633"/>
			<point x="8" y="633" type="curve"/>
			<point x="-10" y="654" type="line"/>
			<point x="-8" y="628"/>
			<point x="-26" y="589"/>
			<point x="-47" y="554" type="curve"/>
		</contour>
	</outline>
	<anchor name="_top_right.LC.short" x="0" y="540"/>
	<guideline y="585"/>
</glyph>
<glyph name="dieresiscomb.cap" format="2">
	<outline>
		<contour>
			<point x="106" y="811" type="curve" smooth="yes"/>
			<point x="137" y="811"/>
			<point x="161" y="835"/>
			<point x="161" y="865" type="curve" smooth="yes"/>
			<point x="161" y="896"/>
			<point x="137" y="920"/>
			<point x="106" y="920" type="curve" smooth="yes"/>
			<point x="75" y="920"/>
			<point x="51" y="896"/>
			<point x="51" y="865" type="curve" smooth="yes"/>
			<point x="51" y="835"/>
			<point x="75" y="811"/>
		</contour>
		<contour>
			<point x="-106" y="811" type="curve" smooth="yes"/>
			<point x="-75" y="811"/>
			<point x="-51" y="835"/>
			<point x="-51" y="865" type="curve" smooth="yes"/>
			<point x="-51" y="896"/>
			<point x="-75" y="920"/>
			<point x="-106" y="920" type="curve" smooth="yes"/>
			<point x="-137" y="920"/>
			<point x="-161" y="896"/>
			<point x="-161" y="865" type="curve" smooth="yes"/>
			<point x="-161" y="835"/>
			<point x="-137" y="811"/>
		</contour>
	</outline>
	<anchor name="_top.UC" x="0" y="750"/>
</glyph>
<glyph name="dotaccentcomb.cap" format="2">
	<outline>
		<contour>
			<point x="0" y="809" type="curve" smooth="yes"/>
			<point x="33" y="809"/>
			<point x="57" y="833"/>
			<point x="57" y="865" type="curve" smooth="yes"/>
			<point x="57" y="898"/>
			<point x="33" y="922"/>
			<point x="0" y="922" type="curve" smooth="yes"/>
			<point x="-33" y="922"/>
			<point x="-57" y="898"/>
			<point x="-57" y="865" type="curve" smooth="yes"/>
			<point x="-57" y="833"/>
			<point x="-33" y="809"/>
		</contour>
	</outline>
	<anchor name="_top.UC" x="0" y="750"/>
</glyph>
<glyph name="el.loclBGR" format="2">
	<advance width="561"/>
	<outline>
		<contour>
			<point x="20" y="0" type="line"/>
			<point x="96" y="0" type="line"/>
			<point x="278" y="413" type="line"/>
			<point x="460" y="0" type="line"/>
			<point x="541" y="0" type="line"/>
			<point x="317" y="492" type="line"/>
			<point x="244" y="492" type="line"/>
		</contour>
	</outline>
</glyph>
